<svg xmlns="http://www.w3.org/2000/svg" width="25.322" height="28.137" viewBox="0 0 25.322 28.137">
  <path id="パス_21" data-name="パス 21" d="M12.432-14.112a1.3,1.3,0,0,0-1.3-1.26c-.63,0-1.344.21-2.016.252-.966-3.4-1.764-6.888-2.982-10.206-.462-1.26-1.428-4.326-3.15-4.326-1.6,0-3.318,3.192-4.032,4.326C-3.024-22.092-12.39-4.872-12.39-3.276a1.322,1.322,0,0,0,1.26,1.26A1.26,1.26,0,0,0-9.912-2.94c1.428-3.36,3.15-6.636,4.83-9.87,4.032.336,8.148.294,12.222.294.462,1.89.924,3.822,1.3,5.712A16.2,16.2,0,0,1,8.9-3.948a1.292,1.292,0,0,0,1.26,1.26,1.292,1.292,0,0,0,1.26-1.26A18.2,18.2,0,0,0,11-6.93c-.378-1.89-.84-3.822-1.3-5.712C10.71-12.684,12.432-12.684,12.432-14.112ZM6.51-15.036H5.082c-2.982.042-5.964-.042-8.9-.21,1.218-2.31,2.478-4.62,3.78-6.888a36.166,36.166,0,0,1,2.9-4.536A67.376,67.376,0,0,1,6.342-15.75Z" transform="translate(12.64 29.902)" fill="#0accc8" stroke="#0accc8" stroke-width="0.5"/>
</svg>
