<svg id="グループ_62" data-name="グループ 62" xmlns="http://www.w3.org/2000/svg" width="22.992" height="23.319" viewBox="0 0 22.992 23.319">
  <g id="グループ_57" data-name="グループ 57">
    <path id="パス_14" data-name="パス 14" d="M10.786,54.652a10.786,10.786,0,1,1,2.679-21.237.687.687,0,1,1-.34,1.331,9.4,9.4,0,1,0,6.5,5.885.687.687,0,1,1,1.29-.472A10.783,10.783,0,0,1,10.786,54.652" transform="translate(0 -31.333)" fill="#4a3a3d"/>
    <path id="パス_15" data-name="パス 15" d="M110.558,4.222c-.91.825-1.9,1.56-2.807,2.388a24.276,24.276,0,0,0-2.936,3.161,28.074,28.074,0,0,0-4.362,7.737,1.222,1.222,0,0,1-2.271.335q-1.191-1.714-2.393-3.42c-.993-1.416-2.775-3.209-1.667-5.054a.968.968,0,0,1,1.511-.322,28.8,28.8,0,0,1,2.239,2.69q.515.646,1.031,1.29a28.8,28.8,0,0,1,3.9-6.653A27.733,27.733,0,0,1,108.342.956,3.626,3.626,0,0,1,110.624,0a1.027,1.027,0,0,1,.665.3,1.855,1.855,0,0,1,.464.878,3.329,3.329,0,0,1-1.2,3.041" transform="translate(-88.82 0)" fill="#ff7fb2"/>
  </g>
</svg>
