<svg xmlns="http://www.w3.org/2000/svg" width="341.848" height="87.307" viewBox="0 0 341.848 87.307">
  <g id="グループ_167" data-name="グループ 167" transform="translate(-17.076 -14718.5)">
    <g id="グループ_87" data-name="グループ 87" transform="translate(18 14719)">
      <path id="パス_1" data-name="パス 1" d="M534.161,29.116v59.9h59.2L574.416,60.03,593.36,29.116Z" transform="translate(-253.36 -2.99)" fill="#ffc9ce" stroke="#947f6f" stroke-width="1"/>
      <path id="パス_2" data-name="パス 2" d="M534.232,153.646v15.261l33.586-15.261Z" transform="translate(-253.394 -82.877)" fill="#947f6f" stroke="#947f6f" stroke-width="1"/>
      <path id="パス_3" data-name="パス 3" d="M0,29.116,18.944,60.03,0,89.02H59.2v-59.9Z" transform="translate(0 -2.99)" fill="#ffc9ce" stroke="#947f6f" stroke-width="1"/>
      <path id="パス_4" data-name="パス 4" d="M75.818,153.646,110.4,168.907V153.646Z" transform="translate(-51.243 -82.877)" fill="#947f6f" stroke="#947f6f" stroke-width="1"/>
      <rect id="長方形_7" data-name="長方形 7" width="289.849" height="70.77" transform="translate(24.575 0)" fill="#ffc9ce" stroke="#947f6f" stroke-width="1"/>
    </g>
    <path id="パス_2310" data-name="パス 2310" d="M98.3,9.9a.608.608,0,0,0-.4-.58,6.879,6.879,0,0,0-1.94-.22c-.34,0-.68.02-1.02.04.02-.3.08-.62.08-.94a.6.6,0,0,0-.6-.58.582.582,0,0,0-.58.48,15.661,15.661,0,0,0-.14,2.76c0,2.12.14,4.22.14,6.34a7.74,7.74,0,0,0-3.5-.98c-1.56,0-3.12.56-3.12,2.36a3.023,3.023,0,0,0,3.12,2.78,4.82,4.82,0,0,0,4.34-2.24,12.416,12.416,0,0,1,1.26,1.04l.48.46a.62.62,0,0,0,.44.18.594.594,0,0,0,.6-.62.576.576,0,0,0-.18-.42,13.221,13.221,0,0,0-2.24-1.84c0-2.32-.16-4.66-.14-6.98v-.6a7.707,7.707,0,0,1,.96-.04,7.29,7.29,0,0,1,1.62.14.4.4,0,0,0,.22.04A.6.6,0,0,0,98.3,9.9Zm-4.62,8.56a3.573,3.573,0,0,1-3.34,1.72c-.86,0-1.94-.62-1.94-1.6,0-1.04,1.1-1.18,1.94-1.18A6.652,6.652,0,0,1,93.68,18.46Zm22.38-9.84a.6.6,0,0,0-.6-.6.545.545,0,0,0-.42.18c-.54.48-1.14,1.16-1.66,1.68l-3.9,3.88c-.14.14-.32.3-.46.46a.667.667,0,0,0-.18.46.65.65,0,0,0,.24.44c.86.82,1.64,1.7,2.42,2.6.78.92,1.58,1.84,2.32,2.8l.66.96a.589.589,0,0,0,.5.3.615.615,0,0,0,.6-.6.587.587,0,0,0-.08-.32,23.27,23.27,0,0,0-1.92-2.52c-1.04-1.28-2.12-2.54-3.28-3.72l.02-.02,3.7-3.68,1.3-1.3.56-.58A.545.545,0,0,0,116.06,8.62Zm24.86,8.18a4.835,4.835,0,0,0-3.26-4.76,12.974,12.974,0,0,0,.26-1.7.592.592,0,0,0-1.18-.06c-.08.48-.14.96-.24,1.44a10.574,10.574,0,0,0-1.6-.12,8.551,8.551,0,0,0-2.02.2,30.5,30.5,0,0,1,.3-3.58c1.34-.04,2.7-.08,4.04-.08.62,0,1.22.04,1.84.04A.591.591,0,0,0,139.12,7a17.707,17.707,0,0,0-2.06-.04c-1.22,0-2.44.02-3.66.08.06-.24.36-1.1.36-1.26a.594.594,0,0,0-1.14-.22,6.628,6.628,0,0,0-.44,1.52,20.924,20.924,0,0,0-4.12.5.585.585,0,0,0,.18,1.14.68.68,0,0,0,.2-.02,17.28,17.28,0,0,1,3.52-.42,27.054,27.054,0,0,0-.28,3.82c-2.9.96-6.18,3.78-6.18,7.08a2.484,2.484,0,0,0,2.74,2.7,5.258,5.258,0,0,0,1.66-.28c4.02-1.34,6.38-4.38,7.48-8.4a3.646,3.646,0,0,1,2.36,3.6c0,2.02-1.62,3.9-3.22,4.96a13.21,13.21,0,0,1-1.26.7.587.587,0,0,0-.36.54.615.615,0,0,0,.6.6.533.533,0,0,0,.24-.06C138.28,22.4,140.92,19.76,140.92,16.8Zm-4.68-3.92c-.98,3.66-3.04,6.36-6.7,7.6a4.1,4.1,0,0,1-1.28.22c-1.08,0-1.58-.46-1.58-1.54,0-2.66,2.74-4.92,5.02-5.8a13.856,13.856,0,0,0,.7,4.38.569.569,0,0,0,.54.34.585.585,0,0,0,.6-.58.533.533,0,0,0-.06-.24,13.307,13.307,0,0,1-.6-4.26,7.933,7.933,0,0,1,2.06-.22A9.484,9.484,0,0,1,136.24,12.88ZM156.6,18.4a.559.559,0,0,0-.22-.44c0-.12.02-.24.02-.36,0-1.72-1.74-3.54-3.08-4.44.68-.68,2.76-3.2,2.76-4.08,0-1.12-1.94-1.7-2.8-1.9a.39.39,0,0,0-.16-.02.58.58,0,0,0-.58.58.6.6,0,0,0,.46.6,5.115,5.115,0,0,1,1.86.78,15.907,15.907,0,0,1-2.84,3.62.566.566,0,0,0-.38.56.615.615,0,0,0,.48.58c1.14.36,2.98,2.36,3.08,3.58a7.129,7.129,0,0,0-1.84-.22c-1.54,0-3.82.5-3.82,2.44A2.349,2.349,0,0,0,151.98,22a4.408,4.408,0,0,0,4.2-3.02A.626.626,0,0,0,156.6,18.4Zm-1.58.24a3.182,3.182,0,0,1-3.04,2.18,1.181,1.181,0,0,1-1.26-1.14c0-1.06,1.86-1.26,2.62-1.26A5.965,5.965,0,0,1,155.02,18.64Zm14.72-6.44a.572.572,0,0,0,.56-.56c0-.94.04-1.9.04-2.84.4,0,.8-.02,1.22-.02.46,0,1.36.2,1.36-.54,0-.68-.86-.56-1.3-.56-1.54,0-3.1.04-4.64.14l.06-.62a22.015,22.015,0,0,1,3.58-1.36.517.517,0,0,0,.38-.52.547.547,0,0,0-.56-.56.44.44,0,0,0-.16.02,19.284,19.284,0,0,0-4.1,1.64.573.573,0,0,0-.22.38,13.307,13.307,0,0,0-.12,1.54c-.06.94-.12,1.88-.12,2.8,0,.48-.12,1.8.62,1.8a.559.559,0,0,0,.56-.56.341.341,0,0,0-.02-.14,5.6,5.6,0,0,1-.06-1c0-.78.04-1.54.08-2.3.78-.06,1.56-.08,2.34-.12,0,.78-.04,1.54-.04,2.32,0,.36-.08.8.32,1a.567.567,0,0,0-.6.48,12.692,12.692,0,0,0-.1,1.74q-.06,1.59-.06,3.18a18.923,18.923,0,0,0,.08,2.62.544.544,0,0,0,.54.5.628.628,0,0,0,.32-.12,41.25,41.25,0,0,1,4.72-.3,28.084,28.084,0,0,1-5.82,2.46c-.5.14-1.02.26-1.52.38a.555.555,0,0,0-.44.54.572.572,0,0,0,.56.56c.04,0,.08-.02.12-.02,2.58-.56,7.26-2.34,9.3-4.02a.672.672,0,0,0,.2-.32.466.466,0,0,0,.26-.32,28.5,28.5,0,0,0,.32-5.28V12.84a.534.534,0,0,0-.4-.52,11,11,0,0,0-2.16-.14h-.52a.558.558,0,0,0,.42-.54c0-.36-.04-.72-.04-1.06,0-.62.02-1.24.06-1.84a20.387,20.387,0,0,1,2.48-.18c0,1.06-.14,2.1-.2,3.14v.06a.548.548,0,0,0,.5.56.54.54,0,0,0,.6-.48,25.653,25.653,0,0,0,.2-3.3c.78,0,1.56.02,2.34.08h.08a.538.538,0,0,0,.54-.54.579.579,0,0,0-.5-.56,12.455,12.455,0,0,0-2.12-.08,34.654,34.654,0,0,0-3.82.16c.02-.24.04-.48.08-.72.76-.34,1.54-.6,2.32-.92a.557.557,0,0,0-.34-1.06,20.689,20.689,0,0,0-2.74,1.12.494.494,0,0,0-.28.4,25.875,25.875,0,0,0-.3,4.14,7.245,7.245,0,0,0,.04,1.14.576.576,0,0,0,.44.48,24.112,24.112,0,0,0-4.02.26l-.08.04A.814.814,0,0,0,169.74,12.2Zm9.58,11.36a.563.563,0,0,0-.2-.42,17.62,17.62,0,0,0-3.22-1.56.538.538,0,0,0-.54.54.527.527,0,0,0,.32.5,18.165,18.165,0,0,1,2.72,1.36.513.513,0,0,0,.36.14A.572.572,0,0,0,179.32,23.56Zm-3.02-9.08a61.63,61.63,0,0,0-6.38.2c0-.4.02-.8.04-1.2a.533.533,0,0,0,.24.06.34.34,0,0,0,.14-.02,27.056,27.056,0,0,1,4.44-.24c.5,0,1.02,0,1.52.04Zm-.02,1.12v.3c0,.3,0,.6-.02.9a6.44,6.44,0,0,0-1.54-.1,43.689,43.689,0,0,0-4.86.22c0-.38.02-.76.02-1.14a47.842,47.842,0,0,1,5.36-.2C175.58,15.58,175.94,15.58,176.28,15.6Zm-.08,2.2a7.434,7.434,0,0,1-.16,1.34c-.24-.02-.46-.02-.7-.02-1.8,0-3.64.1-5.44.28-.02-.46-.04-.9-.04-1.36a41.161,41.161,0,0,1,4.96-.22c.4,0,.8.02,1.2.02A.584.584,0,0,0,176.2,17.8ZM200.84,7.14c0-.8-1.42-.66-1.9-.66a20.241,20.241,0,0,0-2.46.1.577.577,0,0,0-.52-.42.57.57,0,0,0-.58.52,8.859,8.859,0,0,0-.06,1.26c-.02.88-.04,1.76-.04,2.64,0,.62,0,1.24.04,1.86a.565.565,0,0,0-.3.5.572.572,0,0,0,.56.56h.06c1.36,0,2.7-.16,4.06-.16-.02,1.7-.04,3.4-.1,5.1a33.413,33.413,0,0,1-.18,3.46c-.26-.16-.76-.58-1.02-.58a.555.555,0,0,0-.56.54.531.531,0,0,0,.22.44,5.131,5.131,0,0,0,1.76.98.541.541,0,0,0,.52-.36C200.9,21.74,200.84,8.6,200.84,7.14Zm-4.92,12.9a.552.552,0,0,0-.4-.52c.06-1.28.12-2.62.12-3.9a.569.569,0,0,0-.34-.54,6.4,6.4,0,0,0-1.86-.2,18.48,18.48,0,0,0-2.1.12.553.553,0,0,0-.52-.42.582.582,0,0,0-.58.48,23.3,23.3,0,0,0-.12,3.14,14.1,14.1,0,0,0,.06,2.06.539.539,0,0,0,.58.5c1.5,0,3-.16,4.5-.16C195.62,20.6,195.92,20.46,195.92,20.04Zm-5.22-7.28a.567.567,0,0,0-.34-.5c.1-1.64.22-3.38.22-5.02a.563.563,0,0,0-.5-.56,8.543,8.543,0,0,0-1.44-.04,11.083,11.083,0,0,0-2,.12.534.534,0,0,0-.5-.4.56.56,0,0,0-.6.52,9.931,9.931,0,0,0-.04,1.1l-.06,2.04c-.06,2.28-.1,4.56-.1,6.84a42.424,42.424,0,0,0,.26,5.82.577.577,0,0,0,.56.44.59.59,0,0,0,.56-.58c0-.04-.02-.08-.02-.12a11.53,11.53,0,0,1-.18-2.2c-.04-1.16-.04-2.34-.04-3.5,0-1.08,0-2.16.02-3.24,1.2-.12,2.44-.16,3.64-.16A.572.572,0,0,0,190.7,12.76ZM199.72,9h-.38c-.96,0-1.94-.02-2.92.04,0-.44.02-.88.04-1.32A17.861,17.861,0,0,1,199,7.58c.24,0,.48,0,.72.02Zm0,1.12v.72c0,.46,0,.92-.02,1.38-1.08,0-2.18.06-3.26.1-.04-.54-.04-1.1-.04-1.66v-.5q1.11-.06,2.22-.06C199,10.1,199.36,10.12,199.72,10.12ZM189.44,7.76c0,.48-.02.98-.04,1.46-.94.04-1.88.1-2.82.2,0-.5.02-1.02.04-1.52a.554.554,0,0,0,.18-.02,8.767,8.767,0,0,1,2.18-.12Zm-.1,2.58-.08,1.88c-.92.02-1.84.04-2.74.14,0-.6.02-1.2.02-1.8C187.46,10.44,188.4,10.38,189.34,10.34Zm5.16,5.7c-.06,1.16-.06,2.3-.1,3.46-1.04.02-2.1.06-3.14.12-.02-.42-.02-.82-.02-1.24,0-.76.02-1.5.04-2.26a15.643,15.643,0,0,1,2.16-.12A9.391,9.391,0,0,1,194.5,16.04Z" transform="translate(45 14740)" fill="#4a3a3d" stroke="#4a3a3d" stroke-width="0.5"/>
  </g>
</svg>
