<svg xmlns="http://www.w3.org/2000/svg" width="341.848" height="87.307" viewBox="0 0 341.848 87.307">
  <g id="グループ_170" data-name="グループ 170" transform="translate(-17.076 -19303.5)">
    <g id="グループ_93" data-name="グループ 93" transform="translate(18 19304)">
      <path id="パス_1" data-name="パス 1" d="M534.161,29.116v59.9h59.2L574.416,60.03,593.36,29.116Z" transform="translate(-253.36 -2.99)" fill="#ffc9ce" stroke="#947f6f" stroke-width="1"/>
      <path id="パス_2" data-name="パス 2" d="M534.232,153.646v15.261l33.586-15.261Z" transform="translate(-253.394 -82.877)" fill="#947f6f" stroke="#947f6f" stroke-width="1"/>
      <path id="パス_3" data-name="パス 3" d="M0,29.116,18.944,60.03,0,89.02H59.2v-59.9Z" transform="translate(0 -2.99)" fill="#ffc9ce" stroke="#947f6f" stroke-width="1"/>
      <path id="パス_4" data-name="パス 4" d="M75.818,153.646,110.4,168.907V153.646Z" transform="translate(-51.243 -82.877)" fill="#947f6f" stroke="#947f6f" stroke-width="1"/>
      <rect id="長方形_7" data-name="長方形 7" width="289.849" height="70.77" transform="translate(24.575 0)" fill="#ffc9ce" stroke="#947f6f" stroke-width="1"/>
    </g>
    <path id="パス_2313" data-name="パス 2313" d="M37.58,20.14a.622.622,0,0,0-.54-.6,20.924,20.924,0,0,0-2.98-.18,9.024,9.024,0,0,0-3.26.48c.18-2.14.22-4.32.22-6.46a33.58,33.58,0,0,0-.26-5,.6.6,0,0,0-.56-.4.589.589,0,0,0-.6.6.711.711,0,0,0,.04.2,31.6,31.6,0,0,1,.18,4.4c0,1.62-.04,3.22-.1,4.82a14.239,14.239,0,0,1-.26,2.78.554.554,0,0,0-.02.18.589.589,0,0,0,.6.6.658.658,0,0,0,.38-.12,4.652,4.652,0,0,1,.52-.34A6.917,6.917,0,0,1,34,20.58c.98,0,1.94.12,2.92.16h.06A.6.6,0,0,0,37.58,20.14Zm8.72-.52a.615.615,0,0,0-.6-.6c-1.02,0-2.02.02-3.04.04a30.97,30.97,0,0,0,.4-4.08c.1-1.76.16-3.52.2-5.28.78.02,1.56.1,2.34.14h.06a.589.589,0,0,0,.6-.6.622.622,0,0,0-.54-.6A17.454,17.454,0,0,0,43,8.5c-.76,0-4.38.08-4.38,1.34a.615.615,0,0,0,.6.6.579.579,0,0,0,.46-.2,5.662,5.662,0,0,1,2.38-.52c-.02,2.04-.12,4.1-.26,6.14a19.6,19.6,0,0,1-.36,3.26c-.62.04-2.94.2-2.94,1.16a.578.578,0,0,0,.6.6.667.667,0,0,0,.42-.18,6.238,6.238,0,0,1,2.02-.38c1.38-.1,2.78-.1,4.16-.1A.615.615,0,0,0,46.3,19.62ZM59.24,8.98a.6.6,0,0,0-.58-.62.626.626,0,0,0-.58.42c-.3.68-.66,7.26-.7,8.36A15.858,15.858,0,0,1,55.34,15c-1.02-1.2-1.98-2.46-2.92-3.72a24.3,24.3,0,0,0-1.96-2.44.577.577,0,0,0-.4-.14.594.594,0,0,0-.58.44,4.86,4.86,0,0,0-.16.94c-.22,1.52-.4,3.06-.54,4.6-.12,1.34-.24,2.68-.24,4.02,0,.58-.08,2.1.88,2.1a.615.615,0,0,0,.6-.6.639.639,0,0,0-.22-.48,3.877,3.877,0,0,1-.06-.96c0-1.2.1-2.38.2-3.56.12-1.52.28-3.04.5-4.54,1.54,1.96,4.88,6.82,6.9,7.88a7.285,7.285,0,0,0,.04,1.32.592.592,0,0,0,1.18-.08c0-.32-.04-.64-.04-.98,0-2.06.16-4.12.32-6.18.06-.76.12-1.52.22-2.28a7.961,7.961,0,0,1,.16-1.18A.554.554,0,0,0,59.24,8.98Zm12.12-.2a.623.623,0,0,0-.62-.62.584.584,0,0,0-.18.04A18.909,18.909,0,0,1,67,8.44c-.94.02-3.74-.02-4.52.38a.615.615,0,0,0-.36.56.589.589,0,0,0,.6.6,6.3,6.3,0,0,0,.72-.18c-.12,1.42-.2,2.86-.3,4.28l-.22,3.66c-.04.86-.1,1.72-.1,2.56a.614.614,0,0,0,.56.68c.7.06,1.44.04,2.14.04a8.952,8.952,0,0,0,4.78-.96.577.577,0,0,0,.32-.52.623.623,0,0,0-.62-.62.742.742,0,0,0-.28.08c-.28.14-.54.28-.82.4a9.864,9.864,0,0,1-3.42.42c-.5,0-.98,0-1.46-.02.08-1.54.16-3.06.26-4.6,1-.08,2.02-.06,3-.06h2.66a.6.6,0,0,0,0-1.2H68.12c-1.24,0-2.5-.02-3.76.04.1-1.44.16-2.88.3-4.3,1.24-.04,5.42.04,6.3-.34A.6.6,0,0,0,71.36,8.78Zm18.7.4c0-.84-1.26-.74-1.78-.74-.96,0-1.92.06-2.86.12-1.98.12-3.96.3-5.92.5l-2.14.24a7.187,7.187,0,0,0-.92.1.584.584,0,0,0-.52.58.562.562,0,0,0,.58.6h.08c2.52-.14,5.02-.54,7.56-.72,1.4-.1,2.82-.22,4.22-.2h.36a10.923,10.923,0,0,1-3.16,4.08.606.606,0,0,0,.28,1.14.616.616,0,0,0,.26-.06C87.36,14.2,90.06,10.6,90.06,9.18Zm-6.12,3.64a.615.615,0,0,0-.6-.6.589.589,0,0,0-.6.6,14.045,14.045,0,0,1-.3,2.42c-.24,1.36-.52,2.72-.82,4.06a9.149,9.149,0,0,0-.28,1.44c0,.22.22.56.48.56.36,0,.62-.1.72-.48.12-.42.18-.86.26-1.28.28-1.34.56-2.66.8-4A15.564,15.564,0,0,0,83.94,12.82Zm17.96.36V13.1c-.24-1.26-2.44-2.66-3.5-3.28a5.374,5.374,0,0,0-1.06-.56.592.592,0,0,0-.2-.04.6.6,0,0,0-.18,1.18,12.09,12.09,0,0,1,2.06,1.26c.32.24,1.6,1.18,1.7,1.62a.567.567,0,0,0,.58.5A.578.578,0,0,0,101.9,13.18Zm8.68-.92a.585.585,0,0,0-.6-.58.561.561,0,0,0-.38.14c-1.76,1.36-3.58,2.6-5.44,3.84-1.74,1.14-3.48,2.26-5.26,3.32-.44.26-.88.52-1.32.74l-.44.22a.6.6,0,0,0-.36.56.63.63,0,0,0,.6.6c.9,0,11.86-7.28,13-8.38A.553.553,0,0,0,110.58,12.26Zm18.64-.88c0-.8-1.36-.68-1.88-.68-2.72,0-5.5.28-8.2.54a21.893,21.893,0,0,0,.62-2.78.615.615,0,0,0-.6-.6.585.585,0,0,0-.6.58,22.633,22.633,0,0,1-.52,2.24c-.2.84-.42,1.66-.6,2.5a6.673,6.673,0,0,0-.2,1.24c0,.42.2.74.64.74a.585.585,0,0,0,.6-.58.71.71,0,0,0-.04-.2,12.343,12.343,0,0,1,.4-1.9c1.7-.2,3.4-.32,5.1-.44a40.362,40.362,0,0,1-1.68,5.28,25.344,25.344,0,0,0-1.16,3.7.609.609,0,0,0,.56.6.6.6,0,0,0,.64-.54,31.338,31.338,0,0,1,1.1-3.36c.38-1.04.74-2.1,1.08-3.16a14.477,14.477,0,0,0,.7-2.58c.74-.04,1.5-.08,2.24-.08a4.544,4.544,0,0,1,1.04.06.44.44,0,0,0,.16.02A.6.6,0,0,0,129.22,11.38Zm20.96,3.66a.6.6,0,0,0-.52-.6,22.8,22.8,0,0,0-3.32-.16c-2.86,0-5.7.22-8.54.44a3.54,3.54,0,0,1-.46.02c-1.22,0-.94-.52-1.5-.52a.619.619,0,0,0-.6.62.459.459,0,0,0,.08.28c.48.82,1.76.8,2.56.8h.04c2.72,0,5.42-.46,8.16-.46,1.14,0,2.28.1,3.42.18h.08A.6.6,0,0,0,150.18,15.04Zm17.38-.08a.615.615,0,0,0-.36-.56,10.876,10.876,0,0,0-1.66-.6c-1.22-.42-2.46-.82-3.7-1.16a44.194,44.194,0,0,1,.6-5.64c0-.04.02-.08.02-.12a.606.606,0,0,0-.6-.62.621.621,0,0,0-.6.5,18.883,18.883,0,0,0-.4,2.8,58.086,58.086,0,0,0-.28,6.18c0,1.16.02,6,.66,6.68a.645.645,0,0,0,.52.24.589.589,0,0,0,.6-.6.667.667,0,0,0-.18-.42,33.111,33.111,0,0,1-.4-6.02c0-.58,0-1.16.02-1.74,1.26.36,2.52.76,3.78,1.18l1.14.44a1,1,0,0,0,.24.04A.6.6,0,0,0,167.56,14.96Zm16.92,6.44a.589.589,0,0,0-.26-.48l-.4-.32a19.908,19.908,0,0,1-1.54-1.64,8.386,8.386,0,0,0,1.72-5.1c0-2.8-1.28-6.36-4.62-6.36-3.5,0-5.7,4.22-5.7,7.3a9.349,9.349,0,0,0,.26,2.22c.3,1.3,1.2,3.26,2.8,3.26a4.961,4.961,0,0,0,1.94-.78.591.591,0,0,0-.34-1.08c-.36,0-1.16.66-1.6.66a.988.988,0,0,1-.64-.32c-.94-.88-1.24-2.74-1.24-3.96,0-2.42,1.72-6.1,4.52-6.1,2.56,0,3.42,3.08,3.42,5.16a7.278,7.278,0,0,1-1.3,4.18c-.72-.88-1.42-1.78-2.06-2.74-.18-.3-.34-.62-.52-.9a.615.615,0,0,0-.56-.36.6.6,0,0,0-.58.6c0,.66,2.42,3.68,2.92,4.28a2.967,2.967,0,0,1-1.82.84.615.615,0,0,0-.6.6.6.6,0,0,0,.6.58,4.049,4.049,0,0,0,2.58-1.12,13.753,13.753,0,0,0,2.1,2.08.674.674,0,0,0,.34.1A.6.6,0,0,0,184.48,21.4Zm12.34-2.2a.591.591,0,0,0-.56-.64c-1.04-.18-4.38-2.3-5.46-2.98,2-.76,4.8-3.16,4.8-5.46s-3.56-2.9-5.32-2.9c-.66,0-3.16.16-3.16,1.14a.6.6,0,0,0,.58.62c.04,0,.08-.02.12-.02a.631.631,0,0,0-.14.38c0,1.44-.12,2.9-.22,4.34-.12,1.98-.28,3.96-.28,5.94,0,.64-.12,2.48.9,2.48a.585.585,0,0,0,.6-.58.639.639,0,0,0-.22-.48,5.14,5.14,0,0,1-.1-1.36c0-1.38.1-2.76.18-4.14a.75.75,0,0,0,.32.34c.2.12.42.2.62.32.54.3,1.06.64,1.6.96.9.54,4.12,2.6,5.1,2.6A.6.6,0,0,0,196.82,19.2Zm-2.42-9.08c0,2.02-3.4,4.6-5.3,4.6a.577.577,0,0,0-.52.32c.08-1.84.3-3.7.3-5.54,0-.4-.12-.76-.58-.78a5.1,5.1,0,0,1,1.9-.28C191.16,8.44,194.4,8.76,194.4,10.12Zm19.38,7.68a.6.6,0,0,0-.62-.58c-.24,0-.46.02-.7.04a34.915,34.915,0,0,0,1.22-5.14c0-.04.02-.08.02-.12a.6.6,0,0,0-.56-.58,8.041,8.041,0,0,0-1.2-.06c-.88-.04-1.74-.06-2.6-.06-1.06,0-5.26.04-6.04.62a.6.6,0,0,0,.32,1.1.664.664,0,0,0,.32-.1c.78-.4,4.72-.42,5.7-.42.92,0,1.84.02,2.74.06a26.981,26.981,0,0,1-1.24,4.74c-1.04.06-8.08.38-8.58.66a.615.615,0,0,0-.36.56.6.6,0,0,0,.6.58,1,1,0,0,0,.24-.04,20.8,20.8,0,0,1,2.78-.26c1.66-.1,3.32-.18,4.98-.26.8-.04,1.62-.04,2.4-.12A.589.589,0,0,0,213.78,17.8Zm21.56-2.76a.6.6,0,0,0-.52-.6,22.8,22.8,0,0,0-3.32-.16c-2.86,0-5.7.22-8.54.44a3.54,3.54,0,0,1-.46.02c-1.22,0-.94-.52-1.5-.52a.619.619,0,0,0-.6.62.459.459,0,0,0,.08.28c.48.82,1.76.8,2.56.8h.04c2.72,0,5.42-.46,8.16-.46,1.14,0,2.28.1,3.42.18h.08A.6.6,0,0,0,235.34,15.04Zm18.4-6.52a.62.62,0,0,0-.18-.44,5.989,5.989,0,0,1-.58-1.06.612.612,0,0,0-.56-.38.606.606,0,0,0-.6.62.851.851,0,0,0,.04.22c.32.44.64,1.62,1.28,1.62A.573.573,0,0,0,253.74,8.52Zm-1.88.58a.61.61,0,0,0-.54-.62c-.46-.06-1.16-.56-1.42-.56a.619.619,0,0,0-.6.62.589.589,0,0,0,.26.48,4.384,4.384,0,0,0,1.66.66A.6.6,0,0,0,251.86,9.1Zm.24,5.96a.585.585,0,0,0-.32-.54,5.812,5.812,0,0,0-1.02-.44c-1.36-.52-2.76-1-4.16-1.42a45.208,45.208,0,0,1,.6-5.68c0-.04.02-.08.02-.12a.6.6,0,0,0-1.2-.1,22.255,22.255,0,0,0-.4,2.82c-.2,2.06-.28,4.14-.28,6.2,0,1.14.04,5.96.66,6.64a.645.645,0,0,0,.52.24.589.589,0,0,0,.6-.6.667.667,0,0,0-.18-.42,32.89,32.89,0,0,1-.4-6c0-.58,0-1.16.02-1.74,1,.32,2,.66,2.98,1.02a12.206,12.206,0,0,1,1.68.66.459.459,0,0,0,.28.08A.6.6,0,0,0,252.1,15.06Z" transform="translate(45 19325)" fill="#4a3a3d" stroke="#4a3a3d" stroke-width="0.5"/>
  </g>
</svg>
