<svg xmlns="http://www.w3.org/2000/svg" width="376" height="76.466" viewBox="0 0 376 76.466">
  <g id="グループ_159" data-name="グループ 159" transform="translate(0 -7069)">
    <g id="グループ_122" data-name="グループ 122" transform="translate(0 7069)">
      <g id="グループ_123" data-name="グループ 123" transform="translate(0 0)">
        <path id="パス_2174" data-name="パス 2174" d="M5.329,57.936C3.415,57.9-1.1,58.181.246,55.109c.445-.717,1.488-.559,2.2-.545a69.238,69.238,0,0,0,9.254-.178c5.507-.323,10.83-1.768,16.16-3.081,4.73-1.016,9.551-1.537,14.241-2.765,7.963-1.486,14.591-6.314,22.017-9.226C70,37,76.36,35.632,81.438,31.672c5.035-3.626,8.887-8.613,13.871-12.29,5.85-3.826,11.971-7.328,16.435-12.861A25.992,25.992,0,0,0,115.426.569a.855.855,0,0,1,1.336-.375C118.4,2.079,113.539,7.4,112.51,9.3c-4.864,8.14-13.2,12.489-20.479,18.089-4.573,4.14-10.077,6.9-15.335,10.031-6.976,4.15-13.823,8.676-21.642,11.1C42.387,52.618,41.2,55.391,27,54.7c-6.487.693-12.652,3.376-19.186,3.376a22.382,22.382,0,0,1-2.488-.136" transform="translate(0 0)" fill="#b4a39a"/>
        <path id="パス_2175" data-name="パス 2175" d="M12.009,47.779c-1.554-2.209-3.1-4.415-4.87-6.465a44.379,44.379,0,0,0-3.79-4.252c-.075-.318-.151-.633-.239-.946l.051,0a22.359,22.359,0,0,0,2.488.136c6.535,0,12.7-2.685,19.186-3.378q.591.028,1.151.051c-.066.166-.126.331-.18.487-.678,1.559-1.477,3.067-2.214,4.6-2.3,5.171-5.056,10.157-6.963,15.5-1.4-2.023-3.087-3.816-4.619-5.733" transform="translate(2.171 22.954)" fill="#f6cc39"/>
        <path id="パス_2176" data-name="パス 2176" d="M32.143,47.08a30.957,30.957,0,0,0-4.032-5.207,64,64,0,0,0-5.745-4.4c-.939-.684-1.888-1.364-2.863-2,8.764-.331,11.359-2.812,21.844-6.205a24.094,24.094,0,0,0-.253,2.546Q39.594,37.6,38.579,43.5a34.138,34.138,0,0,1-2.32,8.158c-1.413-1.489-2.851-2.958-4.116-4.577" transform="translate(13.617 20.43)" fill="#ff7fb2"/>
        <path id="パス_2177" data-name="パス 2177" d="M46.761,40.578c-1.724-1.228-3.148-2.824-4.9-4.013-2.014-1.308-4.174-2.374-6.238-3.6,5.652-2.5,10.889-5.884,16.2-9.045,1.685-1.005,3.393-1.97,5.09-2.953a11.467,11.467,0,0,0-.5,2.337,51.094,51.094,0,0,1-.394,5.7,53.362,53.362,0,0,0-.627,17.038c-2.712-2.075-5.881-3.435-8.63-5.46" transform="translate(24.871 14.639)" fill="#0accc8"/>
        <path id="パス_2178" data-name="パス 2178" d="M66.462,26.174c.093,3.439.491,6.864.627,10.3-2.843-2.067-5.886-3.863-8.557-6.163-.878-.735-1.719-1.53-2.663-2.182A24.083,24.083,0,0,0,49.8,25.437h0a1.582,1.582,0,0,0-.265-.256.257.257,0,0,0-.059-.075,50.978,50.978,0,0,0,8.021-5.764c2.8-2.152,5.752-4.12,8.6-6.188.005.2.008.385,0,.567.056,1.338.182,2.495.25,3.857.187,2.861.041,5.731.114,8.6" transform="translate(34.541 9.184)" fill="#f6cc39"/>
        <path id="パス_2179" data-name="パス 2179" d="M78.6,17.356a25.639,25.639,0,0,1,2.615,6.868,62.13,62.13,0,0,0-6.351-2.544,39.85,39.85,0,0,0-5.076-1.758c-2.5-.729-5.149-1.041-7.516-2.181-.307-.166-.611-.341-.909-.528a35.05,35.05,0,0,0,8.3-9.172c.518-.961,2.011-2.787,3.155-4.607a33.778,33.778,0,0,0,1.958,4.643,42.454,42.454,0,0,0,1.982,5.1c.672,1.367,1.175,2.809,1.844,4.176" transform="translate(42.847 2.398)" fill="#ff7fb2"/>
      </g>
    </g>
    <g id="グループ_124" data-name="グループ 124" transform="translate(251.935 7069)">
      <g id="グループ_123-2" data-name="グループ 123" transform="translate(0 0)">
        <path id="パス_2174-2" data-name="パス 2174" d="M111.769,57.936c1.914-.034,6.428.245,5.083-2.828-.445-.717-1.488-.559-2.2-.545a69.238,69.238,0,0,1-9.254-.178c-5.507-.323-10.83-1.768-16.16-3.081-4.73-1.016-9.551-1.537-14.241-2.765C67.03,47.054,60.4,42.226,52.975,39.314,47.1,37,40.738,35.632,35.66,31.672c-5.035-3.626-8.887-8.613-13.871-12.29C15.939,15.556,9.818,12.054,5.354,6.521A25.992,25.992,0,0,1,1.672.569.855.855,0,0,0,.336.194C-1.307,2.079,3.559,7.4,4.588,9.3c4.864,8.14,13.2,12.489,20.479,18.089,4.573,4.14,10.077,6.9,15.335,10.031,6.976,4.15,13.823,8.676,21.642,11.1C74.711,52.618,75.9,55.391,90.095,54.7c6.487.693,12.652,3.376,19.186,3.376a22.382,22.382,0,0,0,2.488-.136" transform="translate(6.967 0)" fill="#b4a39a"/>
        <path id="パス_2175-2" data-name="パス 2175" d="M17.085,47.779c1.554-2.209,3.1-4.415,4.87-6.465a44.379,44.379,0,0,1,3.79-4.252c.075-.318.151-.633.239-.946l-.051,0a22.359,22.359,0,0,1-2.488.136c-6.535,0-12.7-2.685-19.186-3.378q-.591.028-1.151.051c.066.166.126.331.18.487.678,1.559,1.477,3.067,2.214,4.6,2.3,5.171,5.056,10.157,6.963,15.5,1.4-2.023,3.087-3.816,4.619-5.733" transform="translate(92.799 22.954)" fill="#f6cc39"/>
        <path id="パス_2176-2" data-name="パス 2176" d="M28.707,47.08a30.957,30.957,0,0,1,4.032-5.207,64,64,0,0,1,5.745-4.4c.939-.684,1.888-1.364,2.863-2-8.764-.331-11.359-2.812-21.844-6.205a24.093,24.093,0,0,1,.253,2.546q1.5,5.793,2.515,11.692a34.138,34.138,0,0,0,2.32,8.158C26,50.168,27.442,48.7,28.707,47.08" transform="translate(49.597 20.431)" fill="#ff7fb2"/>
        <path id="パス_2177-2" data-name="パス 2177" d="M45.775,40.578c1.724-1.228,3.148-2.824,4.9-4.013,2.014-1.308,4.174-2.374,6.238-3.6-5.652-2.5-10.889-5.884-16.2-9.045-1.685-1.005-3.393-1.97-5.09-2.953a11.467,11.467,0,0,1,.5,2.337,51.094,51.094,0,0,0,.394,5.7,53.362,53.362,0,0,1,.627,17.038c2.712-2.075,5.881-3.435,8.63-5.46" transform="translate(6.658 14.64)" fill="#0accc8"/>
        <path id="パス_2178-2" data-name="パス 2178" d="M50.1,26.174c-.093,3.439-.491,6.864-.627,10.3,2.843-2.067,5.886-3.863,8.557-6.163.878-.735,1.719-1.53,2.663-2.182a24.083,24.083,0,0,1,6.073-2.692h0a1.582,1.582,0,0,1,.265-.256.257.257,0,0,1,.059-.075,50.978,50.978,0,0,1-8.021-5.764c-2.8-2.152-5.752-4.12-8.6-6.188-.005.2-.008.385,0,.567-.056,1.338-.182,2.495-.25,3.857-.187,2.861-.041,5.731-.114,8.6" transform="translate(-27.035 9.185)" fill="#f6cc39"/>
        <path id="パス_2179-2" data-name="パス 2179" d="M63.981,17.356a25.639,25.639,0,0,0-2.615,6.868,62.13,62.13,0,0,1,6.351-2.544,39.85,39.85,0,0,1,5.076-1.758c2.5-.729,5.149-1.041,7.516-2.181.307-.166.611-.341.909-.528a35.05,35.05,0,0,1-8.3-9.172C72.4,7.08,70.91,5.254,69.765,3.434a33.778,33.778,0,0,1-1.958,4.643,42.454,42.454,0,0,1-1.982,5.1c-.672,1.367-1.175,2.809-1.844,4.176" transform="translate(-61.366 2.398)" fill="#ff7fb2"/>
      </g>
    </g>
  </g>
</svg>
