<svg xmlns="http://www.w3.org/2000/svg" width="35.652" height="41.938" viewBox="0 0 35.652 41.938">
  <path id="パス_2293" data-name="パス 2293" d="M5.36-12.576a.492.492,0,0,0-.48-.48,4.275,4.275,0,0,0-2.448,1.3A4.968,4.968,0,0,0,.88-8.256c0,2.128,1.712,2.912,3.376,3.632-.48.944-2.7,4.3-2.7,4.9a.485.485,0,0,0,.48.5h.032c.32-.064.368-.16.448-.448A19.529,19.529,0,0,1,3.84-2.016,12.656,12.656,0,0,0,5.3-4.768c0-.528-.64-.736-1.04-.912-1.168-.5-2.416-1.1-2.416-2.576a4.2,4.2,0,0,1,2.128-3.488A2.129,2.129,0,0,1,4.88-12.1.492.492,0,0,0,5.36-12.576Zm12.448,2.448a.809.809,0,0,0-.176-.528c-.432-.56-1.872-.528-2.5-.528-.544-.016-1.072-.016-1.616-.016-1.072,0-7.056.032-7.056,1.52a.5.5,0,0,0,.5.5.492.492,0,0,0,.416-.256c.416-.576,4.24-.768,4.9-.784v.464c0,2.352-.32,4.7-.32,7.056,0,.512-.032,2.128.784,2.128a.471.471,0,0,0,.48-.48.456.456,0,0,0-.192-.384A3.838,3.838,0,0,1,12.9-2.656c0-2.368.336-4.72.336-7.088v-.5h.288a17.219,17.219,0,0,1,3.328.176.493.493,0,0,0,.48.56C17.68-9.5,17.808-9.824,17.808-10.128Zm8.768-.448a.5.5,0,0,0-.5-.5.467.467,0,0,0-.144.032,15.128,15.128,0,0,1-2.848.192,14.047,14.047,0,0,0-3.616.3.492.492,0,0,0-.288.448.471.471,0,0,0,.48.48,5.039,5.039,0,0,0,.576-.144c-.1,1.136-.16,2.288-.24,3.424l-.176,2.928c-.032.688-.08,1.376-.08,2.048a.491.491,0,0,0,.448.544c.56.048,1.152.032,1.712.032a7.161,7.161,0,0,0,3.824-.768.461.461,0,0,0,.256-.416.5.5,0,0,0-.5-.5.593.593,0,0,0-.224.064c-.224.112-.432.224-.656.32a7.891,7.891,0,0,1-2.736.336c-.4,0-.784,0-1.168-.016.064-1.232.128-2.448.208-3.68.8-.064,1.616-.048,2.4-.048H25.44a.492.492,0,0,0,.48-.48.492.492,0,0,0-.48-.48H23.984c-.992,0-2-.016-3.008.032.08-1.152.128-2.3.24-3.44.992-.032,4.336.032,5.04-.272A.481.481,0,0,0,26.576-10.576Zm9.456,2.512c0-2.192-2.432-3.36-4.352-3.36a3.24,3.24,0,0,0-1.1.16.779.779,0,0,0,.016-.192.488.488,0,0,0-.5-.528.482.482,0,0,0-.464.5c0,1.456-.192,2.928-.32,4.368-.16,1.776-.384,3.728-.384,5.5,0,.48-.048,1.568.672,1.568a.492.492,0,0,0,.48-.48.485.485,0,0,0-.16-.352,3.106,3.106,0,0,1-.032-.672c0-.752.048-1.52.112-2.288a2.616,2.616,0,0,0,.352.032C32.336-3.808,36.032-5.872,36.032-8.064Zm-.96-.016c0,1.632-3.312,3.312-4.752,3.312a.7.7,0,0,1-.256-.032c.144-1.776.336-3.536.464-5.312.192-.3.88-.368,1.2-.368C33.088-10.48,35.072-9.664,35.072-8.08ZM16.632,14.061c0-2.673-1.98-6.105-4.95-6.105-1.551,0-2.739,1.254-3.531,2.442-4.092.693-5.643,8.877-5.643,12.243,0,2.244.759,5.28,3.531,5.28,4.29,0,7.953-5.016,9.405-8.58A13.84,13.84,0,0,0,16.632,14.061Zm-1.98,0a14.47,14.47,0,0,1-2.937,7.92c-1.221,1.65-3.432,3.96-5.676,3.96-1.419,0-1.551-2.343-1.551-3.3A18.491,18.491,0,0,1,6.3,14.655a7,7,0,0,0-.2,1.452.972.972,0,0,0,.99.99,1.015,1.015,0,0,0,.99-.99c0-1.452,1.914-6.171,3.6-6.171C13.5,9.936,14.652,12.51,14.652,14.061Zm20.1,6.4c0-2.442-2.409-3.5-4.422-4.026,1.353-.858,3.96-3.036,3.96-4.818,0-2.574-2.97-3.894-5.181-3.894-1.683,0-4.554.66-4.554,2.838,0,.66.33,1.452,1.122,1.452a.972.972,0,0,0,.99-.99c0-.2-.1-.363-.1-.528v-.033c.4-.561,1.914-.759,2.541-.759,1.056,0,3.2.561,3.2,1.914a2.107,2.107,0,0,1-.495.924,11.229,11.229,0,0,1-5.874,3.7,11.824,11.824,0,0,0-1.485.3.982.982,0,0,0-.759.924.993.993,0,0,0,.99.99,8.82,8.82,0,0,0,1.584-.264,7.173,7.173,0,0,1,1.188-.066c1.32,0,5.313.495,5.313,2.343A4.67,4.67,0,0,1,31.053,23.4a11.342,11.342,0,0,1-7.062,3.036c-.693,0-1.386-.1-1.518.858v.1c-.033.891.792.99,1.485.99a13.327,13.327,0,0,0,8.448-3.531A6.335,6.335,0,0,0,34.749,20.463Z" transform="translate(-0.63 13.306)" fill="#0accc8" stroke="#0accc8" stroke-width="0.5"/>
</svg>
