<svg xmlns="http://www.w3.org/2000/svg" width="288" height="54" viewBox="0 0 288 54">
  <g id="グループ_60" data-name="グループ 60" transform="translate(-1524 -5469)">
    <path id="合体_2" data-name="合体 2" d="M-1002,35h15l-7.5,13Zm-137,0V-6h288V35Z" transform="translate(2663 5475)" fill="#fa6900"/>
    <path id="パス_410" data-name="パス 410" d="M5.544-6.516c1.152,0,1.908.738,1.908,2.3,0,1.638-.828,2.466-1.818,2.466-1.116,0-2.016-.936-2.268-3.366A2.6,2.6,0,0,1,5.544-6.516ZM5.688.252A4.187,4.187,0,0,0,9.864-4.212c0-2.844-1.584-4.176-3.816-4.176a3.835,3.835,0,0,0-2.736,1.44c.108-3.348,1.368-4.5,2.9-4.5a2.892,2.892,0,0,1,2.052.972l1.4-1.584a4.9,4.9,0,0,0-3.618-1.512C3.366-13.572.9-11.448.9-6.48.9-1.782,3.15.252,5.688.252ZM18.864-10.764l-2.52-.522a7.321,7.321,0,0,1-.252,1.314,8.176,8.176,0,0,1-1.008,2.3,11.894,11.894,0,0,1-2.736,3.06l2.106,1.224A16.521,16.521,0,0,0,16.938-6.5h3.15a8.037,8.037,0,0,1-2.97,5.814A8.146,8.146,0,0,1,15.5.27L17.73,1.764C20.61,0,22.05-2.682,22.356-6.5h2.2c.36,0,1.044,0,1.6.054v-2.2a12.827,12.827,0,0,1-1.6.09h-6.57c.18-.414.342-.828.468-1.152C18.558-10.026,18.7-10.35,18.864-10.764ZM34.092-5.886c.072-.756.108-1.512.126-2.2h7.218v2.2Zm7.344-6.426v2.2H34.218v-2.2ZM43.7-14.4H32v5.922c0,2.736-.252,6.174-2.97,8.5A8.454,8.454,0,0,1,30.69,1.566a9.683,9.683,0,0,0,3.042-5.382h7.7v2.61c0,.378-.144.522-.576.522-.4,0-1.908.018-3.168-.054a9.189,9.189,0,0,1,.9,2.25A10.889,10.889,0,0,0,42.57,1.1C43.4.738,43.7.126,43.7-1.17Zm4.14,2.052.234,2.466c2.088-.45,5.76-.846,7.452-1.026a7.2,7.2,0,0,0-2.682,5.562c0,3.906,3.564,5.922,7.344,6.174l.846-2.466c-3.06-.162-5.832-1.224-5.832-4.194a5.47,5.47,0,0,1,3.816-5.04,18.7,18.7,0,0,1,3.474-.252l-.018-2.3c-1.278.054-3.24.162-5.094.324-3.294.27-6.264.54-7.776.666C49.266-12.4,48.564-12.366,47.844-12.348ZM59.922-9.36,58.59-8.8a13.888,13.888,0,0,1,1.4,2.5l1.368-.612A22.342,22.342,0,0,0,59.922-9.36Zm2.016-.828-1.314.612A15.835,15.835,0,0,1,62.1-7.146l1.35-.648A26.925,26.925,0,0,0,61.938-10.188ZM67.5,0h3.258l1.458-6.588c.216-1.044.4-2.07.576-3.1h.072c.162,1.026.36,2.052.576,3.1L74.934,0h3.312l2.466-13.338h-2.52L77.13-6.822c-.2,1.386-.4,2.808-.594,4.248h-.09c-.288-1.44-.558-2.88-.846-4.248l-1.53-6.516H71.784L70.236-6.822c-.288,1.386-.576,2.808-.846,4.248h-.072c-.2-1.44-.414-2.844-.612-4.248l-1.062-6.516h-2.7ZM86.886.252A6.346,6.346,0,0,0,90.4-.864l-.9-1.62a4.155,4.155,0,0,1-2.268.7,2.649,2.649,0,0,1-2.79-2.52h6.21a4.974,4.974,0,0,0,.126-1.224c0-2.772-1.44-4.806-4.212-4.806-2.394,0-4.7,2.034-4.7,5.292C81.864-1.71,84.06.252,86.886.252ZM84.4-6.066A2.269,2.269,0,0,1,86.6-8.28c1.3,0,1.908.864,1.908,2.214ZM98.01.252c2.214,0,4.284-2,4.284-5.472,0-3.078-1.494-5.112-3.978-5.112a4.3,4.3,0,0,0-2.79,1.206l.072-1.62v-3.618H92.952V0h2.07l.234-1.062h.072A3.851,3.851,0,0,0,98.01.252Zm-.594-2.178A2.746,2.746,0,0,1,95.6-2.682V-7.11a2.776,2.776,0,0,1,1.98-1.044c1.386,0,2,1.062,2,2.988C99.576-2.97,98.64-1.926,97.416-1.926Zm9.72-11.88v2.322c.522-.036,1.3-.054,1.872-.054H115.9c.648,0,1.494.018,1.98.054v-2.322a16.971,16.971,0,0,1-1.944.09h-6.93A15.173,15.173,0,0,1,107.136-13.806Zm12.258,5.22-1.6-.99a3.8,3.8,0,0,1-1.314.18h-8.91c-.558,0-1.332-.054-2.088-.108v2.34c.756-.072,1.656-.09,2.088-.09h8.694a7.809,7.809,0,0,1-1.854,3.114A12.141,12.141,0,0,1,108.18-.99l1.782,2.034a13.479,13.479,0,0,0,6.426-3.888,12.936,12.936,0,0,0,2.664-4.986A6.67,6.67,0,0,1,119.394-8.586ZM122.238-7l1.134,2.268a36.067,36.067,0,0,0,6.354-2.592v5.76A20.161,20.161,0,0,1,129.6.792h2.844a12.374,12.374,0,0,1-.162-2.358V-8.838a33.017,33.017,0,0,0,4.842-3.906L135.18-14.6a23.076,23.076,0,0,1-5.076,4.374A28.944,28.944,0,0,1,122.238-7Zm26.406-7.254-2.61-.81a7.45,7.45,0,0,1-.828,1.872A16.713,16.713,0,0,1,139.482-7.2l1.944,1.494a21.649,21.649,0,0,0,4.752-4.662h5.148a12.776,12.776,0,0,1-1.98,3.978c-1.134-.756-2.268-1.494-3.222-2.034l-1.6,1.638c.918.576,2.106,1.386,3.276,2.25A15.291,15.291,0,0,1,141.192-.63l2.088,1.818a16.937,16.937,0,0,0,6.444-4.266c.738.594,1.4,1.152,1.89,1.6l1.71-2.034c-.522-.432-1.224-.954-2-1.512a20.611,20.611,0,0,0,2.664-5.184,8.468,8.468,0,0,1,.594-1.278l-1.836-1.134a5.715,5.715,0,0,1-1.566.2h-3.654A19.389,19.389,0,0,1,148.644-14.256Zm9.414,5.922v2.826c.666-.054,1.872-.09,2.9-.09h9.666c.756,0,1.674.072,2.106.09V-8.334c-.468.036-1.26.108-2.106.108h-9.666C160.02-8.226,158.706-8.28,158.058-8.334Zm24.534-5.76-2.682-.27a18.318,18.318,0,0,1-.378,3.8c-.918.09-1.764.144-2.322.162a17.187,17.187,0,0,1-1.926,0l.216,2.448c.558-.09,1.494-.216,2.016-.306.324-.036.9-.108,1.548-.18A27.544,27.544,0,0,1,175.41.018l2.34.936a37.935,37.935,0,0,0,3.672-9.648c.522-.036.972-.072,1.26-.072,1.116,0,1.746.2,1.746,1.638a14.285,14.285,0,0,1-.738,4.986,1.32,1.32,0,0,1-1.35.774,10.4,10.4,0,0,1-2.2-.378L180.522.63a11.829,11.829,0,0,0,2.16.252,2.861,2.861,0,0,0,2.952-1.656c.774-1.566,1.026-4.482,1.026-6.606,0-2.592-1.35-3.438-3.258-3.438-.378,0-.9.036-1.512.072.126-.648.27-1.314.378-1.854C182.358-13.05,182.484-13.626,182.592-14.094Zm8.01-1.494-1.44.576a20.36,20.36,0,0,1,1.458,2.484l1.422-.612A23.946,23.946,0,0,0,190.6-15.588Zm-2.142.81-1.422.594a19.9,19.9,0,0,1,1.224,2.124l-1.62.7a20.243,20.243,0,0,1,3.024,6.75l2.286-1.044a32.663,32.663,0,0,0-2.934-6.282l.882-.378C189.558-12.978,188.91-14.112,188.46-14.778ZM202.518-3.654v-3.96a20.061,20.061,0,0,0,2.862,3.96Zm-5.076,0a20.974,20.974,0,0,0,2.826-3.924v3.924Zm11.9-5.94v-2.16h-6.822v-3.474h-2.25v3.474H193.5v2.16h5.49a15.99,15.99,0,0,1-6.192,6.75,10.583,10.583,0,0,1,1.566,1.782,15.286,15.286,0,0,0,2.808-2.3v1.89h3.1V1.566h2.25V-1.476h2.988V-3.528a14.726,14.726,0,0,0,2.934,2.412A9.1,9.1,0,0,1,210.1-3.06a15.724,15.724,0,0,1-6.282-6.534Zm12.276-.972c-.2.486-.414,1.008-.63,1.44H217.62l.306-.054a9.671,9.671,0,0,0-.612-1.386Zm5.814,8.028V-4.3h-7v-.792h5.4V-6.642h-5.4v-.81h6.246V-9.126h-3.528c.27-.432.558-.918.846-1.44h3.384v-1.746h-2.34c.414-.63.9-1.44,1.4-2.268l-2.25-.54a14.5,14.5,0,0,1-1.134,2.61l.648.2h-1.6v-2.934h-2.016v2.934h-1.332v-2.934h-2v2.934h-1.638l.882-.324a13.621,13.621,0,0,0-1.368-2.538l-1.836.63a16.135,16.135,0,0,1,1.116,2.232H211.5v1.746h3.762l-.216.036a8.088,8.088,0,0,1,.612,1.4h-3.42v1.674h6.084v.81h-5.184v1.548h5.184V-4.3h-6.876v1.764h5.166a18.911,18.911,0,0,1-5.688,2.106,9.984,9.984,0,0,1,1.368,1.782,17.075,17.075,0,0,0,6.03-2.916V1.566h2.106v-3.24a15.365,15.365,0,0,0,6.048,3.042,10.069,10.069,0,0,1,1.44-1.944,16.081,16.081,0,0,1-5.706-1.962Zm9.036-10.044v2.3a48.311,48.311,0,0,0,7.74,0V-12.6A37.014,37.014,0,0,1,236.466-12.582Zm1.44,7.686-2.07-.2a11,11,0,0,0-.306,2.34C235.53-.9,237.024.2,240.12.2a25.492,25.492,0,0,0,4.644-.342l-.036-2.43a21.278,21.278,0,0,1-4.518.468c-1.836,0-2.52-.486-2.52-1.278A6.11,6.11,0,0,1,237.906-4.9Zm-4.212-8.892L231.174-14c-.018.576-.126,1.26-.18,1.764a50.192,50.192,0,0,0-.756,7.128,23.01,23.01,0,0,0,.7,5.886L233.028.63c-.018-.252-.036-.54-.036-.738a5.433,5.433,0,0,1,.09-.846c.2-.954.792-2.916,1.3-4.41l-1.116-.882c-.252.594-.54,1.224-.81,1.836a8.684,8.684,0,0,1-.072-1.17,47.742,47.742,0,0,1,.864-6.606C233.316-12.51,233.55-13.41,233.694-13.788Zm15.174,9.252H250.6l.378-6.642.09-2.5H248.4l.09,2.5Zm.864,4.788a1.669,1.669,0,0,0,1.656-1.728A1.658,1.658,0,0,0,249.732-3.2a1.644,1.644,0,0,0-1.638,1.728A1.654,1.654,0,0,0,249.732.252Zm5.526-4.788h2.322c-.27-2.538,2.862-3.4,2.862-5.958,0-2.3-1.584-3.42-3.744-3.42a5.018,5.018,0,0,0-3.8,1.8l1.458,1.332a2.846,2.846,0,0,1,2.016-1.008,1.4,1.4,0,0,1,1.53,1.476C257.9-8.6,254.844-7.434,255.258-4.536Zm1.17,4.788a1.658,1.658,0,0,0,1.656-1.728A1.647,1.647,0,0,0,256.428-3.2a1.644,1.644,0,0,0-1.638,1.728A1.654,1.654,0,0,0,256.428.252Z" transform="translate(1540 5497)" fill="#fff"/>
  </g>
</svg>
