<svg xmlns="http://www.w3.org/2000/svg" width="340.001" height="180.18" viewBox="0 0 340.001 180.18">
  <g id="グループ_156" data-name="グループ 156" transform="translate(-18 -4314.82)">
    <g id="グループ_153" data-name="グループ 153">
      <path id="合体_1" data-name="合体 1" d="M7199.818,23440.762l-13.441-12.781-1.673.033a532.778,532.778,0,0,1-62.2-2.643c-29,0-52.5-20.148-52.5-45.006s23.5-45.006,52.5-45.006c0,0,76.729-7.359,135.478-7.359s99.52,7.359,99.52,7.359c29,0,52.5,20.15,52.5,45.006s-23.5,45.006-52.5,45.006h-71.775c-19.126,0-54.1,1.42-84.473,2.25l1.915,11.359a2,2,0,0,1-1.99,2.338A1.945,1.945,0,0,1,7199.818,23440.762Z" transform="translate(-7052 -19013.18)" fill="#fff"/>
      <path id="パス_2294" data-name="パス 2294" d="M77.822,7.058a.519.519,0,0,0-.522-.5.5.5,0,0,0-.486.342A11.162,11.162,0,0,1,75.23,9.308a.535.535,0,0,0-.144.36.492.492,0,0,0,.5.5.475.475,0,0,0,.342-.126A11.112,11.112,0,0,0,77.822,7.058ZM73.916,9.4a.539.539,0,0,0-.108-.324,6.956,6.956,0,0,1-.522-2.106.5.5,0,0,0-.522-.5.516.516,0,0,0-.486.522A6.643,6.643,0,0,0,73.016,9.7a.486.486,0,0,0,.4.18A.5.5,0,0,0,73.916,9.4Zm-2.538.5a.485.485,0,0,0-.09-.27,11.347,11.347,0,0,1-.954-2.754.5.5,0,0,0-.486-.378.519.519,0,0,0-.522.5.267.267,0,0,0,.018.126,13,13,0,0,0,1.1,3.078.513.513,0,0,0,.432.216A.531.531,0,0,0,71.378,9.9Zm5.04,6.48a.544.544,0,0,0-.09-.288,17.314,17.314,0,0,0-1.98-2.178,17.583,17.583,0,0,0,1.134-1.458.544.544,0,0,0,.09-.288.488.488,0,0,0-.486-.5.512.512,0,0,0-.414.2l-1.062,1.35c-.27-.252-1.008-1.008-1.386-1.008a.484.484,0,0,0-.486.486.506.506,0,0,0,.234.432,6.429,6.429,0,0,1,.99.864,12.223,12.223,0,0,1-2.016,1.962.53.53,0,0,0-.234.432.492.492,0,0,0,.5.5c.558,0,2.088-1.764,2.466-2.2a15.4,15.4,0,0,1,1.8,1.962.442.442,0,0,0,.414.234A.519.519,0,0,0,76.418,16.382Zm2.448-4a.5.5,0,1,0-1.008,0c0,2.034-.144,4.086-.288,6.12a55.614,55.614,0,0,1-7.74.4c-.09-.756-.126-1.53-.162-2.286-.036-.954-.072-1.908-.072-2.862,0-.36.054-.9-.486-.9-.468,0-.522.36-.522.72a51.348,51.348,0,0,0,.306,5.976.518.518,0,0,0,.5.378,64.063,64.063,0,0,0,8.1-.378,6.555,6.555,0,0,0-.09.81.516.516,0,0,0,.486.522.5.5,0,0,0,.5-.414,13.65,13.65,0,0,0,.18-1.746C78.74,16.616,78.866,14.492,78.866,12.386Zm-10.818.738c0-1.98-.054-3.96-.054-5.94a.5.5,0,0,0-.342-.486,5.116,5.116,0,0,0-1.3-.108,12.129,12.129,0,0,0-2.286.2c-.306.054-.45.144-.5.468v.036c0,2.484-.09,4.968-.2,7.434-.09,1.962-.252,3.924-.378,5.868v.072a.493.493,0,0,0,.45.5A.506.506,0,0,0,64,20.72c.09-.45.108-1.224.144-1.692.09-1.206.144-2.43.2-3.636a26.491,26.491,0,0,1,2.682-.216,37.157,37.157,0,0,1-.216,4.7c-.18-.144-.27-.306-.54-.306a.484.484,0,0,0-.486.486c0,.432,1.008,1.062,1.386,1.062a.487.487,0,0,0,.486-.342C68.048,19.874,68.048,14.276,68.048,13.124ZM67.022,10.5a14.63,14.63,0,0,0-2.5.18l.054-2.952A10.789,10.789,0,0,1,66.446,7.6c.18,0,.36,0,.54.018C66.986,8.57,66.986,9.542,67.022,10.5Zm0,3.672a25.431,25.431,0,0,0-2.628.2c.036-.882.072-1.764.09-2.646a10.042,10.042,0,0,1,2.322-.2h.216ZM92.546,10.3c0-.594-1.872-1.818-2.394-1.818a.538.538,0,0,0-.54.522.518.518,0,0,0,.378.5,4.364,4.364,0,0,1,1.62,1.116.512.512,0,0,0,.414.2A.522.522,0,0,0,92.546,10.3Zm4.806,4.41a.522.522,0,0,0-.522-.522c-.756,0-1.494,0-2.25.036l.036-2.466c.036-1.926.072-3.888.162-5.814V5.888a.523.523,0,0,0-1.044-.054,15.506,15.506,0,0,0-.072,1.854c-.054,1.35-.072,2.7-.09,4.05l-.054,2.5a38.6,38.6,0,0,0-5.328.4.5.5,0,0,0-.378.5.511.511,0,0,0,.522.522.4.4,0,0,0,.144-.018,9.488,9.488,0,0,1,1.89-.2c1.044-.072,2.088-.108,3.132-.144-.018,1.224-.054,2.448-.09,3.654a11.756,11.756,0,0,1-.144,1.8.5.5,0,0,0-.018.162.511.511,0,0,0,.522.522.5.5,0,0,0,.486-.36,54.041,54.041,0,0,0,.306-5.814c.756-.018,1.512-.036,2.268-.036A.522.522,0,0,0,97.352,14.708ZM92.456,13a.513.513,0,0,0-.216-.432,7.864,7.864,0,0,0-2.88-1.008.531.531,0,0,0-.036,1.062,6.616,6.616,0,0,1,2.3.792.569.569,0,0,0,.306.108A.511.511,0,0,0,92.456,13Zm-3.582-1.89c0-.576-.486-.576-.918-.576-.81,0-1.6.054-2.394.09.036-1.008.054-2,.126-3.006a12.12,12.12,0,0,1,1.6-.18.523.523,0,1,0,0-1.044,19.471,19.471,0,0,0-4.41.738.529.529,0,0,0,.234,1.008.479.479,0,0,0,.216-.054,6.183,6.183,0,0,1,1.3-.306c-.054.972-.072,1.926-.108,2.9-.846.054-1.71.126-2.556.2-.378.036-.756.054-1.134.126a.534.534,0,0,0,.072,1.062c.126-.072,3.2-.306,3.582-.324-.018.468-.072.954-.054,1.422-.594,1.152-1.3,2.286-1.98,3.4a7.659,7.659,0,0,0-.486.828.667.667,0,0,0-.072.27.5.5,0,0,0,.522.5.537.537,0,0,0,.468-.27c.162-.252.306-.54.468-.792l1.026-1.71c-.054,1.746-.126,3.492-.126,5.22,0,.378.036.81.522.81a.52.52,0,0,0,.522-.558c0-1.836.072-3.69.126-5.526a6.294,6.294,0,0,0,1.872,1.116.538.538,0,0,0,.522-.54.5.5,0,0,0-.36-.486,8.651,8.651,0,0,1-1.98-1.458l-.018-.018.072-2.268c.846-.054,1.692-.108,2.556-.09h.234A.524.524,0,0,0,88.874,11.108Zm23.652-5.13a.507.507,0,0,0-.522-.5.538.538,0,0,0-.45.234,10.041,10.041,0,0,1-1.44,1.584.482.482,0,0,0-.216.414.522.522,0,0,0,.522.522.581.581,0,0,0,.324-.108,12.6,12.6,0,0,0,1.692-1.854A.544.544,0,0,0,112.526,5.978ZM107.018,8.3a.489.489,0,0,0,.468-.486.773.773,0,0,0-.036-.216,5.632,5.632,0,0,1-.126-1.35c0-.2.018-.4.018-.576a.519.519,0,0,0-.5-.522c-.612,0-.558.684-.558,1.1a6.193,6.193,0,0,0,.216,1.746A.5.5,0,0,0,107.018,8.3Zm-.252.2c-.72.036-1.44.072-2.142.126l-.144-.162a4.287,4.287,0,0,1-.954-2.376.523.523,0,0,0-.5-.54.515.515,0,0,0-.54.558,6,6,0,0,0,.882,2.646c-.4.036-1.026.054-1.026.594a.507.507,0,0,0,.522.5h.09a27.713,27.713,0,0,1,3.438-.306q2.4-.108,4.806-.108c.684,0,1.368,0,2.052.036a14.444,14.444,0,0,1-1.008,2.844.667.667,0,0,0-.072.27.5.5,0,0,0,.522.5.513.513,0,0,0,.45-.252,14.566,14.566,0,0,0,1.26-3.744V9a.513.513,0,0,0-.468-.522c-.306-.036-.63-.036-.936-.054-.648-.018-1.314-.018-1.962-.018-1.26,0-2.538.018-3.8.072Zm5.778,7.65c0-.684-.72-.576-1.188-.576q-1.3,0-2.592.054a2.751,2.751,0,0,0-1.134-1.71A9.783,9.783,0,0,0,109,11.846a.525.525,0,0,0-.342-.5,4.5,4.5,0,0,0-1.476-.2,9.051,9.051,0,0,0-2.61.36.5.5,0,0,0-.342.468.55.55,0,0,0,.522.54.526.526,0,0,0,.162-.036,7.8,7.8,0,0,1,2.25-.288,3.762,3.762,0,0,1,.45.018l-.468.648c-.234.324-.5.63-.7.972a.485.485,0,0,0-.09.27c0,.666.99.432,1.368,1.566A32.925,32.925,0,0,0,103,16.04a.524.524,0,0,0-.378.5.507.507,0,0,0,.522.5.4.4,0,0,0,.144-.018,9.7,9.7,0,0,1,1.62-.18c.954-.072,1.926-.108,2.9-.144l-.054.36c-.2,1.008-1.206,3.06-2.43,3.06a3.141,3.141,0,0,1-.918-.126.766.766,0,0,0-.2-.036.507.507,0,0,0-.522.5c0,.666,1.17.7,1.638.7,1.8,0,3.132-2.376,3.438-3.906.036-.2.072-.4.09-.594.9-.036,1.8-.072,2.7-.072.162,0,.324.018.486.018A.5.5,0,0,0,112.544,16.148Zm-10.332-7.02a.492.492,0,0,0-.5-.5.512.512,0,0,0-.486.306,17.972,17.972,0,0,0-.774,4.41c0,.36.09.774.54.774a.522.522,0,0,0,.522-.522c0-.072-.018-.162-.018-.234a16.887,16.887,0,0,1,.684-4.014A.9.9,0,0,0,102.212,9.128Zm30.24.756c0-.612-.7-.576-1.134-.576a39.828,39.828,0,0,0-5.814.612c.072-.234.81-3.528.81-3.672a.519.519,0,0,0-.5-.522.541.541,0,0,0-.5.378c-.126.324-.99,4.284-.99,4.482a.522.522,0,0,0,.522.522c.054,0,.09-.018.126-.018.99-.216,2.016-.342,3.042-.468a29.31,29.31,0,0,1,3.33-.27h.072c-.054,1.872-.522,8.046-1.728,9.414a6.926,6.926,0,0,1-3.258-1.17.539.539,0,0,0-.324-.108.522.522,0,0,0-.522.522.557.557,0,0,0,.216.414,2.475,2.475,0,0,0,.54.342,7.767,7.767,0,0,0,3.546,1.026.627.627,0,0,0,.306-.108c1.548-1.206,2-6.534,2.142-8.442C132.38,11.468,132.452,10.658,132.452,9.884Zm-4.77,5.616a.639.639,0,0,0-.036-.18,11.652,11.652,0,0,1-.5-1.926.523.523,0,0,0-.522-.45.507.507,0,0,0-.5.522,11.42,11.42,0,0,0,.558,2.25.512.512,0,0,0,.486.306A.522.522,0,0,0,127.682,15.5Zm-4.266-3.582c0-.234.018-.468,0-.684-.054-.684-1.17-.612-1.656-.612a16.008,16.008,0,0,0-1.854.108c-.144.018-.684.144-.756.144h-.036a19.862,19.862,0,0,1,1.494-2.88c.144-.252.324-.486.468-.738a.544.544,0,0,0,.09-.288.522.522,0,0,0-.522-.522.53.53,0,0,0-.432.234,21.866,21.866,0,0,0-2.25,4.374A30.1,30.1,0,0,0,117.746,15a24.781,24.781,0,0,0,.342,4.95.544.544,0,0,0,.486.36.507.507,0,0,0,.522-.5c0-.216-.09-.432-.108-.648,1.026-.126,2.052-.162,3.078-.288-.018.18-.09.4-.09.576a.507.507,0,0,0,.522.5.5.5,0,0,0,.486-.36C123.326,18.6,123.416,13.232,123.416,11.918Zm-1.026-.234v.576c0,.612-.018,1.224-.036,1.818a17.84,17.84,0,0,0-3.528.288c.018-.882.036-1.764.108-2.646a.561.561,0,0,0,.378.162.306.306,0,0,0,.126-.018,8.53,8.53,0,0,1,2.25-.216C121.922,11.648,122.156,11.666,122.39,11.684Zm-.072,3.438c-.036.9-.09,1.8-.144,2.7-1.1.09-2.2.18-3.294.306q-.054-1.35-.054-2.7a14.02,14.02,0,0,1,3.132-.324C122.084,15.1,122.192,15.122,122.318,15.122ZM149.1,10.64c0-.99-1.35-1.134-2.088-1.134a5.876,5.876,0,0,0-1.674.234.541.541,0,0,0-.378.5.557.557,0,0,0,.54.558.533.533,0,0,0,.18-.036,4.371,4.371,0,0,1,1.278-.162,3.633,3.633,0,0,1,.99.108.5.5,0,0,0-.054.234.542.542,0,0,0,.54.54C148.85,11.486,149.1,11,149.1,10.64Zm-.414,6.264a.541.541,0,0,0-.36-.5,6,6,0,0,1-2.574-2.106.546.546,0,0,0-.486-.288.527.527,0,0,0-.54.522c0,.828,2.628,2.916,3.42,2.916A.542.542,0,0,0,148.688,16.9Zm-8.73-6.678a.552.552,0,0,0-1.026-.27,17.079,17.079,0,0,0-1.566,6.894,5.436,5.436,0,0,0,.306,2.016.535.535,0,0,0,.5.324,2.983,2.983,0,0,0,1.134-.414.53.53,0,0,0,.234-.432.557.557,0,0,0-.54-.558c-.18,0-.324.126-.486.18a5.538,5.538,0,0,1-.09-1.1,15.563,15.563,0,0,1,1.458-6.372A.667.667,0,0,0,139.958,10.226Zm28.98,3.51a.519.519,0,0,0-.5-.522c-.432-.036-.882-.018-1.314-.018q-1.755,0-3.51.054c.108-1.818.09-3.654.09-5.472.45,0,.918-.018,1.368-.018.522,0,1.026.018,1.53.054h.072a.492.492,0,0,0,.5-.5.526.526,0,0,0-.468-.522,9.688,9.688,0,0,0-1.62-.054c-.45,0-.918,0-1.368.018V5.78a.522.522,0,0,0-1.044,0v.99c-.936.018-1.89.054-2.826.108.018-.4.054-.792.054-1.17a.513.513,0,0,0-1.026-.036c-.054.414-.054.846-.072,1.26-.684.036-1.386.072-2.07.144a6.2,6.2,0,0,0-.81.09.537.537,0,0,0-.432.5.547.547,0,0,0,.522.522h.09c.27,0,.558-.072.846-.09.594-.072,1.206-.108,1.818-.144-.054,1.386-.09,2.79-.09,4.194,0,.414,0,.828.018,1.242l-3.33.162a13.675,13.675,0,0,0-1.746.162.516.516,0,0,0,.09,1.026h.108a2.989,2.989,0,0,0,.4-.054c.324-.036.63-.054.954-.072,1.368-.108,2.754-.162,4.122-.216a19.327,19.327,0,0,1-3.78,3.978c-.27.216-.576.4-.864.594a.488.488,0,0,0-.234.432.507.507,0,0,0,.5.522c.576,0,2.61-1.926,3.078-2.394a.722.722,0,0,0-.054.27c0,.234.306.45.522.45h.072c.2,0,.378-.036.576-.054.576-.054,1.134-.072,1.71-.108-.018.594-.036,1.188-.09,1.782-.594.036-1.188.054-1.782.108a5.6,5.6,0,0,0-.774.054.518.518,0,0,0,.09,1.026h.09c.324-.018.666-.072.99-.09,1.584-.108,3.186-.18,4.788-.18.36,0,.918.036.918-.5,0-.594-.666-.5-1.062-.5-.738,0-1.476.018-2.214.036.036-.594.072-1.188.072-1.782.756-.036,1.512-.072,2.268-.072a.522.522,0,1,0,0-1.044c-.756,0-1.494.036-2.25.072,0-.468.108-1.17-.576-1.17a.525.525,0,0,0-.486.5c0,.234.018.486.018.72a18.46,18.46,0,0,0-2.574.234,20.135,20.135,0,0,0,2.322-2.916l1.44-.054c-.072.126-.126.162-.126.324a.537.537,0,0,0,.27.468l.792.486a47.325,47.325,0,0,1,4.086,2.718.492.492,0,0,0,.342.144.55.55,0,0,0,.522-.54.507.507,0,0,0-.18-.378,11.979,11.979,0,0,0-1.548-1.1c-1.1-.738-2.214-1.476-3.348-2.142,1.494-.036,2.97-.072,4.464-.072.36,0,.738.018,1.116.018A.512.512,0,0,0,168.938,13.736Zm-6.264-5.922V8.1c0,.288,0,.558-.018.846-.972,0-1.944.054-2.9.126.018-.4.036-.774.036-1.17C160.748,7.868,161.72,7.832,162.674,7.814Zm-.018,2.16c0,.324-.018.666-.018.99a26.414,26.414,0,0,0-2.916.18c0-.342.018-.684.018-1.026C160.712,10.028,161.684,9.992,162.656,9.974Zm-.036,2.016-.054,1.278c-.954.018-1.89.054-2.844.09v-1.17C160.676,12.08,161.648,12.008,162.62,11.99Zm24.642-4.734a.572.572,0,0,0-.144-.36,8.744,8.744,0,0,1-.63-.954.56.56,0,0,0-.468-.27.53.53,0,0,0-.54.54,4.313,4.313,0,0,0,.828,1.4.586.586,0,0,0,.414.18A.554.554,0,0,0,187.262,7.256Zm-2.808.666c0-.522-.576-.432-.576-1.278a.54.54,0,0,0-1.08,0,1.973,1.973,0,0,0,.756,1.674.55.55,0,0,0,.36.126A.526.526,0,0,0,184.454,7.922Zm.18,4.464c0-2.358-2.538-2.5-4.3-2.5-1.278,0-5.526.5-6.156,1.728a.575.575,0,0,0-.054.252.522.522,0,0,0,.522.522c.27,0,.342-.108.486-.288.414-.486,2.952-.936,3.582-1.026a12.245,12.245,0,0,1,1.62-.108c.756,0,2.574,0,3.06.756a1.22,1.22,0,0,1,.162.666c0,1.584-2.826,4-4.032,4.824a5.955,5.955,0,0,1-.846.522l-.4.2a.535.535,0,0,0-.324.5.516.516,0,0,0,.54.522.457.457,0,0,0,.216-.036C180.674,18.074,184.634,14.672,184.634,12.386Zm19.746-.018c0-.576-.234-2.268-1.044-2.268a.538.538,0,0,0-.54.522.529.529,0,0,0,.162.4,2.3,2.3,0,0,1,.342,1.35,2.468,2.468,0,0,1-.216,1.08.5.5,0,0,0-.054.234.57.57,0,0,0,.54.558C204.254,14.24,204.38,12.854,204.38,12.368ZM195.4,15.356a.54.54,0,0,0-.864-.432,4.025,4.025,0,0,1-1.53.612,11.356,11.356,0,0,1-1.782-3.168c-.108-.324-.2-.648-.288-.972a.546.546,0,0,0-1.08.108,11.749,11.749,0,0,0,1.26,3.2c.306.558,1.044,1.908,1.818,1.908a4.886,4.886,0,0,0,2.25-.828A.513.513,0,0,0,195.4,15.356Zm26.028-2.9c0-.648-.972-.684-1.44-.684a7.334,7.334,0,0,0-2.9.666.54.54,0,0,0,.252,1.026.5.5,0,0,0,.234-.054,6.326,6.326,0,0,1,2.43-.576,2.176,2.176,0,0,1,.684.108.9.9,0,0,0,.216.036A.522.522,0,0,0,221.426,12.458Zm-.072,6.192a.52.52,0,0,0-.522-.558,8.462,8.462,0,0,1-3.06-.72.5.5,0,0,0-.288-.09.561.561,0,0,0-.54.576.506.506,0,0,0,.252.432,9.378,9.378,0,0,0,3.6.882A.542.542,0,0,0,221.354,18.65Zm-4.968-9.882a.53.53,0,0,0-.54-.54.4.4,0,0,0-.144.018,11.811,11.811,0,0,1-1.944.306.585.585,0,0,0,.2-.45.538.538,0,0,0-.54-.522.548.548,0,0,0-.432.2,6.44,6.44,0,0,0-.522.828c-.7,0-1.4-.072-2.106-.126h-.072a.516.516,0,0,0-.522.54.528.528,0,0,0,.468.54c.54.09,1.116.09,1.656.126-1.134,2.178-2.934,6.5-2.934,8.82,0,.432.036,1.278.63,1.278a.57.57,0,0,0,.558-.54c0-.2-.108-.45-.108-.756,0-2.16,2.016-6.84,3.06-8.8a11.969,11.969,0,0,0,2.9-.4A.54.54,0,0,0,216.386,8.768ZM33.9,42.488a.54.54,0,0,0-.414-.522,17.863,17.863,0,0,0-2.628-.126c-1.206,0-2.43.018-3.636.072-.018-.684-.018-1.368-.018-2.052,0-.864,0-1.728.018-2.592a27.286,27.286,0,0,1,3.2-.162c.414,0,1.26.162,1.26-.5,0-.7-.864-.576-1.332-.576a29.816,29.816,0,0,0-3.114.144q.027-1.755.108-3.51c.738,0,1.476-.018,2.214-.018.558,0,1.134.018,1.674-.018a.53.53,0,0,0,.54-.54.554.554,0,0,0-.54-.54c-.558,0-1.116.018-1.674.018-1.89,0-3.762.018-5.652.09-.756.018-1.53.054-2.286.126a5.609,5.609,0,0,0-.792.09.523.523,0,0,0-.45.522.542.542,0,0,0,.54.54H21c.4-.036.792-.09,1.188-.108,1.35-.108,2.718-.126,4.086-.144-.09,2.394-.162,4.806-.162,7.2,0,.7.018,1.386.036,2.07-1.08.054-2.178.126-3.258.2,0-1.746.09-3.474.09-5.22a.554.554,0,0,0-.54-.54.53.53,0,0,0-.54.54c0,1.782-.09,3.546-.09,5.328a17.262,17.262,0,0,0-3.132.468.537.537,0,0,0,.18,1.044.612.612,0,0,0,.18-.018,26,26,0,0,1,4.716-.594c2.322-.144,4.644-.252,6.966-.252a13.074,13.074,0,0,1,2.52.126c.036,0,.072.018.108.018A.573.573,0,0,0,33.9,42.488Zm11.61,1.224a.571.571,0,0,0-.342-.5,2.345,2.345,0,0,1-.558-.378c-1.026-1.044-1.1-3.564-1.1-4.95,0-2.358.36-4.716.486-7.074v-.054a.541.541,0,0,0-1.08-.054c-.036.252-.054.522-.072.774L42.7,32.966c-.162,1.62-.288,3.258-.288,4.914,0,1.962.162,5.472,2.34,6.318a.9.9,0,0,0,.216.036A.538.538,0,0,0,45.512,43.712ZM69.38,36.368c0-.576-.234-2.268-1.044-2.268a.538.538,0,0,0-.54.522.529.529,0,0,0,.162.4,2.3,2.3,0,0,1,.342,1.35,2.468,2.468,0,0,1-.216,1.08.5.5,0,0,0-.054.234.57.57,0,0,0,.54.558C69.254,38.24,69.38,36.854,69.38,36.368ZM60.4,39.356a.54.54,0,0,0-.864-.432,4.025,4.025,0,0,1-1.53.612,11.356,11.356,0,0,1-1.782-3.168c-.108-.324-.2-.648-.288-.972a.546.546,0,0,0-1.08.108,11.749,11.749,0,0,0,1.26,3.2c.306.558,1.044,1.908,1.818,1.908a4.886,4.886,0,0,0,2.25-.828A.513.513,0,0,0,60.4,39.356Zm26.388-4.482a.476.476,0,0,0-.45-.486,11.31,11.31,0,0,0-1.566-.036h-.846A19.589,19.589,0,0,0,84.5,32.39a.5.5,0,0,0-.99-.126c-.216.72-.414,1.422-.648,2.142a8.432,8.432,0,0,0-1.926.288.486.486,0,0,0-.342.468.515.515,0,0,0,.5.5.526.526,0,0,0,.162-.036,5.766,5.766,0,0,1,1.242-.2,53.613,53.613,0,0,1-2.52,6.354.5.5,0,0,0-.054.234.484.484,0,0,0,.486.486.493.493,0,0,0,.45-.252,22.645,22.645,0,0,0,1.08-2.43c.576-1.458,1.116-2.952,1.638-4.446.45-.018.918-.036,1.368-.036.27,0,.54.018.792.018a16.936,16.936,0,0,1-1.1,5.022,1.3,1.3,0,0,1-.612.666.481.481,0,0,0-.324.45.507.507,0,0,0,.5.522.526.526,0,0,0,.162-.036c1.89-.684,2.34-5.436,2.412-7.056Zm.576,6.444a.507.507,0,0,0-.522-.5.5.5,0,0,0-.468.36,2.225,2.225,0,0,1-.666.756A7.686,7.686,0,0,1,81.1,43.6a4.658,4.658,0,0,1-2.646-.63,1.613,1.613,0,0,1-.324-.27,8.383,8.383,0,0,1-.18-2.052q0-.7.054-1.4c.288-.018.594-.018.882-.018.126,0,.252.018.378.018a.5.5,0,0,0,.486-.342,37.093,37.093,0,0,0,.414-3.744V35.09c.054-.648-1.026-.54-1.458-.54-.7,0-1.4.018-2.106.018H76.58c.414-.4,2.412-2.5,2.412-2.988,0-.792-1.692-1.044-2.286-1.17A.484.484,0,0,0,76.22,30a.454.454,0,0,0-.306.108,26.016,26.016,0,0,0-2.826,2.808.454.454,0,0,0-.108.306.515.515,0,0,0,.5.5.486.486,0,0,0,.4-.18,28.15,28.15,0,0,1,2.16-2.232,9.674,9.674,0,0,1,1.764.414c-.81,1.062-1.8,1.962-2.7,2.934-.324.036-.666.072-.99.126a.465.465,0,0,0-.45-.324.481.481,0,0,0-.5.45,9.541,9.541,0,0,0-.054,1.026c-.036.7-.054,1.4-.072,2.106-.018.45-.036.882-.036,1.332a.5.5,0,0,0,.99.072c.36-.018.7-.036,1.062-.072-.09.2-.216.378-.324.576a40.972,40.972,0,0,1-2.286,3.708.561.561,0,0,0-.126.324.5.5,0,0,0,.5.486.538.538,0,0,0,.378-.18,27.926,27.926,0,0,0,2.394-3.852,9.809,9.809,0,0,0,.63-1.116l.792-.036c-.036.54-.054,1.08-.054,1.638a5.069,5.069,0,0,0,.414,2.448A5.067,5.067,0,0,0,81.1,44.594a7.8,7.8,0,0,0,2.232-.342c1.206-.36,3.6-1.476,4.014-2.808A.306.306,0,0,0,87.362,41.318ZM79.118,35.54c-.126.9-.162,1.782-.27,2.682-.648,0-1.314.036-1.962.072q.081-1.377.108-2.754c.378,0,.756-.018,1.152-.018h.306C78.668,35.522,78.9,35.522,79.118,35.54ZM76,35.594c-.036.918-.072,1.818-.126,2.736-.612.036-1.242.054-1.854.126,0-.126.018-.27.018-.4.054-.756.036-1.53.072-2.286h.072C74.78,35.684,75.392,35.63,76,35.594Zm29.7,8.874a17.51,17.51,0,0,0-.666-3.636.5.5,0,0,0-.972.18c0,.162.216.81.252,1.026-1.152.09-2.3.252-3.438.414.072-.774.108-1.53.126-2.3.882-.036,1.764-.09,2.646-.09a.536.536,0,0,0,.324-.144h.018a.323.323,0,0,0,.09-.126l.018-.018v-.018a24.746,24.746,0,0,0,.846-3.546.519.519,0,0,0-.378-.486,10.452,10.452,0,0,0-2-.144c-.486,0-.99.018-1.476.036.018-.54.018-1.062.018-1.6a.47.47,0,0,0-.18-.36c.774-.09,1.566-.126,2.34-.234a2.046,2.046,0,0,1,.18.648.5.5,0,0,0,.5.468.508.508,0,0,0,.486-.54,7.076,7.076,0,0,0-1.35-2.916.545.545,0,0,0-.4-.18.5.5,0,0,0-.486.5.489.489,0,0,0,.108.306c.18.252.342.486.5.756-1.494.2-3.024.252-4.518.45.432-.828.864-1.638,1.332-2.448a.485.485,0,0,0,.09-.27.5.5,0,0,0-.9-.306,26.09,26.09,0,0,0-1.89,3.636.484.484,0,0,0,.486.486h.09c.27,0,.576-.09.846-.108.612-.072,1.242-.144,1.872-.2a.627.627,0,0,0-.108.306c0,.558,0,1.1-.018,1.656-.864.054-1.746.09-2.61.216a.5.5,0,0,0-.468-.468c-.576,0-.5.576-.5.972a29.353,29.353,0,0,0,.2,4.05.49.49,0,0,0,.954,0,14.5,14.5,0,0,1,2.34-.216c-.036.792-.054,1.584-.144,2.376-.72.108-1.422.216-2.142.36a5.756,5.756,0,0,0-1.1.27.5.5,0,0,0-.324.468.478.478,0,0,0,.5.486.526.526,0,0,0,.162-.036,19.11,19.11,0,0,1,2.862-.54c1.548-.234,3.114-.45,4.68-.594.072.5.144.99.18,1.494a.485.485,0,0,0,.5.468A.492.492,0,0,0,105.7,44.468ZM95.966,30.914a.482.482,0,0,0-.216-.414,5.9,5.9,0,0,0-2.124-.288,9.2,9.2,0,0,0-1.728.108.489.489,0,0,0,.09.972h.09a9.911,9.911,0,0,1,1.458-.09,12.226,12.226,0,0,1,1.4.072,11.509,11.509,0,0,1-.612,2.376,16.219,16.219,0,0,0-2.826.108.485.485,0,0,0-.4.486.49.49,0,0,0,.162.378,20.012,20.012,0,0,0-.216,2.736c0,.36.018.792.5.792h.108a14.357,14.357,0,0,1,2.16-.144c.162,0,.306.018.468.018-.072,1.368-.666,4.518-1.836,5.346a3.039,3.039,0,0,1-.666-.774.5.5,0,0,0-.972.18,2.576,2.576,0,0,0,1.674,1.638.363.363,0,0,0,.2-.054,2.85,2.85,0,0,0,.864-.666c1.134-1.35,1.746-4.3,1.746-6.048,0-.72-.936-.612-1.44-.612-.612,0-1.206.018-1.818.072q.054-1.215.216-2.43c.468-.036.936-.036,1.4-.036.486,0,.972.036,1.458.036a.5.5,0,0,0,.5-.486.508.508,0,0,0-.27-.45A12.783,12.783,0,0,0,95.966,30.914Zm7.9,5.706a23,23,0,0,1-.576,2.448l-2.25.09L101.1,36.6c.468-.018.936-.018,1.4-.018C102.95,36.584,103.418,36.584,103.868,36.62Zm-3.762.036-.054,2.556c-.81.054-1.638.108-2.448.234-.072-.864-.09-1.71-.108-2.574C98.36,36.764,99.242,36.692,100.106,36.656Zm23.526.846c0-.648-.666-.54-1.116-.54-1.188,0-2.394.018-3.582.072.054-1.3.09-2.592.126-3.888.972-.018,1.962-.036,2.934-.036.378,0,.972.054.972-.5s-.522-.54-.918-.54c-.99,0-1.962.018-2.952.036.018-.684.036-1.35.036-2.034a.522.522,0,0,0-1.044,0c0,.684-.018,1.368-.036,2.052-.774.018-1.53.036-2.3.072a7.32,7.32,0,0,0-1.1.108.538.538,0,0,0-.432.522.526.526,0,0,0,.54.522h.108l.81-.072c.774-.054,1.566-.072,2.34-.108l-.144,3.906q-1.134.027-2.268.108a8.322,8.322,0,0,0-1.17.09.51.51,0,0,0-.45.522.522.522,0,0,0,.522.522h.054c.81,0,1.62-.126,2.43-.162-.342.882-2.358,5.418-2.358,5.8a.531.531,0,0,0,.522.5h.054c.432,0,.864-.09,1.3-.126.972-.09,1.944-.18,2.916-.252.81-.054,1.6-.126,2.412-.2.108.342.162.684.252,1.026a.522.522,0,0,0,.522.414.5.5,0,0,0,.5-.522,23.215,23.215,0,0,0-1.3-4.176.538.538,0,0,0-.486-.324.548.548,0,0,0-.5.54c0,.126.612,1.728.7,2.016-1.854.18-3.726.306-5.58.486.72-1.746,1.53-3.456,2.178-5.22,1.458-.054,2.916-.126,4.374-.126C122.894,37.988,123.632,38.132,123.632,37.5Zm-10.008-3.924a.568.568,0,0,0-.126-.342c-.45-.54-2.664-1.062-3.384-1.062a.522.522,0,1,0-.036,1.044,8.2,8.2,0,0,1,2.628.7.545.545,0,0,0,.4.18A.522.522,0,0,0,113.624,33.578Zm-.5,3.834c0-.576-.5-.558-.918-.558a12.915,12.915,0,0,0-3.15.288.56.56,0,0,0-.36.5.526.526,0,0,0,.54.522.639.639,0,0,0,.18-.036,11.931,11.931,0,0,1,2.79-.216C112.562,37.916,113.12,37.952,113.12,37.412Zm.342,3.474a.522.522,0,0,0-.522-.522.512.512,0,0,0-.414.2,9.862,9.862,0,0,1-.72.792,8.128,8.128,0,0,1-3.024,1.962.523.523,0,0,0,.054,1.044c1.206,0,3.834-2.2,4.518-3.15A.5.5,0,0,0,113.462,40.886Zm23.742-7.47c0-.666-.9-.576-1.368-.576q-.756,0-1.512.054a4.118,4.118,0,0,0,.2-1.044.546.546,0,0,0-.522-.576.538.538,0,0,0-.558.5,5.565,5.565,0,0,1-.27,1.206,16.256,16.256,0,0,0-2.628.4.538.538,0,0,0,.126,1.062c.036,0,.108-.018.144-.018l.54-.126c.468-.09.954-.144,1.44-.2a20.964,20.964,0,0,1-1.368,3.186.622.622,0,0,0-.126.36.542.542,0,0,0,.558.522,5.432,5.432,0,0,1,1.6.2c-.72.864-1.782,2.322-1.782,3.492,0,1.224,1.062,1.638,2.106,1.638a13.156,13.156,0,0,0,2.772-.486.54.54,0,0,0,.4-.522.526.526,0,0,0-.522-.54,1.164,1.164,0,0,0-.36.072,8.5,8.5,0,0,1-2.34.4c-.4,0-.972-.054-.972-.558,0-.936,1.17-2.412,1.764-3.078a2.64,2.64,0,0,1,.972.81.543.543,0,0,0,.468.252.52.52,0,0,0,.54-.54c0-.486-.828-1.08-1.206-1.314a6.415,6.415,0,0,1,.954-.774.546.546,0,0,0,.288-.486.531.531,0,0,0-.558-.522c-.432,0-1.4.972-1.71,1.278a6.664,6.664,0,0,0-1.548-.36,33.453,33.453,0,0,0,1.26-3.132c.612-.036,1.224-.072,1.836-.072.288,0,.576.036.864.036A.538.538,0,0,0,137.2,33.416Zm21.24-1.746a.528.528,0,0,0-.486-.522,9.325,9.325,0,0,0-1.422-.036c-1.35,0-2.718.036-4.068.09V31.13c0-.684.072-1.386.072-2.07a.522.522,0,0,0-1.044,0c0,.666-.054,1.332-.072,2a.613.613,0,0,1-.018.18c-1.458.054-2.916.108-4.374.234a.526.526,0,0,0-.9.288,8.021,8.021,0,0,0-.09,1.134c-.036.774-.072,1.548-.072,2.322a6.458,6.458,0,0,0,.09,1.332.541.541,0,0,0,.5.378.534.534,0,0,0,.522-.522.4.4,0,0,0-.018-.144,4.441,4.441,0,0,1-.036-.846c0-.972.036-1.944.09-2.9,1.314-.126,2.646-.162,3.96-.216,1.764-.072,3.51-.144,5.256-.144.324,0,.648,0,.972.018a9.617,9.617,0,0,1-.882,2.718.586.586,0,0,0-.072.252.567.567,0,0,0,.54.54.508.508,0,0,0,.45-.27A12.292,12.292,0,0,0,158.444,31.67Zm.342,13.446a.539.539,0,0,0-.45-.522c-.342-.09-.684-.162-1.026-.288a13.754,13.754,0,0,1-4.626-3.312c1.026-.036,2.07-.036,3.1-.036.54,0,1.062.018,1.584.018a.523.523,0,0,0,.054-1.044,13.8,13.8,0,0,0-1.494-.036c-1.332,0-2.682.036-4.014.09a11.986,11.986,0,0,0,.4-1.584q1.188-.054,2.376-.054c.306,0,.594.018.882.018a.516.516,0,0,0,.522-.486.524.524,0,0,0-.486-.558,6.984,6.984,0,0,0-1.062-.036c-.684,0-1.386.018-2.07.054a14.265,14.265,0,0,0,.126-1.512c.882-.036,1.746-.072,2.628-.072.378,0,.864.054.864-.522,0-.54-.486-.54-.882-.54-.864,0-1.746.054-2.61.09,0-.468-.054-.918-.054-1.386a.527.527,0,0,0-.558-.5.537.537,0,0,0-.486.558c0,.468.036.918.054,1.386a25.472,25.472,0,0,0-3.582.324.521.521,0,0,0,.126,1.026.306.306,0,0,0,.126-.018,5.914,5.914,0,0,1,1.134-.126c.72-.072,1.458-.126,2.178-.162a14.269,14.269,0,0,1-.126,1.512c-.792.036-1.584.072-2.358.126-.306.036-.63.036-.936.09a.539.539,0,0,0-.468.522.522.522,0,0,0,.522.522h.054c1.008,0,2-.162,3.006-.2a11.947,11.947,0,0,1-.45,1.566c-.864.036-1.728.09-2.592.18a7.132,7.132,0,0,0-1.224.162.525.525,0,0,0,.09,1.044c.036,0,.054-.018.09-.018a25.894,25.894,0,0,1,3.168-.288,8.209,8.209,0,0,1-2.7,3.114c-.252.18-.522.306-.774.468a.56.56,0,0,0-.27.468.507.507,0,0,0,.522.5.635.635,0,0,0,.252-.054,9.309,9.309,0,0,0,4.086-4.392,15.835,15.835,0,0,0,5.706,4.158,7.88,7.88,0,0,0,1.026.27C158.48,45.638,158.786,45.476,158.786,45.116ZM177.11,31.13a8.8,8.8,0,0,0-.936-2.124.513.513,0,0,0-.45-.252.488.488,0,0,0-.486.5c0,.252.774,1.494.882,1.962a.472.472,0,0,0,.486.414A.5.5,0,0,0,177.11,31.13Zm.288,10.62a.5.5,0,0,0-.5-.5.519.519,0,0,0-.5.4A7.028,7.028,0,0,1,175.31,44a4.18,4.18,0,0,1-1.476-2.34c.342-.414.7-.828,1.044-1.26a5.351,5.351,0,0,0,.486-.594.454.454,0,0,0,.108-.306.5.5,0,0,0-.9-.306l-1.062,1.3c-.18-.81-.306-1.638-.432-2.466a25.375,25.375,0,0,1,3.042-.342.5.5,0,0,0-.018-1.008,10.211,10.211,0,0,0-1.044.09c-.7.072-1.386.162-2.088.27-.054-.468-.09-.918-.126-1.386.882-.108,1.764-.2,2.664-.27a.482.482,0,0,0,.486-.522.5.5,0,0,0-.522-.486c-.306,0-.63.054-.936.072l-1.746.2c-.036-.432-.054-.846-.054-1.278a23.42,23.42,0,0,1,2.5-.2.5.5,0,0,0,0-1.008,23.755,23.755,0,0,0-2.52.2c0-.4-.018-.792-.018-1.188,0-.342.036-.666.018-1.008a.488.488,0,0,0-.486-.5.482.482,0,0,0-.522.486v2.34a15.13,15.13,0,0,0-2.106.342.507.507,0,1,0,.342.954,8.559,8.559,0,0,1,1.782-.288l.054,1.278a17.591,17.591,0,0,0-2.106.378.5.5,0,0,0,.2.954.356.356,0,0,0,.2-.036,13.639,13.639,0,0,1,1.782-.288c.036.468.072.936.126,1.4a14.958,14.958,0,0,0-2.646.612.481.481,0,0,0-.27.432.515.515,0,0,0,.5.5.635.635,0,0,0,.252-.054,10.837,10.837,0,0,1,2.268-.486,28.29,28.29,0,0,0,.63,3.222,11.027,11.027,0,0,1-1.746,1.8.518.518,0,0,0-.252.414.5.5,0,0,0,.5.486c.468,0,1.53-1.242,1.854-1.584a3.792,3.792,0,0,0,2.232,2.556.306.306,0,0,0,.126.018C176.174,45.1,177.4,42.4,177.4,41.75Zm-8.532-3.438c0-.594-.7-.54-1.1-.54a12.307,12.307,0,0,0-1.422.09v-2c.432-.018.882-.036,1.314-.036.306,0,.72-.054.72-.468a.5.5,0,0,0-.144-.378,10.63,10.63,0,0,0,.36-2.718.493.493,0,0,0-.252-.45,5.1,5.1,0,0,0-1.584-.18,15.609,15.609,0,0,0-2.43.18c0-.36.09-.918-.468-.918a.513.513,0,0,0-.522.468,11.906,11.906,0,0,0-.036,1.6,18.776,18.776,0,0,0,.216,3.528.506.506,0,0,0,.99-.144,1.162,1.162,0,0,0-.072-.342c.306-.036.594-.072.9-.09,0,2.3-.036,4.626,0,6.93-.558.162-1.116.288-1.674.432-.018-.594-.018-1.188-.018-1.782,0-.5,0-1.008.018-1.53.018-.234.036-.486.036-.72a.52.52,0,0,0-.486-.54.5.5,0,0,0-.522.468c-.072.72-.054,1.494-.054,2.232,0,.576.018,1.17.018,1.746a5.559,5.559,0,0,0,.018.774.555.555,0,0,0,.5.468,2.93,2.93,0,0,0,.54-.126c.252-.054,2.142-.522,2.16-.522a21.625,21.625,0,0,0,2.592-.936.493.493,0,0,0,.288-.45.507.507,0,0,0-.5-.522.479.479,0,0,0-.216.054c-.558.234-1.116.468-1.692.648-.018-1.224-.018-2.448-.018-3.672.486-.036.954-.072,1.44-.072.2,0,.4.018.594.018A.515.515,0,0,0,168.866,38.312Zm-1.3-5.652a11.019,11.019,0,0,1-.342,2.16,25.188,25.188,0,0,0-2.862.18c-.036-.72-.054-1.458-.054-2.178a14.624,14.624,0,0,1,2.664-.18C167.174,32.642,167.372,32.642,167.57,32.66Zm28.368-.882a.523.523,0,0,0-.432-.522,12.645,12.645,0,0,0-1.656-.234c-1.26-.144-2.52-.234-3.78-.288a8.441,8.441,0,0,0-.216-1.35.5.5,0,0,0-.5-.414.557.557,0,0,0-.558.54c0,.252.162.864.2,1.206H188.7a42.679,42.679,0,0,0-7.254.558,11.108,11.108,0,0,0-1.71.36.519.519,0,0,0-.4.5.554.554,0,0,0,.54.54.306.306,0,0,0,.126-.018,33.731,33.731,0,0,1,8.5-.864h.558v.468c0,.432-.018.882-.036,1.314a4.4,4.4,0,0,0-1.188-.162c-2.3,0-4,2.808-4,4.9,0,1.386.558,2.97,2.2,2.97,2.592,0,3.546-3.96,3.87-5.94a2.951,2.951,0,0,1,.72,1.944,12.072,12.072,0,0,1-1.89,6.174,13.074,13.074,0,0,1-.882,1.1.518.518,0,0,0-.162.378.554.554,0,0,0,.54.54.518.518,0,0,0,.378-.162,12.451,12.451,0,0,0,3.078-8.028,3.839,3.839,0,0,0-1.62-3.222c.054-.576.072-1.152.072-1.728v-.522a38.281,38.281,0,0,1,5.184.486h.09A.522.522,0,0,0,195.938,31.778Zm-7.02,2.9c-.18,1.4-.972,5.526-2.88,5.526-.954,0-1.116-1.152-1.116-1.89,0-1.476,1.224-3.816,2.916-3.816A3.164,3.164,0,0,1,188.918,34.676ZM209.24,40.76a.5.5,0,0,0-.2-.4c0-.108.018-.216.018-.324,0-1.548-1.566-3.186-2.772-4,.612-.612,2.484-2.88,2.484-3.672,0-1.008-1.746-1.53-2.52-1.71a.351.351,0,0,0-.144-.018.522.522,0,0,0-.522.522.542.542,0,0,0,.414.54,4.6,4.6,0,0,1,1.674.7,14.316,14.316,0,0,1-2.556,3.258.509.509,0,0,0-.342.5.553.553,0,0,0,.432.522,5.186,5.186,0,0,1,2.772,3.222,6.416,6.416,0,0,0-1.656-.2c-1.386,0-3.438.45-3.438,2.2a2.114,2.114,0,0,0,2.2,2.088,3.967,3.967,0,0,0,3.78-2.718A.563.563,0,0,0,209.24,40.76Zm-1.422.216a2.864,2.864,0,0,1-2.736,1.962,1.063,1.063,0,0,1-1.134-1.026c0-.954,1.674-1.134,2.358-1.134A5.369,5.369,0,0,1,207.818,40.976Zm20.268-5.4c0-1.89-4.518-2.592-5.9-2.682h-.054a.533.533,0,0,0-.072,1.062c.558.09,1.134.162,1.692.27.432.072,3.258.72,3.258,1.35a.554.554,0,0,0,.54.54A.53.53,0,0,0,228.086,35.576Zm.576,5.94a.53.53,0,0,0-.54-.54.306.306,0,0,0-.126.018,11.231,11.231,0,0,1-2.448.288,10,10,0,0,1-4.662-1.116c-.27-.144-.522-.324-.774-.486a.54.54,0,0,0-.864.432.513.513,0,0,0,.216.432,4,4,0,0,0,.882.54,11.226,11.226,0,0,0,5.22,1.26,10.175,10.175,0,0,0,2.664-.306A.538.538,0,0,0,228.662,41.516Zm17.406.954a.554.554,0,0,0-.54-.54.535.535,0,0,0-.36.144,4.61,4.61,0,0,1-2.628,1.08c-.954,0-2.52-.18-2.52-1.44,0-1.836,2.538-3.456,4.1-3.96a5.885,5.885,0,0,1,.81-.18.541.541,0,0,0-.054-1.08,6.858,6.858,0,0,0-2.592.9,9.861,9.861,0,0,1-.648-3.762,9.725,9.725,0,0,1,.27-2.376.4.4,0,0,0,.018-.144.53.53,0,0,0-.54-.54.557.557,0,0,0-.522.4,9.143,9.143,0,0,0-.306,2.628,10.98,10.98,0,0,0,.81,4.374,4.916,4.916,0,0,0-2.43,3.744c0,1.962,1.98,2.5,3.6,2.5a5.846,5.846,0,0,0,3.348-1.332A.521.521,0,0,0,246.068,42.47Zm22.356-12.06a.581.581,0,0,0-.144-.378,8.742,8.742,0,0,1-.63-.954.56.56,0,0,0-.468-.27.542.542,0,0,0-.54.54,4.657,4.657,0,0,0,.828,1.4.62.62,0,0,0,.414.18A.527.527,0,0,0,268.424,30.41Zm-1.98,1.152c0-.522-.576-.432-.576-1.26a.53.53,0,0,0-.54-.54.554.554,0,0,0-.54.54,2,2,0,0,0,.756,1.674.55.55,0,0,0,.36.126A.53.53,0,0,0,266.444,31.562Zm-2.646,1.71a.534.534,0,0,0-.522-.522c-.216-.036-.468,0-.7-.018h-2.646c-.81,0-1.6,0-2.394.018a9.536,9.536,0,0,0-1.242.018.542.542,0,0,0-.522.558.554.554,0,0,0,.558.522c1.692,0,3.366-.054,5.058-.054-1.584,1.368-3.294,3.888-3.294,6.048a4.46,4.46,0,0,0,2.322,4.32.635.635,0,0,0,.252.054.538.538,0,0,0,.54-.522c0-.234-.126-.342-.306-.468a4.568,4.568,0,0,1-.612-.414,3.849,3.849,0,0,1-1.116-2.97c0-1.908,1.854-4.5,3.366-5.58a5.158,5.158,0,0,1,.882-.468A.54.54,0,0,0,263.8,33.272Z" transform="translate(45 4340)" fill="#4a3a3d" stroke="#4a3a3d" stroke-width="0.5"/>
    </g>
    <rect id="長方形_31" data-name="長方形 31" width="95" height="7" rx="3.5" transform="translate(64 4488)" fill="#fdff92"/>
    <path id="パス_2298" data-name="パス 2298" d="M102.425,14.325a.662.662,0,0,0-.625-.675,15.709,15.709,0,0,0-2.175-.05H98.45a27.206,27.206,0,0,0,.8-2.725.7.7,0,0,0-1.375-.175c-.3,1-.575,1.975-.9,2.975a11.711,11.711,0,0,0-2.675.4.675.675,0,0,0-.475.65.715.715,0,0,0,.7.7.73.73,0,0,0,.225-.05,8.009,8.009,0,0,1,1.725-.275,74.462,74.462,0,0,1-3.5,8.825.692.692,0,0,0-.075.325.672.672,0,0,0,.675.675.685.685,0,0,0,.625-.35A31.451,31.451,0,0,0,95.7,21.2c.8-2.025,1.55-4.1,2.275-6.175.625-.025,1.275-.05,1.9-.05.375,0,.75.025,1.1.025-.2,1.9-.625,5.275-1.525,6.975a1.812,1.812,0,0,1-.85.925.668.668,0,0,0-.45.625.7.7,0,0,0,.7.725.73.73,0,0,0,.225-.05c2.625-.95,3.25-7.55,3.35-9.8Zm.8,8.95a.7.7,0,0,0-.725-.7.69.69,0,0,0-.65.5,3.091,3.091,0,0,1-.925,1.05,10.675,10.675,0,0,1-6.4,2.325,6.47,6.47,0,0,1-3.675-.875,2.241,2.241,0,0,1-.45-.375,11.642,11.642,0,0,1-.25-2.85q0-.975.075-1.95c.4-.025.825-.025,1.225-.025.175,0,.35.025.525.025a.7.7,0,0,0,.675-.475,51.517,51.517,0,0,0,.575-5.2v-.1c.075-.9-1.425-.75-2.025-.75-.975,0-1.95.025-2.925.025H88.25c.575-.55,3.35-3.475,3.35-4.15,0-1.1-2.35-1.45-3.175-1.625a.673.673,0,0,0-.675-.575.631.631,0,0,0-.425.15A36.134,36.134,0,0,0,83.4,11.6a.631.631,0,0,0-.15.425.715.715,0,0,0,.7.7.675.675,0,0,0,.55-.25,39.1,39.1,0,0,1,3-3.1,13.436,13.436,0,0,1,2.45.575c-1.125,1.475-2.5,2.725-3.75,4.075-.45.05-.925.1-1.375.175a.645.645,0,0,0-.625-.45.669.669,0,0,0-.7.625,13.252,13.252,0,0,0-.075,1.425c-.05.975-.075,1.95-.1,2.925-.025.625-.05,1.225-.05,1.85a.689.689,0,0,0,1.375.1c.5-.025.975-.05,1.475-.1-.125.275-.3.525-.45.8a56.905,56.905,0,0,1-3.175,5.15.779.779,0,0,0-.175.45.694.694,0,0,0,.7.675.747.747,0,0,0,.525-.25,38.787,38.787,0,0,0,3.325-5.35,13.622,13.622,0,0,0,.875-1.55l1.1-.05c-.05.75-.075,1.5-.075,2.275s.025,2.8.575,3.4c1.3,1.375,3.375,1.7,5.175,1.7a10.838,10.838,0,0,0,3.1-.475c1.675-.5,5-2.05,5.575-3.9A.425.425,0,0,0,103.225,23.275ZM91.775,15.25c-.175,1.25-.225,2.475-.375,3.725-.9,0-1.825.05-2.725.1q.112-1.913.15-3.825c.525,0,1.05-.025,1.6-.025h.425C91.15,15.225,91.475,15.225,91.775,15.25Zm-4.325.075c-.05,1.275-.1,2.525-.175,3.8-.85.05-1.725.075-2.575.175,0-.175.025-.375.025-.55.075-1.05.05-2.125.1-3.175h.1C85.75,15.45,86.6,15.375,87.45,15.325ZM128.7,27.65a24.319,24.319,0,0,0-.925-5.05.7.7,0,0,0-1.35.25c0,.225.3,1.125.35,1.425-1.6.125-3.2.35-4.775.575.1-1.075.15-2.125.175-3.2,1.225-.05,2.45-.125,3.675-.125a.745.745,0,0,0,.45-.2h.025a.448.448,0,0,0,.125-.175l.025-.025V21.1a34.368,34.368,0,0,0,1.175-4.925.72.72,0,0,0-.525-.675,14.516,14.516,0,0,0-2.775-.2c-.675,0-1.375.025-2.05.05.025-.75.025-1.475.025-2.225a.653.653,0,0,0-.25-.5c1.075-.125,2.175-.175,3.25-.325a2.842,2.842,0,0,1,.25.9.689.689,0,0,0,.7.65.705.705,0,0,0,.675-.75,9.828,9.828,0,0,0-1.875-4.05.757.757,0,0,0-.55-.25.694.694,0,0,0-.675.7.679.679,0,0,0,.15.425c.25.35.475.675.7,1.05-2.075.275-4.2.35-6.275.625.6-1.15,1.2-2.275,1.85-3.4a.674.674,0,0,0,.125-.375.7.7,0,0,0-1.25-.425,36.236,36.236,0,0,0-2.625,5.05.672.672,0,0,0,.675.675h.125c.375,0,.8-.125,1.175-.15.85-.1,1.725-.2,2.6-.275a.871.871,0,0,0-.15.425c0,.775,0,1.525-.025,2.3-1.2.075-2.425.125-3.625.3a.7.7,0,0,0-.65-.65c-.8,0-.7.8-.7,1.35a40.769,40.769,0,0,0,.275,5.625.68.68,0,0,0,1.325,0,20.145,20.145,0,0,1,3.25-.3c-.05,1.1-.075,2.2-.2,3.3-1,.15-1.975.3-2.975.5a8,8,0,0,0-1.525.375.7.7,0,0,0-.45.65.663.663,0,0,0,.7.675.73.73,0,0,0,.225-.05,26.541,26.541,0,0,1,3.975-.75c2.15-.325,4.325-.625,6.5-.825.1.7.2,1.375.25,2.075a.673.673,0,0,0,.7.65A.684.684,0,0,0,128.7,27.65ZM115.175,8.825a.669.669,0,0,0-.3-.575,8.189,8.189,0,0,0-2.95-.4,12.77,12.77,0,0,0-2.4.15.679.679,0,0,0,.125,1.35h.125a13.766,13.766,0,0,1,2.025-.125,16.981,16.981,0,0,1,1.95.1,15.985,15.985,0,0,1-.85,3.3,22.527,22.527,0,0,0-3.925.15.673.673,0,0,0-.55.675.681.681,0,0,0,.225.525,27.794,27.794,0,0,0-.3,3.8c0,.5.025,1.1.7,1.1h.15a19.94,19.94,0,0,1,3-.2c.225,0,.425.025.65.025-.1,1.9-.925,6.275-2.55,7.425a4.221,4.221,0,0,1-.925-1.075.7.7,0,0,0-1.35.25,3.578,3.578,0,0,0,2.325,2.275.5.5,0,0,0,.275-.075,3.958,3.958,0,0,0,1.2-.925c1.575-1.875,2.425-5.975,2.425-8.4,0-1-1.3-.85-2-.85-.85,0-1.675.025-2.525.1q.075-1.687.3-3.375c.65-.05,1.3-.05,1.95-.05.675,0,1.35.05,2.025.05a.694.694,0,0,0,.7-.675.706.706,0,0,0-.375-.625A17.753,17.753,0,0,0,115.175,8.825ZM126.15,16.75a31.944,31.944,0,0,1-.8,3.4l-3.125.125.075-3.55c.65-.025,1.3-.025,1.95-.025C124.875,16.7,125.525,16.7,126.15,16.75Zm-5.225.05-.075,3.55c-1.125.075-2.275.15-3.4.325-.1-1.2-.125-2.375-.15-3.575C118.5,16.95,119.725,16.85,120.925,16.8Zm33.55-1.95c0-.875-1.2-.75-1.775-.75-1.05,0-2.1.05-3.15.1a20.073,20.073,0,0,0,.55-2.825.717.717,0,0,0-1.425-.125c-.075.325-.125.65-.175.975-.15.7-.275,1.375-.45,2.05a15.3,15.3,0,0,0-2.45.275.723.723,0,0,0,.175,1.425c.05,0,.125-.025.175-.025a13.892,13.892,0,0,1,1.75-.2c-.85,3.35-2,7.65-3.75,10.625a.744.744,0,0,0-.125.375.72.72,0,0,0,.725.7.782.782,0,0,0,.625-.325c1.675-2.45,3.325-8.5,4.05-11.475,1.05-.05,2.125-.1,3.175-.1h.525l-.125.775c-.4,2.6-1.225,8.125-2.35,10.3a5.242,5.242,0,0,1-1.65-.775.7.7,0,0,0-.45-.15.726.726,0,0,0-.725.725A.711.711,0,0,0,147.9,27a6.246,6.246,0,0,0,2.925,1.1.734.734,0,0,0,.575-.3c1.4-1.825,2.45-8.85,2.825-11.25A14.708,14.708,0,0,0,154.475,14.85Zm-14.75-4.225A11.277,11.277,0,0,0,138.2,6.9a.709.709,0,0,0-.55-.25.726.726,0,0,0-.75.7.853.853,0,0,0,.175.475A12.072,12.072,0,0,1,138.3,10.75a.72.72,0,0,0,1.425-.125ZM144.7,18.05a.747.747,0,0,0-.275-.575c-.575-.475-2.975-2.15-3.575-2.15a.734.734,0,0,0-.3,1.4,17.521,17.521,0,0,1,2.975,1.875.709.709,0,0,0,1.175-.55Zm.175-5.45c0-.875-1.125-.725-1.7-.725-1.95,0-9.95.25-11.425.775a.7.7,0,0,0-.5.675.731.731,0,0,0,.725.75c.05,0,.15-.025.2-.025a35.4,35.4,0,0,1,4.875-.5c2.075-.125,4.175-.25,6.25-.25.275,0,.575.025.875.025A.7.7,0,0,0,144.875,12.6Zm-7.025,2.475a.726.726,0,0,0-.725-.725.688.688,0,0,0-.675.425,28.323,28.323,0,0,1-3.75,5.2.743.743,0,0,0,.525,1.25A.72.72,0,0,0,133.75,21C134.475,20.275,137.85,15.9,137.85,15.075Zm5.125,10.675a.7.7,0,0,0-.275-.55c-.275-.275-.625-.5-.925-.75-.675-.575-1.4-1.15-2.1-1.7a12.617,12.617,0,0,0,1.475-4.025.684.684,0,0,0-.725-.675.7.7,0,0,0-.7.6,11.247,11.247,0,0,1-1.2,3.2c-.35-.275-1.775-1.45-2.2-1.45a.747.747,0,0,0-.725.75.736.736,0,0,0,.325.6c.625.45,1.25.875,1.85,1.35a15.6,15.6,0,0,1-3.95,4.525.726.726,0,0,0-.35.6.764.764,0,0,0,.725.75.755.755,0,0,0,.4-.125c1.5-.875,3.4-3.4,4.325-4.85l1.95,1.575c.3.25.6.5.9.725a.66.66,0,0,0,.475.175A.76.76,0,0,0,142.975,25.75Zm34.675-13.3a.7.7,0,0,0-.725-.7.77.77,0,0,0-.325.075,23.755,23.755,0,0,0-3.125,2.15.789.789,0,0,0-.175.475.708.708,0,0,0,1.225.475,18.888,18.888,0,0,1,2.75-1.85A.706.706,0,0,0,177.65,12.45Zm.925,5.625a.693.693,0,0,0-.55-.675,28.644,28.644,0,0,1-3.5-1.15,1.063,1.063,0,0,0-.275-.05.742.742,0,0,0-.725.725.709.709,0,0,0,.425.625,27.454,27.454,0,0,0,3.925,1.275A.726.726,0,0,0,178.575,18.075Zm-.725-8a.685.685,0,0,0-.625-.7A7.855,7.855,0,0,0,175.9,9.3c-1.025-.025-2.05-.05-3.075-.05-1.4,0-2.775.025-4.175.05a19.337,19.337,0,0,1-.2-2.7.713.713,0,0,0-1.425,0,20.35,20.35,0,0,0,.2,2.75c-2.025.05-4.05.125-6.05.3a12.888,12.888,0,0,0-2.425.35.72.72,0,0,0-.525.7.684.684,0,0,0,.7.7.426.426,0,0,0,.175-.025A17.842,17.842,0,0,1,162.15,11c1.7-.1,3.375-.175,5.075-.225a10.913,10.913,0,0,0-1.7,2.625.7.7,0,0,0,.6.7c.65.15,1.3.3,1.95.475l-2.1,2.05A14.535,14.535,0,0,0,164.9,17.7a.66.66,0,0,0-.175.475.7.7,0,0,0,.7.7h.1c.8,0,1.625-.175,2.425-.25,1.225-.1,2.475-.2,3.7-.375.2.475.2,1.125.9,1.125a.715.715,0,0,0,.7-.7,10.42,10.42,0,0,0-1.525-3.3.7.7,0,0,0-1.25.45c0,.35.4.75.55,1.075-1.225.15-2.475.2-3.7.375.575-.55,1.15-1.125,1.75-1.675l.85-.825a.735.735,0,0,0,.225-.55.668.668,0,0,0-.45-.625,14.315,14.315,0,0,0-2.3-.675c.525-.75,1.1-1.475,1.65-2.2,1.2-.025,2.425-.05,3.625-.05,1.45,0,2.925.05,4.4.125h.075A.721.721,0,0,0,177.85,10.075ZM164,14.65a.735.735,0,0,0-.225-.55,11.848,11.848,0,0,0-3.4-1.375.738.738,0,0,0-.7.725.693.693,0,0,0,.55.675,12.035,12.035,0,0,1,2.6,1.05.66.66,0,0,0,.475.175A.715.715,0,0,0,164,14.65Zm12.85,7.375a.722.722,0,0,0-.675-.75,16.488,16.488,0,0,0-1.925-.025c-1.825,0-3.675.05-5.5.1,0-.6.025-1.175.025-1.775a.7.7,0,0,0-1.4-.05,15.935,15.935,0,0,0-.05,1.9c-1.275.05-6.4.2-7.45.55a.7.7,0,0,0-.525.675.72.72,0,0,0,.7.725c.05,0,.125-.025.175-.025a29.477,29.477,0,0,1,2.95-.3c1.375-.1,2.775-.175,4.15-.225,0,1.95.05,3.875.05,5.825a.7.7,0,1,0,1.4,0V27.025c0-1.425-.025-2.825-.025-4.25,1.8-.05,3.6-.1,5.4-.1.65,0,1.3.025,1.95.025A.722.722,0,0,0,176.85,22.025ZM164.525,17.3a.726.726,0,0,0-.725-.725.666.666,0,0,0-.3.075,28.7,28.7,0,0,1-4.275,1.225.706.706,0,0,0,.15,1.4A31.15,31.15,0,0,0,164.1,17.95.745.745,0,0,0,164.525,17.3ZM203.8,21.1a.774.774,0,0,0-.6-.75,19.069,19.069,0,0,0-2.9-.525c.05-.575.05-1.15.05-1.725,0-1.575-.075-3.15-.2-4.725.475.025,1,.1,1.475.1a.739.739,0,0,0,.05-1.475c-.55-.075-1.1-.1-1.65-.125-.05-.6.025-1.75-.825-1.75a.752.752,0,0,0-.75.75c0,.325.075.675.1,1-1.475.05-3.75.3-4.85,1.425a.72.72,0,0,0-.225.525.769.769,0,0,0,.75.75.807.807,0,0,0,.525-.2,6.484,6.484,0,0,1,3.925-1.025c.125,1.55.2,3.125.2,4.7,0,.525,0,1.075-.05,1.6-.425-.025-.825-.05-1.25-.05-1.525,0-4.45.325-4.45,2.425,0,1.875,1.75,2.9,3.45,2.9,1.75,0,2.975-2.225,3.45-3.65a27.231,27.231,0,0,1,2.85.525.425.425,0,0,0,.175.025A.747.747,0,0,0,203.8,21.1Zm-15.525,4.125a.726.726,0,0,0-.725-.725c-.375,0-1.2.6-1.625.775a7.393,7.393,0,0,1-.5-3.15,31.841,31.841,0,0,1,1.525-9.475.9.9,0,0,0,.05-.275.737.737,0,0,0-1.425-.275c-.975,2.25-1.65,7.525-1.65,10.1,0,1.125.1,4.6,1.9,4.6a3.365,3.365,0,0,0,1.575-.65c.15-.1.325-.15.475-.25A.788.788,0,0,0,188.275,25.225Zm10.225-4.1c-.225.65-1.1,2.325-1.925,2.325-.85,0-1.975-.4-1.975-1.425,0-.15.125-.25.225-.35a5.171,5.171,0,0,1,2.75-.6C197.875,21.075,198.2,21.1,198.5,21.125ZM35.8,43.375c0-1.975-2.6-2.9-4.225-2.9a7.322,7.322,0,0,0-1.95.25c-1.15.275-2.975,1.15-2.975,2.55A2.265,2.265,0,0,0,28.125,45.4a.666.666,0,0,0,.3.075.774.774,0,0,0,.775-.75c0-.875-1.05-.625-1.05-1.45,0-.125.2-.325.3-.4a5.312,5.312,0,0,1,3.125-.9,3.532,3.532,0,0,1,2.5.925.845.845,0,0,1,.225.475,11.734,11.734,0,0,1-1.8,2.775c-1.325,1.7-2.775,3.3-4.2,4.925l-2.1,2.4c-.275.35-.6.7-.875,1.05A.789.789,0,0,0,25.15,55a.737.737,0,0,0,.75.75h.125c.5-.05,1.025-.15,1.525-.2,1.325-.1,2.65-.1,3.975-.125.65,0,3.4.025,3.925-.375a.744.744,0,0,0-.4-1.375.8.8,0,0,0-.35.075,22.073,22.073,0,0,1-3.2.175c-1.275.025-2.525.025-3.8.125l1.725-1.975L32.05,49.05C32.925,48,35.8,44.8,35.8,43.375ZM61.575,47.6a.69.69,0,0,0-.7-.725c-.45-.025-.9-.025-1.35-.025-.825,0-1.675.025-2.5.05a28.794,28.794,0,0,0,1.025-4.575h2.175a.725.725,0,0,0,0-1.45c-1.9,0-3.775.05-5.675.1a26.456,26.456,0,0,0-.425-4,.7.7,0,0,0-1.4.1V37.2a28.359,28.359,0,0,1,.4,3.825c-1.1.05-2.175.1-3.275.2a7.676,7.676,0,0,0-1.3.15.717.717,0,0,0,.1,1.425h.125c.625-.05,1.275-.15,1.9-.2-.025.65-.025,1.3-.025,1.925,0,.9,0,1.8.075,2.7a24.354,24.354,0,0,0-3.025.35A.72.72,0,0,0,47.825,49h.125c.8-.1,1.575-.225,2.375-.3,3.15-.275,6.375-.4,9.55-.4C60.45,48.3,61.575,48.5,61.575,47.6Zm-2.1,9.225a.717.717,0,0,0-.6-.65,20.416,20.416,0,0,0,.4-4.625v-.3a.711.711,0,0,0-.675-.7,14.033,14.033,0,0,0-1.45-.025,51.894,51.894,0,0,0-6.225.3l.025-.1v-.1a.71.71,0,0,0-.725-.725.723.723,0,0,0-.7.625,19.257,19.257,0,0,0-.175,3.4,26.5,26.5,0,0,0,.25,4.05.728.728,0,0,0,.7.5A.744.744,0,0,0,51,57.9c1.825-.15,3.65-.2,5.475-.25.775-.025,1.575,0,2.325-.075A.705.705,0,0,0,59.475,56.825ZM47.725,38.7a.694.694,0,0,0-.7-.675.747.747,0,0,0-.625.325,13.958,13.958,0,0,0-.8,1.3l-1.575,2.575c-.9,1.5-1.825,3-2.75,4.475-.375.625-.8,1.225-1.175,1.85a.755.755,0,0,0-.125.4.726.726,0,0,0,.725.725.613.613,0,0,0,.575-.325,11.131,11.131,0,0,0,.825-1.275c.575-.875,1.1-1.75,1.65-2.65.05,1.35.05,2.725.05,4.075,0,2.7-.1,5.425-.275,8.125v.1a.685.685,0,0,0,.625.7.71.71,0,0,0,.8-.625,17.018,17.018,0,0,0,.175-2.55c.1-1.9.125-3.775.125-5.675,0-2.1,0-4.2-.175-6.3a1.864,1.864,0,0,1,.175-.3l1.475-2.425c.275-.475.6-.95.875-1.425A.775.775,0,0,0,47.725,38.7ZM56.6,42.35a24.173,24.173,0,0,1-1.1,4.6c-1.125.05-2.225.1-3.35.175-.05-.725-.05-1.45-.05-2.2v-.5c0-.625,0-1.275.025-1.9C53.625,42.45,55.1,42.4,56.6,42.35Zm1.25,9.6a19.938,19.938,0,0,1-.45,4.25c-.325.025-.65.025-.975.025-1.85.05-3.7.1-5.55.275-.05-.875-.075-1.775-.075-2.65,0-.525,0-1.025.025-1.55a43.4,43.4,0,0,1,6.5-.35Zm29.575,3.175a.759.759,0,0,0-.4-.675l-.475-.275c-.35-.225-.65-.45-.975-.7a31.447,31.447,0,0,1-5.75-6.45,62.335,62.335,0,0,1,3.05-6.55.755.755,0,0,0,.125-.4.774.774,0,0,0-.75-.775.713.713,0,0,0-.625.35c-1.25,1.7-6.875,15.55-6.875,17.375,0,.3.275.725.6.725a.764.764,0,0,0,.875-.625l.15-.625.375-1.325c.725-2.2,1.55-4.35,2.425-6.5,1.675,2.325,4.55,5.775,7.125,7.1a.814.814,0,0,0,.35.1A.774.774,0,0,0,87.425,55.125ZM75.125,47.7a.743.743,0,0,0-.2-.5,11.077,11.077,0,0,1-1.9-3.75.7.7,0,0,0-.7-.525.758.758,0,0,0-.775.75.55.55,0,0,0,.025.2,12.654,12.654,0,0,0,2.25,4.35.757.757,0,0,0,.55.25A.774.774,0,0,0,75.125,47.7Zm-1.65,2.675a.731.731,0,0,0-.75-.725.776.776,0,0,0-.55.225l-.825.775a26.813,26.813,0,0,1-3.475,2.525c-.125-1.4-.125-2.825-.125-4.225,0-2.15.1-4.275.1-6.4a.77.77,0,0,0-.725-.775.757.757,0,0,0-.775.75c-.05.65-.025,1.325-.05,1.975-.025,1.4-.05,2.8-.05,4.225a37.6,37.6,0,0,0,.225,5.3c-.55.3-1.075.55-1.65.8a.728.728,0,0,0-.5.7.752.752,0,0,0,.75.75.451.451,0,0,0,.25-.05,14.223,14.223,0,0,0,1.4-.65c.275-.125.525-.3.775-.425l.3-.15c.375-.25.75-.45,1.125-.7a24.8,24.8,0,0,0,4.325-3.375A.735.735,0,0,0,73.475,50.375Zm38.475,5.95a.743.743,0,0,0-.7-.75,8.031,8.031,0,0,0-1.35-.05c-.95-.025-1.9-.05-2.85-.05-2.175,0-4.325.05-6.475.1.3-2.95.3-6.15.3-9.125a34.9,34.9,0,0,1,5.625-.3,8.082,8.082,0,0,0,1.1-.025.716.716,0,0,0,.725-.75.769.769,0,0,0-.75-.75c-.375,0-.725.025-1.1.025a38.042,38.042,0,0,0-5.6.3c0-1.425,0-2.875-.025-4.3-.025-.475.025-1.35-.05-1.775s-.3-.725-.75-.725a.753.753,0,0,0-.725.775c0,1.9.075,3.8.075,5.675,0,2.2-.025,4.4-.1,6.575a37.209,37.209,0,0,1-.25,4.425c-2.05.075-4.075.15-6.125.325a19.335,19.335,0,0,0-2.725.3.749.749,0,0,0-.625.725.769.769,0,0,0,.75.75c.05,0,.075-.025.125-.025a45.392,45.392,0,0,1,6.375-.55c2.925-.125,5.825-.175,8.725-.175,1.875,0,3.75.025,5.6.1h.05A.716.716,0,0,0,111.95,56.325ZM134.075,44c0-1.375-1.875-1.575-2.9-1.575a8.16,8.16,0,0,0-2.325.325.751.751,0,0,0-.525.7.774.774,0,0,0,.75.775.74.74,0,0,0,.25-.05,6.07,6.07,0,0,1,1.775-.225,5.046,5.046,0,0,1,1.375.15.692.692,0,0,0-.075.325.752.752,0,0,0,.75.75C133.725,45.175,134.075,44.5,134.075,44Zm-.575,8.7a.752.752,0,0,0-.5-.7,8.331,8.331,0,0,1-3.575-2.925.759.759,0,0,0-.675-.4.731.731,0,0,0-.75.725c0,1.15,3.65,4.05,4.75,4.05A.752.752,0,0,0,133.5,52.7Zm-12.125-9.275a.766.766,0,0,0-1.425-.375c-1.325,2.225-2.175,7-2.175,9.575a7.55,7.55,0,0,0,.425,2.8.743.743,0,0,0,.7.45,4.143,4.143,0,0,0,1.575-.575.736.736,0,0,0,.325-.6.774.774,0,0,0-.75-.775c-.25,0-.45.175-.675.25a7.692,7.692,0,0,1-.125-1.525,21.615,21.615,0,0,1,2.025-8.85A.927.927,0,0,0,121.375,43.425Zm40.575,12.9a.743.743,0,0,0-.7-.75,8.03,8.03,0,0,0-1.35-.05c-.95-.025-1.9-.05-2.85-.05-2.175,0-4.325.05-6.475.1.3-2.95.3-6.15.3-9.125a34.9,34.9,0,0,1,5.625-.3,8.082,8.082,0,0,0,1.1-.025.716.716,0,0,0,.725-.75.769.769,0,0,0-.75-.75c-.375,0-.725.025-1.1.025a38.042,38.042,0,0,0-5.6.3c0-1.425,0-2.875-.025-4.3-.025-.475.025-1.35-.05-1.775s-.3-.725-.75-.725a.753.753,0,0,0-.725.775c0,1.9.075,3.8.075,5.675,0,2.2-.025,4.4-.1,6.575a37.207,37.207,0,0,1-.25,4.425c-2.05.075-4.075.15-6.125.325a19.335,19.335,0,0,0-2.725.3.749.749,0,0,0-.625.725.769.769,0,0,0,.75.75c.05,0,.075-.025.125-.025a45.392,45.392,0,0,1,6.375-.55c2.925-.125,5.825-.175,8.725-.175,1.875,0,3.75.025,5.6.1h.05A.716.716,0,0,0,161.95,56.325ZM187.35,37.1c0-.6-1.075-1.525-1.625-1.525a.731.731,0,0,0-.725.75c0,.725.675.625.95,1.1a.678.678,0,0,0,.65.425A.769.769,0,0,0,187.35,37.1Zm-2.625,2.725a.713.713,0,0,0-.35-.625c-.325-.2-1.1-.825-1.425-.825a.765.765,0,0,0-.75.725.839.839,0,0,0,.275.575,4.893,4.893,0,0,0,1.5.9A.769.769,0,0,0,184.725,39.825Zm-.3,10.525a.706.706,0,0,0-.1-.375,18.8,18.8,0,0,0-1.425-2.05,41.638,41.638,0,0,0-2.575-3.3A.746.746,0,0,0,179,45.1a.789.789,0,0,0,.175.475c.6.775,1.225,1.5,1.825,2.275.7.95,1.375,1.9,2.05,2.875a.754.754,0,0,0,.65.35A.726.726,0,0,0,184.425,50.35Zm-8.05-2.6c0-2.425-2.025-2.975-4.05-3.15a9.617,9.617,0,0,0,.625-1.65.769.769,0,0,0-.75-.75.728.728,0,0,0-.7.5c-.275.625-.5,1.25-.75,1.875-.725,0-1.575,0-2.275.075a.725.725,0,0,0-.7.75.747.747,0,0,0,.75.725c.5,0,1.025-.05,1.525-.05a39.459,39.459,0,0,1-4.675,7.525c-.425.5-.875.975-1.325,1.45a.743.743,0,0,0,.525,1.25.807.807,0,0,0,.525-.2c2.575-2.45,5.1-6.825,6.6-10.05.825.025,2.8.15,3.125,1.075a1.817,1.817,0,0,1,.1.625c0,1.15-1.175,4.35-2.15,4.925-.525-.175-.75-.8-1.3-.8a.752.752,0,0,0-.75.75c0,.75,1.4,1.525,2.075,1.525.775,0,1.4-.775,1.8-1.35A10.089,10.089,0,0,0,176.375,47.75Zm29.6-5.125a.736.736,0,0,0-.75-.75.755.755,0,0,0-.75.65c-.075.325-.1.65-.15,1-.1.675-.225,1.325-.35,2a41.519,41.519,0,0,1-3.05,10.075,1.048,1.048,0,0,0-.1.375.767.767,0,0,0,1.425.35,7.87,7.87,0,0,0,.675-1.475,43.629,43.629,0,0,0,3.05-12.125Zm-6.35-1.725a.752.752,0,0,0-.75-.75.782.782,0,0,0-.625.325A15.846,15.846,0,0,0,196.3,47.7c0,.7.125,2.7,1.125,2.7.575,0,1.475-.825,1.925-1.2a.744.744,0,0,0-.525-1.3c-.375,0-.725.4-1,.625a3.911,3.911,0,0,1-.05-.775A14.2,14.2,0,0,1,199.5,41.3.755.755,0,0,0,199.625,40.9Zm31.65,4.75a.726.726,0,0,0-.725-.725.692.692,0,0,0-.225.025,11.525,11.525,0,0,1-2.6.425c-.025-.975-.05-1.95-.05-2.925A8.27,8.27,0,0,1,229,42.9a.586.586,0,0,0,.3.05.734.734,0,0,0,.325-1.4,8.807,8.807,0,0,0-1.95-.6c0-.575.225-1.75-.675-1.75-.875,0-.8.9-.8,1.525-.55-.05-1.1-.075-1.675-.075a9.988,9.988,0,0,0-1.725.1.749.749,0,0,0-.625.725.731.731,0,0,0,.725.75h.1a9.75,9.75,0,0,1,1.475-.1c.575,0,1.15.05,1.725.1,0,1.075.025,2.15.05,3.225-.525,0-1.05.025-1.575.025-.975,0-1.95-.075-2.9-.075a.7.7,0,0,0-.775.7.732.732,0,0,0,.7.775c1.05.075,2.125.075,3.175.075.475,0,.95,0,1.425-.025l.05,1.45c.025.9.1,1.775.1,2.675a9.863,9.863,0,0,0-2.575-.375c-1.7,0-3.35.525-3.35,2.5,0,1.675,2,3,3.55,3,1.875,0,3-1.425,3.5-3.1a2.828,2.828,0,0,1,1.225,1,.761.761,0,0,0,.675.45.787.787,0,0,0,.75-.75c0-.9-1.625-1.875-2.325-2.2V51.45c-.025-1.525-.05-3.075-.125-4.6a11.058,11.058,0,0,0,3-.475A.76.76,0,0,0,231.275,45.65ZM226.2,52.525c-.275,1.05-.875,2.175-2.125,2.175-.7,0-2.075-.725-2.075-1.525,0-1,1.1-1.025,1.875-1.025A8.219,8.219,0,0,1,226.2,52.525Zm35.425-12.5a.727.727,0,0,0-.6-.725,17.563,17.563,0,0,0-2.3-.325c-1.75-.2-3.5-.325-5.25-.4a11.722,11.722,0,0,0-.3-1.875.7.7,0,0,0-.7-.575.774.774,0,0,0-.775.75c0,.35.225,1.2.275,1.675h-.4a59.277,59.277,0,0,0-10.075.775,15.428,15.428,0,0,0-2.375.5.721.721,0,0,0-.55.7.769.769,0,0,0,.75.75.425.425,0,0,0,.175-.025,46.849,46.849,0,0,1,11.8-1.2h.775v.65c0,.6-.025,1.225-.05,1.825a6.11,6.11,0,0,0-1.65-.225c-3.2,0-5.55,3.9-5.55,6.8,0,1.925.775,4.125,3.05,4.125,3.6,0,4.925-5.5,5.375-8.25a4.1,4.1,0,0,1,1,2.7,16.767,16.767,0,0,1-2.625,8.575,18.157,18.157,0,0,1-1.225,1.525.719.719,0,0,0-.225.525.769.769,0,0,0,.75.75.72.72,0,0,0,.525-.225c2.625-2.575,4.275-7.5,4.275-11.15a5.332,5.332,0,0,0-2.25-4.475c.075-.8.1-1.6.1-2.4v-.725a53.168,53.168,0,0,1,7.2.675h.125A.726.726,0,0,0,261.625,40.025Zm-9.75,4.025c-.25,1.95-1.35,7.675-4,7.675-1.325,0-1.55-1.6-1.55-2.625,0-2.05,1.7-5.3,4.05-5.3A4.395,4.395,0,0,1,251.875,44.05Z" transform="translate(45 4434)" fill="#ff7fb2" stroke="#ff7fb2" stroke-width="0.5"/>
  </g>
</svg>
