<svg xmlns="http://www.w3.org/2000/svg" width="341.705" height="132.648" viewBox="0 0 341.705 132.648">
  <g id="グループ_157" data-name="グループ 157" transform="translate(-17.147 -6028.158)">
    <g id="グループ_67" data-name="グループ 67" transform="translate(18 6064)">
      <path id="パス_1" data-name="パス 1" d="M534.161,29.116V99.075h59.2L574.416,65.218l18.944-36.1Z" transform="translate(-253.36 -2.99)" fill="#ffffc0" stroke="#947f6f" stroke-width="1"/>
      <path id="パス_2" data-name="パス 2" d="M534.232,153.646v15.261l33.586-15.261Z" transform="translate(-253.394 -72.877)" fill="#947f6f" stroke="#947f6f" stroke-width="1"/>
      <path id="パス_3" data-name="パス 3" d="M0,29.116l18.944,36.1L0,99.075H59.2V29.116Z" transform="translate(0 -2.99)" fill="#ffffc0" stroke="#947f6f" stroke-width="1"/>
      <path id="パス_4" data-name="パス 4" d="M75.818,153.646,110.4,168.907V153.646Z" transform="translate(-51.243 -72.877)" fill="#947f6f" stroke="#947f6f" stroke-width="1"/>
      <rect id="長方形_7" data-name="長方形 7" width="289.849" height="80.77" transform="translate(24.575 0)" fill="#ffffc0" stroke="#947f6f" stroke-width="1"/>
    </g>
    <path id="パス_2300" data-name="パス 2300" d="M110.22,14.52a.589.589,0,0,0-.26-.48,22.921,22.921,0,0,0-2.2-1.18c.64-.5,1.32-.98,2-1.42a.539.539,0,0,0,.28-.48.551.551,0,0,0-.54-.54.742.742,0,0,0-.3.08,22.682,22.682,0,0,0-2.82,2.06.6.6,0,0,0-.16.4.539.539,0,0,0,.28.48,5.278,5.278,0,0,0,.58.3l1.66.86a6.742,6.742,0,0,0,.64.38.741.741,0,0,0,.3.08A.551.551,0,0,0,110.22,14.52Zm1.34-7.02a.555.555,0,0,0-.52-.58c-.92-.1-2.22-.06-3.16-.06h-1.36a7.278,7.278,0,0,0,.22-1.32.555.555,0,0,0-.56-.54.544.544,0,0,0-.54.5c-.08.46-.16.9-.26,1.36-1.58.02-3.18.04-4.76.1.02-.52.1-1.04.1-1.56a.566.566,0,0,0-.52-.56.543.543,0,0,0-.58.52A14.738,14.738,0,0,0,99.52,7c-1.04.04-2.08.08-3.14.14a12.967,12.967,0,0,0-1.52.12.546.546,0,0,0-.48.56.555.555,0,0,0,.56.54H95c.4,0,.8-.08,1.18-.1,1.12-.08,2.22-.12,3.32-.16a7.469,7.469,0,0,0,.14,1.64.553.553,0,0,0,.52.42.542.542,0,0,0,.56-.54c0-.04-.02-.1-.02-.14a6.79,6.79,0,0,1-.1-1.42c1.48-.04,2.98-.08,4.46-.1A4.909,4.909,0,0,1,104.58,9a.6.6,0,0,0-.1.32.565.565,0,0,0,.54.54.535.535,0,0,0,.46-.24,6.2,6.2,0,0,0,.74-1.66h1.46c.72,0,1.46,0,2.2.02.36,0,.74.04,1.1.04A.57.57,0,0,0,111.56,7.5Zm-1.38,9.86a.548.548,0,0,0-.52-.6,11.759,11.759,0,0,0-1.46-.04c-1.48,0-2.98.04-4.46.1v-.4c0-.32.02-.62.04-.94.28,0,.56-.02.84-.02a.482.482,0,0,0,.36.14.534.534,0,0,0,.48-.3,17.26,17.26,0,0,0,.56-4.64c0-.62-.72-.56-1.14-.56a10.818,10.818,0,0,0-2.54.22c.24-.26.48-.48.74-.72a.522.522,0,0,0,.2-.4.572.572,0,0,0-.56-.56.623.623,0,0,0-.36.14,12.672,12.672,0,0,0-1.88,2,.567.567,0,0,0-.08.26c-.04.54-.04,1.1-.04,1.62,0,.34.02.66.02,1a21.542,21.542,0,0,0-3.96,1.16.555.555,0,0,0-.32.52.534.534,0,0,0,.78.48,18.847,18.847,0,0,1,3.58-1.06c.04.46,0,1.48.66,1.48a.555.555,0,0,0,.56-.54.866.866,0,0,1-.02-.1,8.421,8.421,0,0,1,1-.08c0,.44-.02.9-.02,1.34-1.34.06-2.66.12-4,.26a14.446,14.446,0,0,0-2.08.28.545.545,0,0,0,.12,1.08h.1a4.422,4.422,0,0,0,.5-.1l.94-.12c1.44-.16,2.92-.24,4.38-.3V18a14.981,14.981,0,0,1-4.06,2.7c-.34.14-.68.26-1.02.38a.559.559,0,0,0-.38.52.551.551,0,0,0,.54.54.471.471,0,0,0,.16-.04,13.494,13.494,0,0,0,4.72-2.6c-.02.84-.02,1.7-.02,2.54a9.4,9.4,0,0,0,.02,1.3.544.544,0,0,0,.54.5.568.568,0,0,0,.56-.6c0-.32-.04-.64-.04-.96,0-.86.02-1.74.04-2.6,1.3.9,3.7,2.26,5.28,2.26a.559.559,0,0,0,.58-.54.538.538,0,0,0-.52-.56,12.354,12.354,0,0,1-5.3-2.5v-.42c1.46-.06,2.92-.08,4.4-.08.5,0,1.02.02,1.52.02A.535.535,0,0,0,110.18,17.36ZM100.1,12.4a.546.546,0,0,0-.16-.38,8.954,8.954,0,0,0-2.98-1.04.576.576,0,0,0-.58.56.556.556,0,0,0,.48.54,9.983,9.983,0,0,1,2.3.72.652.652,0,0,0,.38.16A.572.572,0,0,0,100.1,12.4Zm4.82-1.2-.04.86a32.385,32.385,0,0,0-3.42.26c0-.36.02-.7.04-1.06.1-.14.22-.28.34-.42a.525.525,0,0,0,.54.58.34.34,0,0,0,.14-.02A10.811,10.811,0,0,1,104.92,11.2Zm-.14,1.96c-.04.4-.08.8-.16,1.2-1.02.04-2.06.02-3.08.14l-.06-1.08C102.58,13.28,103.68,13.2,104.78,13.16Zm24.36-6.74a.564.564,0,0,0-.58-.56.6.6,0,0,0-.5.26,11.157,11.157,0,0,1-1.6,1.76.535.535,0,0,0-.24.46.58.58,0,0,0,.58.58.645.645,0,0,0,.36-.12,14,14,0,0,0,1.88-2.06A.6.6,0,0,0,129.14,6.42ZM123.02,9a.544.544,0,0,0,.52-.54.859.859,0,0,0-.04-.24,6.258,6.258,0,0,1-.14-1.5c0-.22.02-.44.02-.64a.577.577,0,0,0-.56-.58c-.68,0-.62.76-.62,1.22a6.881,6.881,0,0,0,.24,1.94A.552.552,0,0,0,123.02,9Zm-.28.22c-.8.04-1.6.08-2.38.14l-.16-.18a4.764,4.764,0,0,1-1.06-2.64.581.581,0,0,0-.56-.6.572.572,0,0,0-.6.62,6.665,6.665,0,0,0,.98,2.94c-.44.04-1.14.06-1.14.66a.564.564,0,0,0,.58.56h.1a30.792,30.792,0,0,1,3.82-.34q2.67-.12,5.34-.12c.76,0,1.52,0,2.28.04a16.049,16.049,0,0,1-1.12,3.16.741.741,0,0,0-.08.3.552.552,0,0,0,.58.56.57.57,0,0,0,.5-.28,16.184,16.184,0,0,0,1.4-4.16v-.1a.57.57,0,0,0-.52-.58c-.34-.04-.7-.04-1.04-.06-.72-.02-1.46-.02-2.18-.02-1.4,0-2.82.02-4.22.08Zm6.42,8.5c0-.76-.8-.64-1.32-.64q-1.44,0-2.88.06a3.057,3.057,0,0,0-1.26-1.9,10.87,10.87,0,0,0,1.52-2.3.583.583,0,0,0-.38-.56,5,5,0,0,0-1.64-.22,10.057,10.057,0,0,0-2.9.4.559.559,0,0,0-.38.52.612.612,0,0,0,.58.6.584.584,0,0,0,.18-.04,8.664,8.664,0,0,1,2.5-.32,4.181,4.181,0,0,1,.5.02l-.52.72c-.26.36-.56.7-.78,1.08a.539.539,0,0,0-.1.3c0,.74,1.1.48,1.52,1.74a36.583,36.583,0,0,0-5.24.42.582.582,0,0,0-.42.56.564.564,0,0,0,.58.56.44.44,0,0,0,.16-.02,10.78,10.78,0,0,1,1.8-.2c1.06-.08,2.14-.12,3.22-.16l-.06.4c-.22,1.12-1.34,3.4-2.7,3.4a3.49,3.49,0,0,1-1.02-.14.851.851,0,0,0-.22-.04.564.564,0,0,0-.58.56c0,.74,1.3.78,1.82.78,2,0,3.48-2.64,3.82-4.34.04-.22.08-.44.1-.66,1-.04,2-.08,3-.08.18,0,.36.02.54.02A.551.551,0,0,0,129.16,17.72Zm-11.48-7.8a.547.547,0,0,0-.56-.56.569.569,0,0,0-.54.34,19.969,19.969,0,0,0-.86,4.9c0,.4.1.86.6.86a.58.58,0,0,0,.58-.58c0-.08-.02-.18-.02-.26a18.764,18.764,0,0,1,.76-4.46A1,1,0,0,0,117.68,9.92Zm32.46,12.2a.594.594,0,0,0-.54-.62,24.278,24.278,0,0,0-2.72-.08q-1.65,0-3.3.06c.12-1.42.16-2.86.22-4.3,1,0,2-.02,3-.02.52,0,1.08.04,1.6.02a.6.6,0,0,0,.62-.58.578.578,0,0,0-.58-.62,14.177,14.177,0,0,0-1.6-.02c-1,0-2.02.02-3.02.02.04-1.22.06-2.44.08-3.66,1.14-.04,2.3-.08,3.44-.14a16.885,16.885,0,0,0,1.74-.08.6.6,0,0,0-.06-1.2c-.52,0-1.04.06-1.56.08l-3.54.14c0-1.58.08-3.18.08-4.76a.59.59,0,1,0-1.18-.04c-.04.46-.02.94-.02,1.4l-.06,2.78c0,.22-.02.44-.02.66-.44,0-.88.02-1.32.04-1.12.04-2.24.06-3.36.12.22-1.08.52-2.12.82-3.18a2.5,2.5,0,0,0,.16-.64.6.6,0,0,0-.6-.6.618.618,0,0,0-.58.44,3.9,3.9,0,0,0-.12.46,28.836,28.836,0,0,0-1,4.14.594.594,0,0,0,.62.6c1.78,0,3.58-.18,5.36-.18-.02,1.22-.04,2.42-.08,3.64-1.14.04-2.28.06-3.42.12a11.587,11.587,0,0,0-1.66.12.6.6,0,0,0-.52.6.589.589,0,0,0,.6.6h.06c1.64,0,3.28-.2,4.92-.24-.06,1.44-.1,2.88-.24,4.32-1.26.04-2.52.1-3.76.18a15.861,15.861,0,0,0-1.96.18.584.584,0,0,0-.52.58.6.6,0,0,0,.6.6h.08l1.5-.14c2.94-.24,5.9-.32,8.84-.32q1.17,0,2.34.06h.06A.564.564,0,0,0,150.14,22.12ZM169.5,6.84a.582.582,0,0,0-.62-.54,32.023,32.023,0,0,0-6.6,1,.567.567,0,0,0-.36.54.58.58,0,0,0,.58.58.851.851,0,0,0,.22-.04,26.811,26.811,0,0,1,5.22-.84c.32-.04.66-.04,1-.08A.6.6,0,0,0,169.5,6.84Zm2.54,4.92a.6.6,0,0,0-.54-.64,13.525,13.525,0,0,0-1.8-.04q-1.65,0-3.3.06c0-.84.04-1.66-.04-2.5a.58.58,0,0,0-.6-.56.564.564,0,0,0-.54.6c0,.92.02,1.6.02,2.52a26.225,26.225,0,0,0-5.38.68.573.573,0,0,0,.18,1.12.554.554,0,0,0,.18-.02,22.22,22.22,0,0,1,5-.62c0,1.16-.04,2.34-.04,3.5a12.22,12.22,0,0,0-2.22.38.867.867,0,0,1,.02-.1.594.594,0,0,0-.6-.62.551.551,0,0,0-.56.52,9.115,9.115,0,0,0-.02,1.28c0,1.12.02,2.26.06,3.38a8.709,8.709,0,0,0,.1,1.62.6.6,0,0,0,.58.48.34.34,0,0,0,.14-.02,19.327,19.327,0,0,1,2.82-.32c1.44-.1,2.9-.14,4.34-.14a.576.576,0,0,0,.58-.56c0-.48-.4-.58-.78-.58.16-1.14.26-2.28.34-3.42.04-.5.1-1.02.1-1.52,0-.68-.66-.62-1.14-.62-.86,0-1.74.06-2.6.12,0-1.14.04-2.3.04-3.44,1.04-.04,2.1-.06,3.14-.06.64,0,1.3.04,1.94.04A.57.57,0,0,0,172.04,11.76ZM159.4,8.96a.6.6,0,0,0-.22-.46,10.3,10.3,0,0,0-2.74-1.2.581.581,0,0,0-.56.6.541.541,0,0,0,.38.54,9.464,9.464,0,0,1,2.2.98.558.558,0,0,0,.36.12A.568.568,0,0,0,159.4,8.96Zm-.82,4.14a.564.564,0,0,0-.56-.58h-.1a15.629,15.629,0,0,1-2.36.18h-.3a.583.583,0,0,0-.6.62c0,.48.5.56.86.56a13.9,13.9,0,0,0,2.58-.22A.576.576,0,0,0,158.58,13.1Zm1.32,5.24a.581.581,0,0,0-1.02-.4,20.165,20.165,0,0,1-4.34,3.18.562.562,0,0,0,.18,1.1c.8,0,4.46-2.8,5.04-3.5A.631.631,0,0,0,159.9,18.34Zm9-1.56c-.1,1.48-.24,2.96-.42,4.42a49,49,0,0,0-5.42.36c-.08-1.42-.1-2.86-.1-4.28a.4.4,0,0,0,.22.06.478.478,0,0,0,.18-.04,11.674,11.674,0,0,1,2.04-.3C166.56,16.88,167.74,16.8,168.9,16.78Zm17.66-6.54c0-.74-1-.64-1.52-.64q-.84,0-1.68.06a4.576,4.576,0,0,0,.22-1.16.607.607,0,0,0-.58-.64.6.6,0,0,0-.62.56,6.185,6.185,0,0,1-.3,1.34,18.062,18.062,0,0,0-2.92.44.6.6,0,0,0,.14,1.18c.04,0,.12-.02.16-.02l.6-.14c.52-.1,1.06-.16,1.6-.22a23.294,23.294,0,0,1-1.52,3.54.691.691,0,0,0-.14.4.6.6,0,0,0,.62.58,6.035,6.035,0,0,1,1.78.22c-.8.96-1.98,2.58-1.98,3.88,0,1.36,1.18,1.82,2.34,1.82a14.618,14.618,0,0,0,3.08-.54.6.6,0,0,0,.44-.58.585.585,0,0,0-.58-.6,1.293,1.293,0,0,0-.4.08,9.443,9.443,0,0,1-2.6.44c-.44,0-1.08-.06-1.08-.62,0-1.04,1.3-2.68,1.96-3.42a2.933,2.933,0,0,1,1.08.9.6.6,0,0,0,.52.28.578.578,0,0,0,.6-.6c0-.54-.92-1.2-1.34-1.46a7.127,7.127,0,0,1,1.06-.86.607.607,0,0,0,.32-.54.59.59,0,0,0-.62-.58c-.48,0-1.56,1.08-1.9,1.42a7.4,7.4,0,0,0-1.72-.4,37.168,37.168,0,0,0,1.4-3.48c.68-.04,1.36-.08,2.04-.08.32,0,.64.04.96.04A.6.6,0,0,0,186.56,10.24Zm-134.64,26a.554.554,0,0,0-.06-.26,2.891,2.891,0,0,1-.2-1.24.589.589,0,0,0-.6-.6.615.615,0,0,0-.6.6c0,.56.04,2.1.86,2.1A.615.615,0,0,0,51.92,36.24ZM49.9,38.2a.6.6,0,0,0-.16-.4,3.858,3.858,0,0,1-.6-2.04.589.589,0,0,0-.6-.6.615.615,0,0,0-.6.6c0,.72.42,3.04,1.34,3.04A.633.633,0,0,0,49.9,38.2Zm-1.9.52a.588.588,0,0,0-.6-.64c-1.58,0-3.16.04-4.74.1a14.984,14.984,0,0,0,.84-2.76.623.623,0,0,0-.62-.62.6.6,0,0,0-.58.52l-.16.72a22.141,22.141,0,0,1-.78,2.2,17.768,17.768,0,0,0-4.08.58.606.606,0,0,0,.26,1.16.533.533,0,0,0,.24-.06,14.125,14.125,0,0,1,3.08-.44c-.66,1.54-1.4,3.06-2.2,4.54a22.779,22.779,0,0,1-2.26,3.56.609.609,0,0,0,.44,1.02.529.529,0,0,0,.42-.16,5.146,5.146,0,0,0,.76-.98,47.282,47.282,0,0,0,4.16-8.06c1.52-.06,3.02-.12,4.54-.12a23.417,23.417,0,0,1-1.16,4.98c-.18.5-1.06,2.7-1.8,2.7-.5,0-.72-.54-1.18-.54a.6.6,0,0,0-.58.6c0,.62,1.22,1.14,1.76,1.14,2.44,0,3.7-5.92,4-7.74A9.941,9.941,0,0,0,48,38.72Zm19.22-2.68a.618.618,0,0,0-.46-.58,25.243,25.243,0,0,0-4.64-.32,14.045,14.045,0,0,0-3.08.24.628.628,0,0,0-.4.58.606.606,0,0,0,.62.6.711.711,0,0,0,.2-.04,14.956,14.956,0,0,1,2.86-.18,22.272,22.272,0,0,1,4.16.28c.04,0,.1.02.14.02A.615.615,0,0,0,67.22,36.04Zm1.02,3.78a.594.594,0,0,0-.58-.58,11.632,11.632,0,0,0-1.18-.04c-.9-.04-1.78-.06-2.68-.06-.72,0-6.44-.08-6.44,1.36a.6.6,0,0,0,.6.6.674.674,0,0,0,.34-.1c1.18-.66,4.2-.66,5.5-.66.94,0,1.86.02,2.8.06-1.46,2.24-3.18,4.7-4.86,6.78l-.72.82a.58.58,0,0,0,.42,1,.588.588,0,0,0,.44-.18,74.732,74.732,0,0,0,6.32-8.78A.719.719,0,0,0,68.24,39.82Zm18.38-5.34a.6.6,0,0,0-.6-.6.6.6,0,0,0-.4.16c-.44.38-.58,2.26-.64,2.8-.16,1.3-.34,2.6-.56,3.88a15.283,15.283,0,0,1-2.52,6.66,13.7,13.7,0,0,1-1,1.12.606.606,0,0,0-.2.44.6.6,0,0,0,.6.58.667.667,0,0,0,.42-.18c3.24-2.9,3.98-8.22,4.44-12.36a13.422,13.422,0,0,1,.34-2.12A.615.615,0,0,0,86.62,34.48Zm-6.04,8.06a.64.64,0,0,0-.56-.6,5.458,5.458,0,0,1-.14-1.4,16.291,16.291,0,0,1,.54-4.28.674.674,0,0,0,.1-.34.589.589,0,0,0-.6-.6.626.626,0,0,0-.48.24c-.54.7-.76,3.84-.76,4.94,0,.76.02,2.68,1.14,2.68C80.22,43.18,80.58,42.98,80.58,42.54Zm26.94,4.76a.615.615,0,0,0-.6-.6.6.6,0,0,0-.4.16,5.123,5.123,0,0,1-2.92,1.2c-1.06,0-2.8-.2-2.8-1.6,0-2.04,2.82-3.84,4.56-4.4a6.538,6.538,0,0,1,.9-.2.6.6,0,0,0-.06-1.2,7.62,7.62,0,0,0-2.88,1,10.957,10.957,0,0,1-.72-4.18,10.806,10.806,0,0,1,.3-2.64.44.44,0,0,0,.02-.16.589.589,0,0,0-.6-.6.618.618,0,0,0-.58.44,10.158,10.158,0,0,0-.34,2.92,12.2,12.2,0,0,0,.9,4.86c-1.36.94-2.7,2.4-2.7,4.16,0,2.18,2.2,2.78,4,2.78a6.5,6.5,0,0,0,3.72-1.48A.579.579,0,0,0,107.52,47.3Zm23.24-6.42a.558.558,0,0,0-.12-.36c-.34-.46-2.22-2.18-2.74-2.18a.568.568,0,0,0-.58.58.577.577,0,0,0,.32.52,11.923,11.923,0,0,1,2.1,1.78.484.484,0,0,0,.44.22A.564.564,0,0,0,130.76,40.88Zm-6.8-5.82a7.677,7.677,0,0,0-1.44-2.58.616.616,0,0,0-.4-.18.58.58,0,0,0-.58.58.6.6,0,0,0,.16.4,7.422,7.422,0,0,1,1.12,1.92.582.582,0,0,0,1.14-.14Zm6.88,1.46a.561.561,0,0,0-.48-.56,25.268,25.268,0,0,0-3.5-.12c-2.46,0-4.94.06-7.4.18-.92.04-1.84.08-2.74.16-.4.04-.82.06-1.2.12a.563.563,0,0,0-.5.56.58.58,0,0,0,.58.58h.08c.52,0,1.02-.1,1.54-.14,1.34-.1,2.7-.18,4.06-.22l-.04.56c-.06,1.04-.14,2.1-.14,3.14,0,.48-.1,1.58.64,1.58a.608.608,0,0,0,.58-.58c0-.04-.02-.08-.02-.12a4.442,4.442,0,0,1-.06-.88c0-1.02.08-2.04.14-3.06.02-.22.04-.46.04-.68.5,0,1.02-.02,1.52-.02v.54a27.48,27.48,0,0,1-.2,4.12.711.711,0,0,0-.04.2.573.573,0,0,0,1.12.18A31.39,31.39,0,0,0,125.1,37c.64-.02,1.28-.02,1.92-.02a24.025,24.025,0,0,1,3.18.12h.08A.576.576,0,0,0,130.84,36.52ZM130.28,50a.58.58,0,0,0-.58-.58.34.34,0,0,0-.14.02,4.832,4.832,0,0,1-.94.1,3.416,3.416,0,0,1-1.26-.22,11.012,11.012,0,0,1-1.34-.76l-2.2-1.38c.76-.78,1.5-1.58,2.2-2.42.24-.28.5-.58.72-.88a.5.5,0,0,0,.12-.34.55.55,0,0,0-.3-.5,14.168,14.168,0,0,0-3.4-.38.576.576,0,0,0-.92-.36,11.973,11.973,0,0,0-1.2,1.06c-.68.66-1.32,1.32-1.98,1.98l-.76.78a.6.6,0,0,0-.16.4.557.557,0,0,0,.58.58.6.6,0,0,0,.4-.16c.28-.28.58-.56.84-.86.14.14,1.74,1.1,2.02,1.28a17.157,17.157,0,0,1-3.62,2.56.581.581,0,0,0,.26,1.1.533.533,0,0,0,.24-.06A17.1,17.1,0,0,0,122.98,48c.82.52,1.64,1.04,2.46,1.54a10.609,10.609,0,0,0,1.46.84,4.24,4.24,0,0,0,1.72.32C129.1,50.7,130.28,50.7,130.28,50ZM119.74,38.72a.564.564,0,0,0-.56-.58.539.539,0,0,0-.52.3,8.461,8.461,0,0,1-3.14,3.46.555.555,0,0,0-.32.52.576.576,0,0,0,.56.58.554.554,0,0,0,.26-.06,8.821,8.821,0,0,0,3.22-3.2c.14-.24.32-.5.44-.76A.554.554,0,0,0,119.74,38.72Zm5.48,5.22c-.76.9-1.54,1.76-2.38,2.6-.68-.44-1.36-.9-2.06-1.28.5-.5.98-1,1.5-1.46a2.944,2.944,0,0,0,.42,0C123.54,43.8,124.38,43.86,125.22,43.94Zm20.7-6.88c0-1.24-2.72-2.58-3.74-2.92a.592.592,0,0,0-.2-.04.615.615,0,0,0-.6.6.583.583,0,0,0,.4.56,7.834,7.834,0,0,1,2.94,1.82.6.6,0,0,0,.58.72A.678.678,0,0,0,145.92,37.06Zm3.86,10.34a.6.6,0,0,0-.6-.58.62.62,0,0,0-.34.1,4.951,4.951,0,0,1-2.74,1.06c-1.02,0-4.04-2.18-5.5-2.52,1.24-.82,5.16-3.58,5.16-4.88,0-1.48-3.02-1.54-4-1.54a10.1,10.1,0,0,0-2.34.22.559.559,0,0,0-.42.56.615.615,0,0,0,.6.6.44.44,0,0,0,.16-.02,7.953,7.953,0,0,1,1.96-.18,7.741,7.741,0,0,1,2.8.42c-.94,1.46-5.94,4.88-7.62,5.66a.6.6,0,0,0-.46.58.589.589,0,0,0,.6.6.674.674,0,0,0,.34-.1,8.664,8.664,0,0,1,2.84-.76c.98,0,4.3,2.54,5.88,2.54a5.928,5.928,0,0,0,3.42-1.26A.6.6,0,0,0,149.78,47.4Zm17.76-7.48a.58.58,0,0,0-.58-.58.554.554,0,0,0-.18.02,9.219,9.219,0,0,1-2.08.34c-.02-.78-.04-1.56-.04-2.34a6.616,6.616,0,0,1,1.06.36.469.469,0,0,0,.24.04.587.587,0,0,0,.26-1.12,7.046,7.046,0,0,0-1.56-.48c0-.46.18-1.4-.54-1.4-.7,0-.64.72-.64,1.22-.44-.04-.88-.06-1.34-.06a7.99,7.99,0,0,0-1.38.08.6.6,0,0,0-.5.58.585.585,0,0,0,.58.6h.08a7.8,7.8,0,0,1,1.18-.08c.46,0,.92.04,1.38.08,0,.86.02,1.72.04,2.58-.42,0-.84.02-1.26.02-.78,0-1.56-.06-2.32-.06a.563.563,0,0,0-.62.56.586.586,0,0,0,.56.62c.84.06,1.7.06,2.54.06.38,0,.76,0,1.14-.02l.04,1.16c.02.72.08,1.42.08,2.14a7.89,7.89,0,0,0-2.06-.3c-1.36,0-2.68.42-2.68,2,0,1.34,1.6,2.4,2.84,2.4a3.016,3.016,0,0,0,2.8-2.48,2.262,2.262,0,0,1,.98.8.609.609,0,0,0,.54.36.63.63,0,0,0,.6-.6c0-.72-1.3-1.5-1.86-1.76v-.1c-.02-1.22-.04-2.46-.1-3.68a8.846,8.846,0,0,0,2.4-.38A.608.608,0,0,0,167.54,39.92Zm-4.06,5.5c-.22.84-.7,1.74-1.7,1.74-.56,0-1.66-.58-1.66-1.22,0-.8.88-.82,1.5-.82A6.575,6.575,0,0,1,163.48,45.42Zm28.76-5.94a.578.578,0,0,0-.62-.58c-.5,0-1,.04-1.48.06-.98.04-1.98.08-2.96.1.02-.28.02-.58.02-.86,0-.5.12-1.54-.64-1.54a.615.615,0,0,0-.6.6c0,.34.04.7.04,1.04,0,.26,0,.54-.02.8-1.6,0-3.2.08-4.8.14,0-.76.08-1.5.12-2.26v-.06a.594.594,0,0,0-.62-.6.6.6,0,0,0-.58.54,19.611,19.611,0,0,0-.12,2.42c-.88.04-6.56.12-6.56,1.66a.633.633,0,0,0,.6.62.57.57,0,0,0,.48-.24c.42-.46,2.28-.62,2.84-.68.88-.08,1.78-.12,2.66-.16.08,2.04.5,5.46,2.4,6.68a2.411,2.411,0,0,0,.88.36c.38,0,.72-.16.72-.6a.616.616,0,0,0-.5-.58c-1.9-.52-2.24-4.36-2.3-5.9,1.1-.04,2.18-.08,3.28-.1.48-.02.94-.04,1.42-.04a6.933,6.933,0,0,1-.52,2.2.664.664,0,0,0-.1.32.615.615,0,0,0,.6.6.625.625,0,0,0,.5-.26,7.839,7.839,0,0,0,.72-2.9c1.02-.02,2.02-.06,3.04-.1.5-.02,1.04-.02,1.54-.06A.586.586,0,0,0,192.24,39.48Zm19.16,4.96a.615.615,0,0,0-.6-.6.642.642,0,0,0-.44.2c-.22.2-.4.42-.62.62-.58.52-2.18,1.82-2.96,1.88a9.563,9.563,0,0,1-1.4-1.32c-.98-1.04-2.44-2.68-3.98-2.68a5.415,5.415,0,0,0-3.12,1.38,34.435,34.435,0,0,1,4.76-6.48,16.714,16.714,0,0,1,1.22-1.16.6.6,0,0,0,.22-.46.606.606,0,0,0-.6-.62.682.682,0,0,0-.38.14,14.077,14.077,0,0,0-1.82,1.8,37.547,37.547,0,0,0-6.36,10.06.71.71,0,0,0-.04.2.613.613,0,0,0,1.1.38c.3-.36.54-.74.84-1.1.86-1.06,2.72-2.94,4.2-2.94,1.7,0,3.92,4,5.34,4h.02c1.16,0,2.92-1.44,3.76-2.2a5.624,5.624,0,0,0,.7-.68A.607.607,0,0,0,211.4,44.44Zm20.4-1.8a.742.742,0,0,0-.08-.3,10.6,10.6,0,0,0-1.04-1.5c-.68-.94-1.4-1.9-2.18-2.78a.609.609,0,0,0-.48-.22.6.6,0,0,0-.44.98,51.551,51.551,0,0,1,3.1,4.12.559.559,0,0,0,.52.3A.6.6,0,0,0,231.8,42.64Zm-6.46-2.06c0-1.92-1.6-2.4-3.22-2.52a8.376,8.376,0,0,0,.48-1.34.615.615,0,0,0-.6-.6.6.6,0,0,0-.56.4c-.22.5-.4,1-.62,1.5-.6,0-1.2.06-1.8.06a.578.578,0,0,0-.58.62.6.6,0,0,0,.62.58c.4,0,.8-.04,1.2-.04a30.1,30.1,0,0,1-3.74,6c-.32.4-.68.78-1.04,1.16a.576.576,0,0,0-.18.42.615.615,0,0,0,.6.6.576.576,0,0,0,.42-.18,28.766,28.766,0,0,0,5.28-8.02c.64.02,2.22.12,2.48.86a1.381,1.381,0,0,1,.08.5c0,.9-.94,3.46-1.72,3.92-.4-.14-.6-.64-1.02-.64a.615.615,0,0,0-.6.6c0,.6,1.12,1.24,1.66,1.24.62,0,1.12-.62,1.44-1.08A8.2,8.2,0,0,0,225.34,40.58Zm21.04-4.1a2.921,2.921,0,0,0-2.94-3c-1.42,0-3.24,1.04-3.3,2.58v.04a.6.6,0,0,0,.6.6.581.581,0,0,0,.6-.56c.12-.86,1.28-1.44,2.08-1.44a1.7,1.7,0,0,1,1.76,1.76c0,2.84-3.54,3.38-4.52,6.5a.554.554,0,0,0-.02.18.633.633,0,0,0,.6.62.6.6,0,0,0,.56-.42,6.06,6.06,0,0,1,2.16-2.74c1.36-1.14,2.3-2.06,2.42-3.94ZM242.56,46.5a.568.568,0,0,0-.58-.58c-.76,0-.94,1.52-.94,2.3,0,.5.12,1.36.76,1.36a.615.615,0,0,0,.6-.6c0-.24-.16-.32-.16-.72a4.121,4.121,0,0,1,.26-1.48A.639.639,0,0,0,242.56,46.5Z" transform="translate(45 6077)" fill="#4a3a3d" stroke="#4a3a3d" stroke-width="0.5"/>
    <path id="パス_2299" data-name="パス 2299" d="M-47.214-9.126a.476.476,0,0,0-.45-.486,11.31,11.31,0,0,0-1.566-.036h-.846A19.588,19.588,0,0,0-49.5-11.61a.5.5,0,0,0-.5-.5.5.5,0,0,0-.486.378c-.216.72-.414,1.422-.648,2.142a8.432,8.432,0,0,0-1.926.288.486.486,0,0,0-.342.468.515.515,0,0,0,.5.5.526.526,0,0,0,.162-.036,5.766,5.766,0,0,1,1.242-.2,53.613,53.613,0,0,1-2.52,6.354.5.5,0,0,0-.054.234.484.484,0,0,0,.486.486.493.493,0,0,0,.45-.252,22.645,22.645,0,0,0,1.08-2.43c.576-1.458,1.116-2.952,1.638-4.446.45-.018.918-.036,1.368-.036.27,0,.54.018.792.018a16.936,16.936,0,0,1-1.1,5.022,1.3,1.3,0,0,1-.612.666.481.481,0,0,0-.324.45.507.507,0,0,0,.5.522.526.526,0,0,0,.162-.036c1.89-.684,2.34-5.436,2.412-7.056Zm.576,6.444a.507.507,0,0,0-.522-.5.5.5,0,0,0-.468.36,2.225,2.225,0,0,1-.666.756A7.686,7.686,0,0,1-52.9-.4a4.658,4.658,0,0,1-2.646-.63,1.614,1.614,0,0,1-.324-.27,8.382,8.382,0,0,1-.18-2.052q0-.7.054-1.4c.288-.018.594-.018.882-.018.126,0,.252.018.378.018a.5.5,0,0,0,.486-.342,37.092,37.092,0,0,0,.414-3.744V-8.91c.054-.648-1.026-.54-1.458-.54-.7,0-1.4.018-2.106.018h-.018c.414-.4,2.412-2.5,2.412-2.988,0-.792-1.692-1.044-2.286-1.17A.484.484,0,0,0-57.78-14a.454.454,0,0,0-.306.108,26.016,26.016,0,0,0-2.826,2.808.454.454,0,0,0-.108.306.515.515,0,0,0,.5.5.486.486,0,0,0,.4-.18,28.149,28.149,0,0,1,2.16-2.232,9.674,9.674,0,0,1,1.764.414c-.81,1.062-1.8,1.962-2.7,2.934-.324.036-.666.072-.99.126a.465.465,0,0,0-.45-.324.481.481,0,0,0-.5.45,9.542,9.542,0,0,0-.054,1.026c-.036.7-.054,1.4-.072,2.106-.018.45-.036.882-.036,1.332a.493.493,0,0,0,.486.522.493.493,0,0,0,.5-.45c.36-.018.7-.036,1.062-.072-.09.2-.216.378-.324.576A40.971,40.971,0,0,1-61.56-.342a.561.561,0,0,0-.126.324.5.5,0,0,0,.5.486A.538.538,0,0,0-60.8.288,27.926,27.926,0,0,0-58.41-3.564a9.809,9.809,0,0,0,.63-1.116l.792-.036c-.036.54-.054,1.08-.054,1.638A5.069,5.069,0,0,0-56.628-.63,5.067,5.067,0,0,0-52.9.594,7.8,7.8,0,0,0-50.67.252c1.206-.36,3.6-1.476,4.014-2.808A.306.306,0,0,0-46.638-2.682ZM-54.882-8.46c-.126.9-.162,1.782-.27,2.682-.648,0-1.314.036-1.962.072q.081-1.377.108-2.754c.378,0,.756-.018,1.152-.018h.306C-55.332-8.478-55.1-8.478-54.882-8.46ZM-58-8.406c-.036.918-.072,1.818-.126,2.736-.612.036-1.242.054-1.854.126,0-.126.018-.27.018-.4.054-.756.036-1.53.072-2.286h.072C-59.22-8.316-58.608-8.37-58-8.406ZM-28.3.468a17.509,17.509,0,0,0-.666-3.636.5.5,0,0,0-.468-.324.5.5,0,0,0-.5.5c0,.162.216.81.252,1.026-1.152.09-2.3.252-3.438.414.072-.774.108-1.53.126-2.3.882-.036,1.764-.09,2.646-.09a.536.536,0,0,0,.324-.144h.018a.323.323,0,0,0,.09-.126l.018-.018v-.018a24.745,24.745,0,0,0,.846-3.546.519.519,0,0,0-.378-.486,10.451,10.451,0,0,0-2-.144c-.486,0-.99.018-1.476.036.018-.54.018-1.062.018-1.6a.47.47,0,0,0-.18-.36c.774-.09,1.566-.126,2.34-.234a2.046,2.046,0,0,1,.18.648.5.5,0,0,0,.5.468.508.508,0,0,0,.486-.54,7.076,7.076,0,0,0-1.35-2.916.545.545,0,0,0-.4-.18.5.5,0,0,0-.486.5.489.489,0,0,0,.108.306c.18.252.342.486.5.756-1.494.2-3.024.252-4.518.45.432-.828.864-1.638,1.332-2.448a.485.485,0,0,0,.09-.27.5.5,0,0,0-.5-.5.5.5,0,0,0-.4.2,26.09,26.09,0,0,0-1.89,3.636.484.484,0,0,0,.486.486h.09c.27,0,.576-.09.846-.108.612-.072,1.242-.144,1.872-.2a.627.627,0,0,0-.108.306c0,.558,0,1.1-.018,1.656-.864.054-1.746.09-2.61.216a.5.5,0,0,0-.468-.468c-.576,0-.5.576-.5.972a29.353,29.353,0,0,0,.2,4.05.5.5,0,0,0,.468.378.5.5,0,0,0,.486-.378,14.5,14.5,0,0,1,2.34-.216c-.036.792-.054,1.584-.144,2.376-.72.108-1.422.216-2.142.36a5.756,5.756,0,0,0-1.1.27.5.5,0,0,0-.324.468.478.478,0,0,0,.5.486.526.526,0,0,0,.162-.036A19.11,19.11,0,0,1-34.164-.4c1.548-.234,3.114-.45,4.68-.594.072.5.144.99.18,1.494a.485.485,0,0,0,.5.468A.492.492,0,0,0-28.3.468Zm-9.738-13.554a.482.482,0,0,0-.216-.414,5.9,5.9,0,0,0-2.124-.288,9.2,9.2,0,0,0-1.728.108.5.5,0,0,0-.414.486.5.5,0,0,0,.5.486h.09a9.911,9.911,0,0,1,1.458-.09,12.226,12.226,0,0,1,1.4.072,11.509,11.509,0,0,1-.612,2.376,16.22,16.22,0,0,0-2.826.108.485.485,0,0,0-.4.486.49.49,0,0,0,.162.378,20.012,20.012,0,0,0-.216,2.736c0,.36.018.792.5.792h.108a14.357,14.357,0,0,1,2.16-.144c.162,0,.306.018.468.018-.072,1.368-.666,4.518-1.836,5.346A3.039,3.039,0,0,1-42.21-1.4a.5.5,0,0,0-.468-.324.5.5,0,0,0-.5.5A2.576,2.576,0,0,0-41.508.414a.363.363,0,0,0,.2-.054,2.85,2.85,0,0,0,.864-.666c1.134-1.35,1.746-4.3,1.746-6.048,0-.72-.936-.612-1.44-.612-.612,0-1.206.018-1.818.072q.054-1.215.216-2.43c.468-.036.936-.036,1.4-.036.486,0,.972.036,1.458.036a.5.5,0,0,0,.5-.486.508.508,0,0,0-.27-.45A12.783,12.783,0,0,0-38.034-13.086Zm7.9,5.706a23,23,0,0,1-.576,2.448l-2.25.09L-32.9-7.4c.468-.018.936-.018,1.4-.018C-31.05-7.416-30.582-7.416-30.132-7.38Zm-3.762.036-.054,2.556c-.81.054-1.638.108-2.448.234-.072-.864-.09-1.71-.108-2.574C-35.64-7.236-34.758-7.308-33.894-7.344Zm23.526.846c0-.648-.666-.54-1.116-.54-1.188,0-2.394.018-3.582.072.054-1.3.09-2.592.126-3.888.972-.018,1.962-.036,2.934-.036.378,0,.972.054.972-.5s-.522-.54-.918-.54c-.99,0-1.962.018-2.952.036.018-.684.036-1.35.036-2.034a.522.522,0,0,0-.522-.522.522.522,0,0,0-.522.522c0,.684-.018,1.368-.036,2.052-.774.018-1.53.036-2.3.072a7.32,7.32,0,0,0-1.1.108.538.538,0,0,0-.432.522.526.526,0,0,0,.54.522h.108l.81-.072c.774-.054,1.566-.072,2.34-.108l-.144,3.906q-1.134.027-2.268.108a8.322,8.322,0,0,0-1.17.09.51.51,0,0,0-.45.522.522.522,0,0,0,.522.522h.054c.81,0,1.62-.126,2.43-.162-.342.882-2.358,5.418-2.358,5.8a.531.531,0,0,0,.522.5h.054c.432,0,.864-.09,1.3-.126.972-.09,1.944-.18,2.916-.252.81-.054,1.6-.126,2.412-.2.108.342.162.684.252,1.026a.522.522,0,0,0,.522.414.5.5,0,0,0,.5-.522,23.216,23.216,0,0,0-1.3-4.176.538.538,0,0,0-.486-.324.548.548,0,0,0-.5.54c0,.126.612,1.728.7,2.016-1.854.18-3.726.306-5.58.486.72-1.746,1.53-3.456,2.178-5.22,1.458-.054,2.916-.126,4.374-.126C-11.106-6.012-10.368-5.868-10.368-6.5Zm-10.008-3.924a.568.568,0,0,0-.126-.342c-.45-.54-2.664-1.062-3.384-1.062a.523.523,0,0,0-.54.5.522.522,0,0,0,.5.54,8.2,8.2,0,0,1,2.628.7.545.545,0,0,0,.4.18A.522.522,0,0,0-20.376-10.422Zm-.5,3.834c0-.576-.5-.558-.918-.558a12.915,12.915,0,0,0-3.15.288.56.56,0,0,0-.36.5.526.526,0,0,0,.54.522.64.64,0,0,0,.18-.036,11.93,11.93,0,0,1,2.79-.216C-21.438-6.084-20.88-6.048-20.88-6.588Zm.342,3.474a.522.522,0,0,0-.522-.522.512.512,0,0,0-.414.2,9.863,9.863,0,0,1-.72.792A8.128,8.128,0,0,1-25.218-.684a.526.526,0,0,0-.468.522.522.522,0,0,0,.522.522c1.206,0,3.834-2.2,4.518-3.15A.5.5,0,0,0-20.538-3.114ZM3.2-10.584c0-.666-.9-.576-1.368-.576q-.756,0-1.512.054a4.118,4.118,0,0,0,.2-1.044A.546.546,0,0,0,0-12.726a.538.538,0,0,0-.558.5,5.566,5.566,0,0,1-.27,1.206,16.256,16.256,0,0,0-2.628.4.557.557,0,0,0-.414.522.554.554,0,0,0,.54.54c.036,0,.108-.018.144-.018l.54-.126c.468-.09.954-.144,1.44-.2A20.964,20.964,0,0,1-2.574-6.714a.622.622,0,0,0-.126.36.542.542,0,0,0,.558.522,5.432,5.432,0,0,1,1.6.2c-.72.864-1.782,2.322-1.782,3.492C-2.322-.918-1.26-.5-.216-.5A13.157,13.157,0,0,0,2.556-.99a.54.54,0,0,0,.4-.522.526.526,0,0,0-.522-.54,1.164,1.164,0,0,0-.36.072,8.5,8.5,0,0,1-2.34.4c-.4,0-.972-.054-.972-.558,0-.936,1.17-2.412,1.764-3.078a2.64,2.64,0,0,1,.972.81.543.543,0,0,0,.468.252A.52.52,0,0,0,2.5-4.7c0-.486-.828-1.08-1.206-1.314a6.415,6.415,0,0,1,.954-.774.546.546,0,0,0,.288-.486.531.531,0,0,0-.558-.522c-.432,0-1.4.972-1.71,1.278a6.664,6.664,0,0,0-1.548-.36,33.453,33.453,0,0,0,1.26-3.132c.612-.036,1.224-.072,1.836-.072.288,0,.576.036.864.036A.538.538,0,0,0,3.2-10.584Zm21.78,3.276a.5.5,0,0,0-.108-.324c-.306-.414-2-1.962-2.466-1.962a.511.511,0,0,0-.522.522.519.519,0,0,0,.288.468A10.731,10.731,0,0,1,24.066-7a.436.436,0,0,0,.4.2A.507.507,0,0,0,24.984-7.308Zm-6.12-5.238a6.909,6.909,0,0,0-1.3-2.322.555.555,0,0,0-.36-.162.522.522,0,0,0-.522.522.535.535,0,0,0,.144.36,6.68,6.68,0,0,1,1.008,1.728.5.5,0,0,0,.5.378A.507.507,0,0,0,18.864-12.546Zm6.192,1.314a.5.5,0,0,0-.432-.5,22.741,22.741,0,0,0-3.15-.108c-2.214,0-4.446.054-6.66.162-.828.036-1.656.072-2.466.144-.36.036-.738.054-1.08.108a.507.507,0,0,0-.45.5.522.522,0,0,0,.522.522h.072c.468,0,.918-.09,1.386-.126,1.206-.09,2.43-.162,3.654-.2l-.036.5c-.054.936-.126,1.89-.126,2.826,0,.432-.09,1.422.576,1.422a.547.547,0,0,0,.522-.522c0-.036-.018-.072-.018-.108a4,4,0,0,1-.054-.792c0-.918.072-1.836.126-2.754.018-.2.036-.414.036-.612.45,0,.918-.018,1.368-.018v.486a24.733,24.733,0,0,1-.18,3.708.64.64,0,0,0-.036.18.522.522,0,0,0,.522.522.519.519,0,0,0,.486-.36A28.251,28.251,0,0,0,19.89-10.8c.576-.018,1.152-.018,1.728-.018a21.623,21.623,0,0,1,2.862.108h.072A.519.519,0,0,0,25.056-11.232ZM24.552.9A.522.522,0,0,0,24.03.378.306.306,0,0,0,23.9.4a4.349,4.349,0,0,1-.846.09,3.075,3.075,0,0,1-1.134-.2A9.911,9.911,0,0,1,20.718-.4l-1.98-1.242c.684-.7,1.35-1.422,1.98-2.178.216-.252.45-.522.648-.792a.454.454,0,0,0,.108-.306.5.5,0,0,0-.27-.45,12.751,12.751,0,0,0-3.06-.342.537.537,0,0,0-.5-.432.539.539,0,0,0-.324.108,10.776,10.776,0,0,0-1.08.954c-.612.594-1.188,1.188-1.782,1.782l-.684.7a.535.535,0,0,0-.144.36.5.5,0,0,0,.522.522.535.535,0,0,0,.36-.144c.252-.252.522-.5.756-.774.126.126,1.566.99,1.818,1.152a15.442,15.442,0,0,1-3.258,2.3.523.523,0,0,0,.234.99.479.479,0,0,0,.216-.054A15.39,15.39,0,0,0,17.982-.9C18.72-.432,19.458.036,20.2.486a9.547,9.547,0,0,0,1.314.756,3.816,3.816,0,0,0,1.548.288C23.49,1.53,24.552,1.53,24.552.9ZM15.066-9.252a.507.507,0,0,0-.5-.522.485.485,0,0,0-.468.27A7.615,7.615,0,0,1,11.268-6.39a.5.5,0,0,0-.288.468.519.519,0,0,0,.5.522.5.5,0,0,0,.234-.054,7.939,7.939,0,0,0,2.9-2.88c.126-.216.288-.45.4-.684A.5.5,0,0,0,15.066-9.252ZM20-4.554c-.684.81-1.386,1.584-2.142,2.34-.612-.4-1.224-.81-1.854-1.152.45-.45.882-.9,1.35-1.314a2.649,2.649,0,0,0,.378,0C18.486-4.68,19.242-4.626,20-4.554Zm18.63-6.192c0-1.116-2.448-2.322-3.366-2.628a.533.533,0,0,0-.18-.036.554.554,0,0,0-.54.54.524.524,0,0,0,.36.5,7.051,7.051,0,0,1,2.646,1.638.538.538,0,0,0,.522.648A.611.611,0,0,0,38.628-10.746ZM42.1-1.44a.538.538,0,0,0-.54-.522.558.558,0,0,0-.306.09,4.456,4.456,0,0,1-2.466.954c-.918,0-3.636-1.962-4.95-2.268,1.116-.738,4.644-3.222,4.644-4.392,0-1.332-2.718-1.386-3.6-1.386a9.088,9.088,0,0,0-2.106.2.5.5,0,0,0-.378.5.554.554,0,0,0,.54.54.4.4,0,0,0,.144-.018A7.157,7.157,0,0,1,34.848-7.9a6.967,6.967,0,0,1,2.52.378C36.522-6.21,32.022-3.132,30.51-2.43a.54.54,0,0,0-.414.522.53.53,0,0,0,.54.54.607.607,0,0,0,.306-.09A7.8,7.8,0,0,1,33.5-2.142c.882,0,3.87,2.286,5.292,2.286A5.335,5.335,0,0,0,41.868-.99.538.538,0,0,0,42.1-1.44Zm16.146-9.81a.526.526,0,0,0-.522-.54c-.216-.018-.432,0-.648-.018H54.414c-.846,0-1.692,0-2.538.018-.36,0-.774-.018-1.134.018a.542.542,0,0,0-.522.558.554.554,0,0,0,.558.522c1.278,0,2.556-.036,3.834-.036h1.224c-1.584,1.35-3.294,3.888-3.294,6.03A4.5,4.5,0,0,0,54.864-.36a.586.586,0,0,0,.252.072.554.554,0,0,0,.54-.54.542.542,0,0,0-.306-.486,3.966,3.966,0,0,1-.576-.378A3.805,3.805,0,0,1,53.622-4.7c0-1.908,1.854-4.5,3.366-5.58a5.158,5.158,0,0,1,.882-.468A.541.541,0,0,0,58.248-11.25Z" transform="translate(188 6045)" fill="#4a3a3d" stroke="#4a3a3d" stroke-width="0.5"/>
    <line id="線_4" data-name="線 4" x2="10" y2="20" transform="translate(106.5 6029.5)" fill="none" stroke="#4a3a3d" stroke-linecap="round" stroke-width="2"/>
    <line id="線_5" data-name="線 5" x1="10" y2="20" transform="translate(259.5 6029.5)" fill="none" stroke="#4a3a3d" stroke-linecap="round" stroke-width="2"/>
  </g>
</svg>
