<svg width="31" height="31" viewBox="0 0 31 31" fill="none" xmlns="http://www.w3.org/2000/svg">
<circle cx="15" cy="15" r="15" fill="#FFEB32"/>
<path d="M15.24 30.48C23.6668 30.48 30.48 23.6668 30.48 15.24C30.48 6.81318 23.6668 0 15.24 0C6.81318 0 0 6.81318 0 15.24C0 23.6668 6.81318 30.48 15.24 30.48ZM15.24 1.79294C22.6807 1.79294 28.6871 7.79929 28.6871 15.24C28.6871 22.6807 22.6807 28.6871 15.24 28.6871C7.7993 28.6871 1.79294 22.6807 1.79294 15.24C1.79294 7.79929 7.7993 1.79294 15.24 1.79294Z" fill="#132442"/>
<path d="M18.1501 7.25879C18.056 7.19995 17.9314 7.20991 17.8474 7.28809L9.14326 15.3809C9.09248 15.4281 9.06328 15.4941 9.06318 15.5635C9.06318 15.6329 9.09239 15.6998 9.14326 15.7471L17.8474 23.8398C17.9433 23.9291 18.0922 23.9291 18.1882 23.8398L19.444 22.6719C19.4948 22.6247 19.524 22.5586 19.5241 22.4893C19.5241 22.4198 19.4949 22.353 19.444 22.3057L12.1931 15.5635L19.444 8.82227C19.4949 8.77497 19.5241 8.70813 19.5241 8.63867C19.5241 8.56926 19.4949 8.50333 19.444 8.45605L18.1882 7.28809L18.1501 7.25879Z" fill="#132442" stroke="#132442" stroke-width="0.5" stroke-linejoin="round"/>
</svg>
