<svg width="47" height="47" viewBox="0 0 47 47" fill="none" xmlns="http://www.w3.org/2000/svg">
<g clip-path="url(#clip0_8_2)">
<path d="M34.8862 0H12.1138C5.42353 0 0 5.42353 0 12.1138V34.8862C0 41.5765 5.42353 47 12.1138 47H34.8862C41.5765 47 47 41.5765 47 34.8862V12.1138C47 5.42353 41.5765 0 34.8862 0Z" fill="#33AD37"/>
<path d="M40.213 21.3029C40.213 13.7012 32.6388 7.53894 23.2955 7.53894C13.9523 7.53894 6.378 13.7012 6.378 21.3029C6.378 27.9282 12.1319 33.4596 19.7958 34.7712L19.7888 34.7878C19.7888 34.7878 19.8244 34.7864 19.8863 34.7872C20.182 34.8366 20.4806 34.8789 20.7816 34.9154C21.462 35.1101 22.2105 35.5961 22.0245 36.8055C21.6973 38.9324 21.6427 39.8592 22.5152 39.8592C23.3878 39.8592 34.6165 33.8123 38.0453 28.0461C39.4249 26.0532 40.2127 23.7529 40.2127 21.3026L40.213 21.3029Z" fill="white"/>
<path d="M14.1064 18.175C14.1064 18.0656 14.0168 17.9763 13.9076 17.9763H12.545C12.4355 17.9763 12.3462 18.0659 12.3462 18.175V25.2268C12.3462 25.3363 12.4358 25.4256 12.545 25.4256H17.2532C17.3627 25.4256 17.452 25.336 17.452 25.2268V24.0384C17.452 23.9289 17.3624 23.8396 17.2532 23.8396H14.3055C14.196 23.8396 14.1067 23.75 14.1067 23.6408V18.1753L14.1064 18.175Z" fill="#45B035"/>
<path d="M19.9525 17.9763H18.5896C18.4798 17.9763 18.3908 18.0653 18.3908 18.175V25.2271C18.3908 25.3369 18.4798 25.4259 18.5896 25.4259H19.9525C20.0623 25.4259 20.1513 25.3369 20.1513 25.2271V18.175C20.1513 18.0653 20.0623 17.9763 19.9525 17.9763Z" fill="#45B035"/>
<path d="M25.8019 21.0863C25.8019 21.1958 25.8019 21.3747 25.8022 21.4842L25.8042 21.8202C25.8051 21.9296 25.7654 21.9559 25.7155 21.8788C25.6656 21.8018 25.4852 21.5274 25.4242 21.4369L23.1945 18.1412C23.1332 18.0507 22.9937 17.9765 22.8842 17.9765H21.7148C21.6053 17.9765 21.516 18.0662 21.516 18.1753V25.2271C21.516 25.3365 21.6056 25.4259 21.7148 25.4259H23.0308C23.1402 25.4259 23.2296 25.3363 23.2296 25.2271V22.282C23.2296 22.1725 23.2296 21.9936 23.2296 21.8841L23.2281 21.4728C23.2275 21.3633 23.2757 21.349 23.3352 21.4407L23.4642 21.6386C23.5244 21.73 23.6233 21.8791 23.6841 21.9699L25.883 25.2604C25.9438 25.3514 26.083 25.4256 26.1925 25.4256H27.3263C27.4357 25.4256 27.525 25.336 27.525 25.2268V18.175C27.525 18.0656 27.4354 17.9763 27.3263 17.9763H26.001C25.8915 17.9763 25.8022 18.0659 25.8022 18.175V21.0863H25.8019Z" fill="#45B035"/>
<path d="M31.0268 23.8481C30.9174 23.8481 30.828 23.7584 30.828 23.6493V22.5277C30.828 22.4183 30.9177 22.3289 31.0268 22.3289H33.4856C33.5951 22.3289 33.6844 22.2393 33.6844 22.1302V20.9587C33.6844 20.8492 33.5948 20.7599 33.4856 20.7599H31.0268C30.9174 20.7599 30.828 20.6703 30.828 20.5611V19.7534C30.828 19.6439 30.9177 19.5546 31.0268 19.5546H33.654C33.7635 19.5546 33.8528 19.465 33.8528 19.3558V18.1759C33.8528 18.0664 33.7632 17.9771 33.654 17.9771H29.2666C29.1571 17.9771 29.0678 18.0667 29.0678 18.1759V25.2276C29.0678 25.3371 29.1574 25.4264 29.2666 25.4264H33.8131C33.9226 25.4264 34.0119 25.3368 34.0119 25.2276V24.0477C34.0119 23.9383 33.9223 23.8489 33.8131 23.8489H31.0268V23.8481Z" fill="#45B035"/>
</g>
<defs>
<clipPath id="clip0_8_2">
<rect width="47" height="47" fill="white"/>
</clipPath>
</defs>
</svg>
