<svg width="35" height="35" viewBox="0 0 35 35" fill="none" xmlns="http://www.w3.org/2000/svg">
<rect width="35" height="35" rx="5" fill="#DCF8C6"/>
<path d="M25.1717 27.0365L22.3486 24.3688C20.8637 25.4048 19.0679 25.9228 16.9614 25.9228C15.2002 25.9228 13.6462 25.5516 12.2994 24.8091C10.9526 24.0667 9.89934 23.022 9.1396 21.6752C8.37987 20.3284 8 18.7571 8 16.9614C8 15.1657 8.37987 13.5944 9.1396 12.2476C9.89934 10.9008 10.9526 9.85617 12.2994 9.1137C13.6462 8.37123 15.2002 8 16.9614 8C18.7399 8 20.3025 8.37123 21.6493 9.1137C22.9961 9.85617 24.0494 10.9008 24.8091 12.2476C25.5861 13.5944 25.9746 15.1657 25.9746 16.9614C25.9746 17.9629 25.8451 18.8953 25.5861 19.7586C25.3444 20.6219 24.9991 21.4076 24.5501 22.1155L27.3214 24.7314L25.1717 27.0365ZM16.9614 22.5558C17.9456 22.5558 18.8089 22.2882 19.5514 21.7529L15.8477 18.2305L17.9974 15.9772L21.3385 19.1111C21.4421 18.783 21.5112 18.4463 21.5457 18.101C21.5975 17.7384 21.6234 17.3585 21.6234 16.9614C21.6234 15.7355 21.4076 14.7081 20.9759 13.8793C20.5615 13.0505 20.0003 12.4289 19.2924 12.0145C18.5845 11.5828 17.8075 11.367 16.9614 11.367C16.1326 11.367 15.3642 11.5828 14.6563 12.0145C13.9484 12.4289 13.3786 13.0505 12.9469 13.8793C12.5325 14.7081 12.3253 15.7355 12.3253 16.9614C12.3253 18.1873 12.5325 19.2147 12.9469 20.0435C13.3786 20.8723 13.9484 21.5025 14.6563 21.9342C15.3642 22.3486 16.1326 22.5558 16.9614 22.5558Z" fill="#D00015"/>
<path d="M25.1717 27.0365L22.3486 24.3688C20.8637 25.4048 19.0679 25.9228 16.9614 25.9228C15.2002 25.9228 13.6462 25.5516 12.2994 24.8091C10.9526 24.0667 9.89934 23.022 9.1396 21.6752C8.37987 20.3284 8 18.7571 8 16.9614C8 15.1657 8.37987 13.5944 9.1396 12.2476C9.89934 10.9008 10.9526 9.85617 12.2994 9.1137C13.6462 8.37123 15.2002 8 16.9614 8C18.7399 8 20.3025 8.37123 21.6493 9.1137C22.9961 9.85617 24.0494 10.9008 24.8091 12.2476C25.5861 13.5944 25.9746 15.1657 25.9746 16.9614C25.9746 17.9629 25.8451 18.8953 25.5861 19.7586C25.3444 20.6219 24.9991 21.4076 24.5501 22.1155L27.3214 24.7314L25.1717 27.0365ZM16.9614 22.5558C17.9456 22.5558 18.8089 22.2882 19.5514 21.7529L15.8477 18.2305L17.9974 15.9772L21.3385 19.1111C21.4421 18.783 21.5112 18.4463 21.5457 18.101C21.5975 17.7384 21.6234 17.3585 21.6234 16.9614C21.6234 15.7355 21.4076 14.7081 20.9759 13.8793C20.5615 13.0505 20.0003 12.4289 19.2924 12.0145C18.5845 11.5828 17.8075 11.367 16.9614 11.367C16.1326 11.367 15.3642 11.5828 14.6563 12.0145C13.9484 12.4289 13.3786 13.0505 12.9469 13.8793C12.5325 14.7081 12.3253 15.7355 12.3253 16.9614C12.3253 18.1873 12.5325 19.2147 12.9469 20.0435C13.3786 20.8723 13.9484 21.5025 14.6563 21.9342C15.3642 22.3486 16.1326 22.5558 16.9614 22.5558Z" fill="#132442"/>
</svg>
