<svg xmlns="http://www.w3.org/2000/svg" width="341.705" height="97.307" viewBox="0 0 341.705 97.307">
  <g id="グループ_165" data-name="グループ 165" transform="translate(-17.147 -12372.5)">
    <g id="グループ_82" data-name="グループ 82" transform="translate(18 12373)">
      <path id="パス_1" data-name="パス 1" d="M534.161,29.116V99.075h59.2L574.416,65.218l18.944-36.1Z" transform="translate(-253.36 -2.99)" fill="#ffc9ce" stroke="#947f6f" stroke-width="1"/>
      <path id="パス_2" data-name="パス 2" d="M534.232,153.646v15.261l33.586-15.261Z" transform="translate(-253.394 -72.877)" fill="#947f6f" stroke="#947f6f" stroke-width="1"/>
      <path id="パス_3" data-name="パス 3" d="M0,29.116l18.944,36.1L0,99.075H59.2V29.116Z" transform="translate(0 -2.99)" fill="#ffc9ce" stroke="#947f6f" stroke-width="1"/>
      <path id="パス_4" data-name="パス 4" d="M75.818,153.646,110.4,168.907V153.646Z" transform="translate(-51.243 -72.877)" fill="#947f6f" stroke="#947f6f" stroke-width="1"/>
      <rect id="長方形_7" data-name="長方形 7" width="289.849" height="80.77" transform="translate(24.575 0)" fill="#ffc9ce" stroke="#947f6f" stroke-width="1"/>
    </g>
    <path id="パス_2305" data-name="パス 2305" d="M70.92,6.84c0-.64-.6-.56-1.04-.56-1.04,0-2.08,0-3.12.02,0-.5.18-1.54-.58-1.54a.539.539,0,0,0-.52.56V6.34a26.41,26.41,0,0,0-3.62.24.553.553,0,0,0-.42.52.538.538,0,0,0,.54.54h.14c.26-.02.58-.08.84-.1.84-.06,1.68-.08,2.52-.12,0,.44,0,.9-.02,1.34a19.933,19.933,0,0,0-3.12.22.56.56,0,0,0-.44.56.547.547,0,0,0,.54.52h.1c.38-.02.74-.08,1.12-.12q2.52-.18,5.04-.18c.4,0,.78.04,1.18.04a.542.542,0,0,0,.06-1.08,8.293,8.293,0,0,0-1.22-.04c-.72,0-1.44.02-2.16.04,0-.44.02-.88.02-1.32,1.04-.02,2.08-.04,3.12-.04C70.28,7.36,70.92,7.44,70.92,6.84ZM72.5,17.28a.536.536,0,0,0-.46-.52,19.866,19.866,0,0,0-2.9-.12h-.72a7.54,7.54,0,0,0,.48-1.98.6.6,0,0,0-.1-.3.5.5,0,0,0,.18.02.521.521,0,0,0,.54-.52.5.5,0,0,0-.2-.42,8.346,8.346,0,0,0,.32-2.1.558.558,0,0,0-.4-.54,7.105,7.105,0,0,0-1.6-.12,21.172,21.172,0,0,0-3.38.22.575.575,0,0,0-.4-.18.538.538,0,0,0-.54.54,15.312,15.312,0,0,0,.22,2.92.534.534,0,0,0,.52.4.581.581,0,0,0-.28.48,6.577,6.577,0,0,0,.36,1.74,24.732,24.732,0,0,0-4.08.5.6.6,0,0,0-.42.54.569.569,0,0,0,.56.54.34.34,0,0,0,.14-.02,22.6,22.6,0,0,1,3.68-.48c1.74-.1,3.52-.18,5.28-.18a15.335,15.335,0,0,1,2.54.12h.1A.555.555,0,0,0,72.5,17.28Zm-2.52,5.4a.538.538,0,0,0-.52-.56.18.18,0,0,1-.1-.02,18.719,18.719,0,0,0,.18-2.6.541.541,0,0,0-.48-.54,7.972,7.972,0,0,0-1.38-.06,24.829,24.829,0,0,0-3.22.18.578.578,0,0,0-.52-.54c-.74,0-.58,1.02-.58,1.5a17.26,17.26,0,0,0,.26,3.56.559.559,0,0,0,.52.38.538.538,0,0,0,.54-.54v-.08c1.38-.12,2.8-.18,4.2-.18C69.28,23.18,69.98,23.3,69.98,22.68Zm-8.26-9.32a.522.522,0,0,0-.56-.5c-.44,0-.88.06-1.32.1.06-.7.16-1.38.2-2.08v-.04a.535.535,0,0,0-.5-.56.558.558,0,0,0-.6.5l-.22,2.28-1.8.18c.1-1.12.28-2.24.36-3.36V9.8a.526.526,0,0,0-.54-.54.541.541,0,0,0-.54.46,12.367,12.367,0,0,0-.14,1.24c-.1.8-.18,1.62-.26,2.42a11.707,11.707,0,0,0-2.04.32.553.553,0,0,0-.42.52.569.569,0,0,0,.54.56c.04,0,.1-.02.14-.02.56-.1,1.12-.2,1.68-.28-.12,1.38-.32,3.04-.32,4.42a.573.573,0,0,0,.24.56A11.563,11.563,0,0,0,58,20.3a14,14,0,0,0-.12,1.58.533.533,0,0,0,.54.52.551.551,0,0,0,.56-.52,9.774,9.774,0,0,1,.1-1.32,5.511,5.511,0,0,0,.98.14.551.551,0,0,0,.56-.52.538.538,0,0,0-.52-.56,4.659,4.659,0,0,1-.92-.16l.54-5.4c.5-.04,1-.06,1.5-.12A.539.539,0,0,0,61.72,13.36ZM68.5,11.8a6.049,6.049,0,0,1-.26,1.46,33.446,33.446,0,0,0-3.74.18c-.04-.48-.06-.98-.08-1.46a19.213,19.213,0,0,1,3.22-.2C67.94,11.78,68.22,11.78,68.5,11.8Zm-.54,2.54a.586.586,0,0,0-.14.32,7.889,7.889,0,0,1-.58,2c-.66.02-1.3.04-1.96.08a6.334,6.334,0,0,1-.4-1.72.545.545,0,0,0-.34-.5C65.68,14.4,66.82,14.36,67.96,14.34ZM68.42,20a18.55,18.55,0,0,1-.16,2.1q-1.86.03-3.72.18c-.06-.7-.08-1.4-.1-2.1a21.857,21.857,0,0,1,3.24-.2C67.92,19.98,68.18,19.98,68.42,20ZM58.6,14.16a2.71,2.71,0,0,1-.04.4c-.18,1.54-.32,3.1-.46,4.64a15.27,15.27,0,0,1-1.62-.52c.04-1.44.18-2.88.32-4.32C57.4,14.28,58,14.22,58.6,14.16Zm26.08,7.52a.635.635,0,0,0-.38-.56,2.606,2.606,0,0,1-.62-.42c-1.14-1.16-1.22-3.96-1.22-5.5,0-2.62.4-5.24.54-7.86V7.28a.6.6,0,0,0-1.2-.06c-.04.28-.06.58-.08.86l-.16,1.66c-.18,1.8-.32,3.62-.32,5.46,0,2.18.18,6.08,2.6,7.02a1,1,0,0,0,.24.04A.6.6,0,0,0,84.68,21.68Zm26.52-8.16c0-.64-.26-2.52-1.16-2.52a.6.6,0,0,0-.6.58.588.588,0,0,0,.18.44,2.551,2.551,0,0,1,.38,1.5,2.742,2.742,0,0,1-.24,1.2.554.554,0,0,0-.06.26.633.633,0,0,0,.6.62C111.06,15.6,111.2,14.06,111.2,13.52Zm-9.98,3.32a.6.6,0,0,0-.96-.48,4.472,4.472,0,0,1-1.7.68,12.617,12.617,0,0,1-1.98-3.52c-.12-.36-.22-.72-.32-1.08a.607.607,0,0,0-1.2.12,13.054,13.054,0,0,0,1.4,3.56c.34.62,1.16,2.12,2.02,2.12a5.428,5.428,0,0,0,2.5-.92A.57.57,0,0,0,101.22,16.84Zm28.76-8.66a.637.637,0,0,0-.62-.62c-.94,0-3.74,3.4-4.34,4.06-.56.64-1.14,1.28-1.72,1.9a25.656,25.656,0,0,1-3.52-3.2.626.626,0,0,0-.54-.34.633.633,0,0,0-.6.62.533.533,0,0,0,.06.24c.26.66,3.18,3.06,3.8,3.56-1.4,1.5-2.84,2.98-4.36,4.36-.52.48-1.06.94-1.6,1.38-.22.18-.48.36-.7.56a.569.569,0,0,0-.22.46.606.606,0,0,0,.6.62.482.482,0,0,0,.36-.14,53.9,53.9,0,0,0,6.86-6.48c.84.64,1.68,1.26,2.54,1.86a8.6,8.6,0,0,0,1.2.76.8.8,0,0,0,.3.06.589.589,0,0,0,.6-.6.622.622,0,0,0-.3-.52c-.36-.26-.76-.46-1.14-.72a29,29,0,0,1-2.38-1.74c1-1.1,4.32-5.08,5.3-5.52A.6.6,0,0,0,129.98,8.18Zm14.3,7.72a.6.6,0,0,0-.26-.5c-.54-.44-.98-2.48-1.1-3.08a.607.607,0,0,0-1.2.12c0,.06.02.12.02.16.14.74.86,3.9,1.94,3.9A.63.63,0,0,0,144.28,15.9Zm4.2-2.66a.6.6,0,0,0-.6-.6.583.583,0,0,0-.56.4,18.6,18.6,0,0,1-1.54,2.38,32.657,32.657,0,0,1-3.34,4.08c-.32.32-.66.6-1,.9a.6.6,0,0,0-.22.46.616.616,0,0,0,.58.62.682.682,0,0,0,.38-.14,28.475,28.475,0,0,0,5.36-6.38,7.8,7.8,0,0,0,.9-1.52A.71.71,0,0,0,148.48,13.24Zm-7.42,3.3a.57.57,0,0,0-.24-.48c-1.1-.92-1.22-2.04-1.42-3.36a.622.622,0,0,0-.6-.54.589.589,0,0,0-.6.6v.06A5.487,5.487,0,0,0,140.1,17a.482.482,0,0,0,.36.14A.615.615,0,0,0,141.06,16.54Zm28.84-3.96a.6.6,0,0,0-.36-.56,8.823,8.823,0,0,0-2.72-.32,42.316,42.316,0,0,0-4.78.32,15.456,15.456,0,0,1,.46-2.58.741.741,0,0,0,.08-.3.6.6,0,0,0-.58-.6.656.656,0,0,0-.54.3,14.578,14.578,0,0,0-.64,3.32,23.5,23.5,0,0,0-4.4.92.6.6,0,0,0-.34.54.615.615,0,0,0,.6.6.554.554,0,0,0,.26-.06,17.009,17.009,0,0,1,3.74-.76c-.12,1.26-.28,2.54-.28,3.8,0,2.52,1.1,3.6,3.62,3.6a13.239,13.239,0,0,0,3.54-.58.6.6,0,0,0-.14-1.18.44.44,0,0,0-.16.02,13.074,13.074,0,0,1-3.26.54c-1.88,0-2.4-.56-2.4-2.4a37.282,37.282,0,0,1,.3-3.96,41,41,0,0,1,4.94-.34,10.99,10.99,0,0,1,1.62.08,12.625,12.625,0,0,1-2.28,3.14.6.6,0,0,0-.22.46.606.606,0,0,0,.62.6.631.631,0,0,0,.38-.14,13.325,13.325,0,0,0,2.9-4.24A.85.85,0,0,0,169.9,12.58Zm20.48,2.46a.6.6,0,0,0-.52-.6,22.8,22.8,0,0,0-3.32-.16c-2.86,0-5.7.22-8.54.44a3.54,3.54,0,0,1-.46.02c-1.22,0-.94-.52-1.5-.52a.619.619,0,0,0-.6.62.459.459,0,0,0,.08.28c.48.82,1.76.8,2.56.8h.04c2.72,0,5.42-.46,8.16-.46,1.14,0,2.28.1,3.42.18h.08A.6.6,0,0,0,190.38,15.04ZM210.62,8.8a.6.6,0,0,0-.42-.56,4.1,4.1,0,0,1-.94-.46.558.558,0,0,0-.36-.12.6.6,0,0,0-.6.6.66.66,0,0,0,.24.48,4.938,4.938,0,0,0,1.48.68A.633.633,0,0,0,210.62,8.8Zm-2.5,1.84a.619.619,0,0,0-.52-.6c-.4-.08-.34-.88-.98-.88a.6.6,0,0,0-.6.58,1.975,1.975,0,0,0,1.42,1.5A.61.61,0,0,0,208.12,10.64Zm-5.84.6a1.293,1.293,0,0,0-.08-.4c-.38-1-2.56-1.62-3.46-1.9a.554.554,0,0,0-.18-.02.593.593,0,0,0-.18,1.16c.4.14,2.44.78,2.68,1.18a.558.558,0,0,0-.12.36.6.6,0,0,0,.6.6C202.04,12.22,202.28,11.66,202.28,11.24Zm-.02,3.04a1.027,1.027,0,0,0-.3-.74c-.6-.58-2.46-.54-3.2-.54-.4,0-.82,0-1.22.02a.6.6,0,0,0,.04,1.2,16.592,16.592,0,0,1,3.5.16.6.6,0,0,0,.58.5A.589.589,0,0,0,202.26,14.28Zm7.28.66a.6.6,0,0,0-.6-.58.706.706,0,0,0-.28.06c-.72.32-1.42.68-2.14,1.02l-5.26,2.46-3.16,1.48c-.36.18-1.12.48-1.44.68a.555.555,0,0,0-.32.52.619.619,0,0,0,.6.62.554.554,0,0,0,.26-.06c.5-.2.98-.46,1.46-.7l3.12-1.46,5.06-2.38,1.68-.8a7.078,7.078,0,0,0,.68-.32A.6.6,0,0,0,209.54,14.94ZM232.4,6.08c0-.48-.86-1.22-1.3-1.22a.585.585,0,0,0-.58.6c0,.58.54.5.76.88a.542.542,0,0,0,.52.34A.615.615,0,0,0,232.4,6.08Zm-2.1,2.18a.57.57,0,0,0-.28-.5c-.26-.16-.88-.66-1.14-.66a.612.612,0,0,0-.6.58.671.671,0,0,0,.22.46,3.915,3.915,0,0,0,1.2.72A.615.615,0,0,0,230.3,8.26Zm-.24,8.42a.564.564,0,0,0-.08-.3,15.038,15.038,0,0,0-1.14-1.64,33.3,33.3,0,0,0-2.06-2.64.6.6,0,0,0-1.06.38.631.631,0,0,0,.14.38c.48.62.98,1.2,1.46,1.82.56.76,1.1,1.52,1.64,2.3a.6.6,0,0,0,.52.28A.58.58,0,0,0,230.06,16.68Zm-6.44-2.08c0-1.94-1.62-2.38-3.24-2.52a7.7,7.7,0,0,0,.5-1.32.615.615,0,0,0-.6-.6.583.583,0,0,0-.56.4c-.22.5-.4,1-.6,1.5-.58,0-1.26,0-1.82.06a.58.58,0,0,0-.56.6.6.6,0,0,0,.6.58c.4,0,.82-.04,1.22-.04a31.567,31.567,0,0,1-3.74,6.02c-.34.4-.7.78-1.06,1.16a.594.594,0,0,0,.42,1,.646.646,0,0,0,.42-.16,29.315,29.315,0,0,0,5.28-8.04c.66.02,2.24.12,2.5.86a1.453,1.453,0,0,1,.08.5c0,.92-.94,3.48-1.72,3.94-.42-.14-.6-.64-1.04-.64a.6.6,0,0,0-.6.6c0,.6,1.12,1.22,1.66,1.22.62,0,1.12-.62,1.44-1.08A8.072,8.072,0,0,0,223.62,14.6ZM100.98,42.38c0-.46,0-.84-.56-.92a16.692,16.692,0,0,0-2-.04c-.82,0-1.66.02-2.48.04.02-.76.06-1.52.1-2.28v-.06a.568.568,0,0,0-.58-.58.584.584,0,0,0-.58.52,24.382,24.382,0,0,0-.1,2.44,32.084,32.084,0,0,0-3.38.28c0-.08.02-.18.02-.26a.578.578,0,0,0-.58-.62.584.584,0,0,0-.58.52c-.08.46-.08,1.48-.1,1.98-.08,1.42-.12,2.86-.12,4.3a11.263,11.263,0,0,0,.08,1.66.576.576,0,0,0,1.06.12c1.24-.12,2.5-.14,3.76-.18,1.66-.06,3.34-.12,5.02-.12a.564.564,0,0,0,.58-.56.55.55,0,0,0-.24-.44A24.35,24.35,0,0,0,100.98,42.38Zm-.66-8.48a.581.581,0,0,0-.56-.6q-4.14,0-8.28.24c-.66.04-1.32.12-1.98.16h-.16l-.04.02c-.42.04-1.1.1-1.1.66a.58.58,0,0,0,.58.58c.08,0,.14-.02.22-.02a11.132,11.132,0,0,1,.12,1.82,18.893,18.893,0,0,1-3.04,9.9c-.52.86-1.1,1.62-1.68,2.42a.558.558,0,0,0-.12.36.58.58,0,0,0,.58.58.6.6,0,0,0,.46-.22,16.789,16.789,0,0,0,1.12-1.54,21.975,21.975,0,0,0,3.76-9.72c1.24-.18,2.54-.22,3.78-.28q2.7-.12,5.4-.12a.58.58,0,0,0,.58-.58.6.6,0,0,0-.4-.54A10.178,10.178,0,0,0,100.32,33.9Zm-1.22.56a9.259,9.259,0,0,1-.8,2.52c-1.56.04-3.12.06-4.68.14-1.12.04-2.24.1-3.34.24a12.147,12.147,0,0,0-.12-2.56C93.12,34.54,96.12,34.52,99.1,34.46Zm.72,8.14c0,.62-.04,1.24-.1,1.86-1.28,0-2.58.06-3.86.1,0-.64.04-1.3.04-1.94.88-.02,1.76-.04,2.64-.04C98.96,42.58,99.4,42.58,99.82,42.6Zm-.22,3.02a11.217,11.217,0,0,1-.48,2.44c-1.12,0-2.26.04-3.38.08.06-.8.06-1.62.1-2.42C97.1,45.68,98.34,45.62,99.6,45.62Zm-4.86-2.96c0,.64-.04,1.3-.04,1.94-1.14.04-2.3.08-3.44.2.02-.62.04-1.22.08-1.84A24.13,24.13,0,0,1,94.74,42.66Zm-.06,3.1c-.04.8-.04,1.6-.1,2.4-1.14.04-2.28.08-3.4.18v-.32c0-.68.02-1.38.04-2.06C92.36,45.82,93.54,45.8,94.68,45.76Zm26.52-5.24c0-.64-.26-2.52-1.16-2.52a.6.6,0,0,0-.6.58.588.588,0,0,0,.18.44,2.551,2.551,0,0,1,.38,1.5,2.742,2.742,0,0,1-.24,1.2.554.554,0,0,0-.06.26.633.633,0,0,0,.6.62C121.06,42.6,121.2,41.06,121.2,40.52Zm-9.98,3.32a.6.6,0,0,0-.96-.48,4.472,4.472,0,0,1-1.7.68,12.617,12.617,0,0,1-1.98-3.52c-.12-.36-.22-.72-.32-1.08a.607.607,0,0,0-1.2.12,13.054,13.054,0,0,0,1.4,3.56c.34.62,1.16,2.12,2.02,2.12a5.429,5.429,0,0,0,2.5-.92A.57.57,0,0,0,111.22,43.84Zm26.5-7.34a.585.585,0,0,0-.58-.6c-.24-.02-.48,0-.72-.02h-2.96c-.94,0-1.88,0-2.82.02-.4,0-.86-.02-1.26.02a.6.6,0,0,0-.58.62.616.616,0,0,0,.62.58c1.42,0,2.84-.04,4.26-.04h1.36c-1.76,1.5-3.66,4.32-3.66,6.7a5,5,0,0,0,2.58,4.82.651.651,0,0,0,.28.08.615.615,0,0,0,.6-.6.6.6,0,0,0-.34-.54,4.406,4.406,0,0,1-.64-.42,4.228,4.228,0,0,1-1.28-3.34c0-2.12,2.06-5,3.74-6.2a5.731,5.731,0,0,1,.98-.52A.6.6,0,0,0,137.72,36.5Zm19.82,3.42a.58.58,0,0,0-.58-.58.554.554,0,0,0-.18.02,9.219,9.219,0,0,1-2.08.34c-.02-.78-.04-1.56-.04-2.34a6.616,6.616,0,0,1,1.06.36.469.469,0,0,0,.24.04.587.587,0,0,0,.26-1.12,7.046,7.046,0,0,0-1.56-.48c0-.46.18-1.4-.54-1.4-.7,0-.64.72-.64,1.22-.44-.04-.88-.06-1.34-.06a7.99,7.99,0,0,0-1.38.08.6.6,0,0,0-.5.58.585.585,0,0,0,.58.6h.08a7.8,7.8,0,0,1,1.18-.08c.46,0,.92.04,1.38.08,0,.86.02,1.72.04,2.58-.42,0-.84.02-1.26.02-.78,0-1.56-.06-2.32-.06a.563.563,0,0,0-.62.56.586.586,0,0,0,.56.62c.84.06,1.7.06,2.54.06.38,0,.76,0,1.14-.02l.04,1.16c.02.72.08,1.42.08,2.14a7.89,7.89,0,0,0-2.06-.3c-1.36,0-2.68.42-2.68,2,0,1.34,1.6,2.4,2.84,2.4a3.016,3.016,0,0,0,2.8-2.48,2.262,2.262,0,0,1,.98.8.609.609,0,0,0,.54.36.63.63,0,0,0,.6-.6c0-.72-1.3-1.5-1.86-1.76v-.1c-.02-1.22-.04-2.46-.1-3.68a8.846,8.846,0,0,0,2.4-.38A.608.608,0,0,0,157.54,39.92Zm-4.06,5.5c-.22.84-.7,1.74-1.7,1.74-.56,0-1.66-.58-1.66-1.22,0-.8.88-.82,1.5-.82A6.575,6.575,0,0,1,153.48,45.42Zm28.34-10a.582.582,0,0,0-.48-.58,14.049,14.049,0,0,0-1.84-.26c-1.4-.16-2.8-.26-4.2-.32a9.378,9.378,0,0,0-.24-1.5.558.558,0,0,0-.56-.46.619.619,0,0,0-.62.6c0,.28.18.96.22,1.34h-.32a47.422,47.422,0,0,0-8.06.62,12.342,12.342,0,0,0-1.9.4.577.577,0,0,0-.44.56.615.615,0,0,0,.6.6.34.34,0,0,0,.14-.02,37.479,37.479,0,0,1,9.44-.96h.62v.52c0,.48-.02.98-.04,1.46a4.888,4.888,0,0,0-1.32-.18c-2.56,0-4.44,3.12-4.44,5.44,0,1.54.62,3.3,2.44,3.3,2.88,0,3.94-4.4,4.3-6.6a3.279,3.279,0,0,1,.8,2.16,13.414,13.414,0,0,1-2.1,6.86,14.527,14.527,0,0,1-.98,1.22.576.576,0,0,0-.18.42.615.615,0,0,0,.6.6.576.576,0,0,0,.42-.18c2.1-2.06,3.42-6,3.42-8.92a4.266,4.266,0,0,0-1.8-3.58c.06-.64.08-1.28.08-1.92v-.58a42.534,42.534,0,0,1,5.76.54h.1A.58.58,0,0,0,181.82,35.42Zm-7.8,3.22c-.2,1.56-1.08,6.14-3.2,6.14-1.06,0-1.24-1.28-1.24-2.1,0-1.64,1.36-4.24,3.24-4.24A3.516,3.516,0,0,1,174.02,38.64Zm19.92-3.82a.578.578,0,0,0-.6-.6.589.589,0,0,0-.6.52,26.394,26.394,0,0,0-.18,2.84c-.06,1.84-.14,3.66-.14,5.5,0,.44.02.98.62.98a.63.63,0,0,0,.6-.6c0-2.8.14-5.8.3-8.58Zm.08,14.34a.719.719,0,0,0-.04-.22c-.36-.96.26-2.78-.76-2.78a.615.615,0,0,0-.6.6c0,1.1-.06,2.98.8,2.98A.573.573,0,0,0,194.02,49.16Z" transform="translate(45 12386)" fill="#4a3a3d" stroke="#4a3a3d" stroke-width="0.5"/>
  </g>
</svg>
