<svg xmlns="http://www.w3.org/2000/svg" width="341.848" height="87.307" viewBox="0 0 341.848 87.307">
  <g id="グループ_168" data-name="グループ 168" transform="translate(-17.076 -15565.5)">
    <g id="グループ_88" data-name="グループ 88" transform="translate(18 15566)">
      <path id="パス_1" data-name="パス 1" d="M534.161,29.116v59.9h59.2L574.416,60.03,593.36,29.116Z" transform="translate(-253.36 -2.99)" fill="#ffc9ce" stroke="#947f6f" stroke-width="1"/>
      <path id="パス_2" data-name="パス 2" d="M534.232,153.646v15.261l33.586-15.261Z" transform="translate(-253.394 -82.877)" fill="#947f6f" stroke="#947f6f" stroke-width="1"/>
      <path id="パス_3" data-name="パス 3" d="M0,29.116,18.944,60.03,0,89.02H59.2v-59.9Z" transform="translate(0 -2.99)" fill="#ffc9ce" stroke="#947f6f" stroke-width="1"/>
      <path id="パス_4" data-name="パス 4" d="M75.818,153.646,110.4,168.907V153.646Z" transform="translate(-51.243 -82.877)" fill="#947f6f" stroke="#947f6f" stroke-width="1"/>
      <rect id="長方形_7" data-name="長方形 7" width="289.849" height="70.77" transform="translate(24.575 0)" fill="#ffc9ce" stroke="#947f6f" stroke-width="1"/>
    </g>
    <path id="パス_2311" data-name="パス 2311" d="M122.54,15.16a.576.576,0,0,0-.42-.54c-1.38-.46-3.18-2.38-4.2-3.42a.07.07,0,0,1-.02-.04l1.02-1.06c.24-.24.5-.48.72-.74a.546.546,0,0,0,.16-.38.566.566,0,0,0-.98-.4,24.372,24.372,0,0,0-1.72,1.8c-.6-.6-1.2-1.18-1.82-1.74.7-.56,1.4-1.12,2.14-1.62a.581.581,0,0,0,.28-.48.59.59,0,0,0-.58-.56,13,13,0,0,0-2.68,1.9c-.18-.2-.36-.42-.66-.42a.577.577,0,0,0-.56.58.6.6,0,0,0,.2.42c.42.4.88.78,1.3,1.18q1.23,1.14,2.4,2.34c1.06,1.06,3.22,3.38,4.7,3.74.04,0,.1.02.14.02A.568.568,0,0,0,122.54,15.16Zm-5.98-3.06a.546.546,0,0,0-.58-.58c-2.1,0-3.84.2-5.94.2h-.02a16.883,16.883,0,0,0,2.86-4.82c0-.04.02-.06.02-.1,0-1.02-3.08-1.26-3.74-1.26a.548.548,0,0,0-.58.54.559.559,0,0,0,.54.58,8.965,8.965,0,0,1,2.52.4,15.814,15.814,0,0,1-2.02,3.34c-.54-.44-1.04-.92-1.54-1.4-.18-.18-.36-.38-.54-.54a.6.6,0,0,0-.4-.16.559.559,0,0,0-.56.56.546.546,0,0,0,.16.38c.2.22.42.42.64.64.5.48,1,.98,1.54,1.42a24.971,24.971,0,0,1-4.08,4.14c-.34.26-.7.48-1.04.74a.554.554,0,0,0-.26.46.564.564,0,0,0,.56.58.587.587,0,0,0,.32-.08,23.757,23.757,0,0,0,5.12-4.8.535.535,0,0,0,.56.5h.04c2.04,0,3.74-.2,5.78-.2h.06A.559.559,0,0,0,116.56,12.1Zm.8,5.56a.564.564,0,0,0-.58-.56,21.285,21.285,0,0,0,.38-2.4.527.527,0,0,0-.32-.5,7.026,7.026,0,0,0-2.16-.22,25.807,25.807,0,0,0-4.16.28.659.659,0,0,0-.26.14c0-.08.02-.14.02-.2a.592.592,0,0,0-.54-.6c-.78,0-.62,1.02-.62,1.52a25.87,25.87,0,0,0,.14,3.32.561.561,0,0,0,.56.5.547.547,0,0,0,.54-.52c1.52-.06,3.04-.1,4.58-.14.62-.02,1.24,0,1.86-.04A.564.564,0,0,0,117.36,17.66Zm3.98,4.82a.569.569,0,0,0-.54-.56,11.857,11.857,0,0,0-1.46-.02c-1.34,0-2.7.02-4.04.04a10.179,10.179,0,0,0,.88-2.88.554.554,0,0,0-1.1-.08,8.782,8.782,0,0,1-1.1,2.98c-.62.02-1.26.04-1.88.04-.38-.84-.6-1.78-.94-2.62a.57.57,0,0,0-1.08.36,7.189,7.189,0,0,1,.24.7c.2.52.38,1.06.6,1.58-1.2.04-2.38.08-3.58.16a16.23,16.23,0,0,0-1.7.14.563.563,0,0,0,.06,1.12h.08c2.3-.2,4.62-.28,6.94-.34,2.16-.06,4.34-.1,6.5-.1.52,0,1.02.02,1.52.02A.553.553,0,0,0,121.34,22.48Zm-5.38-7.34c-.08.66-.2,1.34-.34,2-1.78.04-3.56.06-5.32.16-.02-.7-.04-1.4-.04-2.1a.493.493,0,0,0,.38.18c.04,0,.08-.02.12-.02a22.733,22.733,0,0,1,4.04-.26A11.241,11.241,0,0,1,115.96,15.14Zm26.4,4.68a.539.539,0,0,0-.28-.48,15.769,15.769,0,0,1-2.8-2.5h-.02l.1-.06c.7-.4,1.82-.96,2.44-1.42a.535.535,0,0,0,.24-.46.553.553,0,0,0-.84-.46c-1.02.62-2.1,1.16-3.12,1.8a.521.521,0,0,0-.26.48.563.563,0,0,0,.2.42c.62.62,3.08,3.24,3.8,3.24A.555.555,0,0,0,142.36,19.82Zm-.78-7.3a.555.555,0,0,0-.54-.56c-.46,0-.92.02-1.38.02a35.812,35.812,0,0,0,.3-4.38.555.555,0,0,0-.54-.56,20.115,20.115,0,0,0-4.48.38.56.56,0,0,0-.36.52.538.538,0,0,0,.54.54.851.851,0,0,0,.22-.04,17.078,17.078,0,0,1,3.52-.28c-.02.4-.04.82-.08,1.22a21.473,21.473,0,0,0-4.02.48.579.579,0,0,0-.4.52.572.572,0,0,0,.56.56.584.584,0,0,0,.18-.04,21.1,21.1,0,0,1,3.6-.42c-.04.52-.08,1.04-.16,1.54-1.24.06-4.66.26-5.64.96a.547.547,0,0,0,.3,1,.587.587,0,0,0,.32-.08,8.843,8.843,0,0,1,2.9-.62v4.26a29.219,29.219,0,0,1-3.86,2.08.555.555,0,0,0-.32.52.538.538,0,0,0,.54.54,29.2,29.2,0,0,0,3.62-1.82l-.04,2.2a6.279,6.279,0,0,1-.1,1.22.341.341,0,0,0-.02.14.59.59,0,0,0,.56.58.579.579,0,0,0,.52-.4c.28-.66.2-7.92.2-9.42,1.18-.08,2.34-.12,3.52-.12A.538.538,0,0,0,141.58,12.52Zm-5.96,4.6a.459.459,0,0,0-.08-.28,4.129,4.129,0,0,0-2.16-.76.526.526,0,0,0-.54.54.556.556,0,0,0,.48.54,6.756,6.756,0,0,1,1.36.38.546.546,0,0,0,.38.16A.59.59,0,0,0,135.62,17.12Zm-2.84-5.16c0-.52-2.82-4.16-3.32-4.74a1.24,1.24,0,0,0,.24-.58.542.542,0,0,0-.54-.56.562.562,0,0,0-.48.28,109.768,109.768,0,0,0-4.96,10,.551.551,0,0,0,1.06.22l.42-.94c.32-.7.66-1.38,1-2.08a.4.4,0,0,0,.26.08h.14c.16-.02.34-.08.52-.1.42-.06.84-.08,1.26-.1,0,.46-.02.94-.04,1.4a23.644,23.644,0,0,0-2.42.22.552.552,0,0,0,.06,1.1h.08c.24,0,.5-.06.74-.08.5-.06,1.02-.1,1.52-.12-.06,1.6-.08,3.2-.18,4.78a22.3,22.3,0,0,0-2.76.9.548.548,0,0,0-.32.5.569.569,0,0,0,.56.54.533.533,0,0,0,.24-.06,27.24,27.24,0,0,1,3.56-1.12,18.644,18.644,0,0,0,2.26-.68.561.561,0,0,0,.36-.52.547.547,0,0,0-.56-.56c-.12,0-1.98.58-2.22.66l.16-4.5q.99-.06,1.98-.06a.538.538,0,0,0,.54-.54.555.555,0,0,0-.54-.56c-.66,0-1.3.02-1.96.04l.06-1.38c.6-.02,1.2-.02,1.8-.02a.572.572,0,0,0,.56-.56.542.542,0,0,0-.56-.54,34.946,34.946,0,0,0-4.58.2c.7-1.42,1.44-2.82,2.18-4.22.74.9,1.42,1.86,2.08,2.84l.78,1.18a.529.529,0,0,0,.46.26A.59.59,0,0,0,132.78,11.96Zm-.9,4.78a.542.542,0,0,0-.56-.54.534.534,0,0,0-.52.4,13.176,13.176,0,0,1-1.1,2.56.459.459,0,0,0-.08.28.572.572,0,0,0,.56.56.548.548,0,0,0,.46-.28A14.5,14.5,0,0,0,131.88,16.74Zm-4.1,3.36a.482.482,0,0,0-.08-.3,14.259,14.259,0,0,1-1.02-2.5.554.554,0,0,0-1.08.16,11.705,11.705,0,0,0,1.16,2.92.554.554,0,0,0,.46.26A.542.542,0,0,0,127.78,20.1ZM155.12,9.28a8.479,8.479,0,0,0-1.66-3.24.642.642,0,0,0-.44-.2.585.585,0,0,0-.6.58.577.577,0,0,0,.14.4,8.256,8.256,0,0,1,1.38,2.54.592.592,0,0,0,1.18-.08Zm6.98,1.7a.613.613,0,0,0-.54-.64,11.757,11.757,0,0,0-1.2-.06c-.8-.02-1.62-.02-2.44-.02-3.2,0-6.4.08-9.6.26-.98.06-1.94.12-2.9.22a9.2,9.2,0,0,0-1.04.12.592.592,0,0,0,.08,1.18h.08c.72-.06,1.44-.16,2.16-.22,2.16-.16,4.34-.24,6.5-.3a25.325,25.325,0,0,1-4.78,6.98c-.44.42-.9.8-1.34,1.2a.569.569,0,0,0-.22.46.6.6,0,0,0,.58.6.682.682,0,0,0,.38-.14,25.049,25.049,0,0,0,6.68-9.14c.96-.02,1.94-.02,2.9-.02,1.36,0,2.7.02,4.06.08h.04A.594.594,0,0,0,162.1,10.98Zm-4.72,4.04c0-1.16-1.88-1.86-2.82-2.04-.04,0-.08-.02-.12-.02a.619.619,0,0,0-.6.62.6.6,0,0,0,.48.58c.5.14,1.6.46,1.88.9a13.037,13.037,0,0,1-1.1,4.22c-.2.44-1.18,2.46-1.78,2.46-.3,0-.98-.58-1.2-.78a.642.642,0,0,0-.44-.2.6.6,0,0,0-.6.6c0,.66,1.64,1.54,2.24,1.54C155.66,22.9,157.38,16.9,157.38,15.02Zm24.1-.24c0-.72-.74-.6-1.24-.6-1.32,0-2.66.02-3.98.08.06-1.44.1-2.88.14-4.32,1.08-.02,2.18-.04,3.26-.04.42,0,1.08.06,1.08-.56s-.58-.6-1.02-.6c-1.1,0-2.18.02-3.28.04.02-.76.04-1.5.04-2.26a.58.58,0,1,0-1.16,0c0,.76-.02,1.52-.04,2.28-.86.02-1.7.04-2.56.08A8.134,8.134,0,0,0,171.5,9a.6.6,0,0,0-.48.58.585.585,0,0,0,.6.58h.12l.9-.08c.86-.06,1.74-.08,2.6-.12l-.16,4.34q-1.26.03-2.52.12a9.246,9.246,0,0,0-1.3.1.567.567,0,0,0-.5.58.58.58,0,0,0,.58.58h.06c.9,0,1.8-.14,2.7-.18-.38.98-2.62,6.02-2.62,6.44a.59.59,0,0,0,.58.56h.06c.48,0,.96-.1,1.44-.14,1.08-.1,2.16-.2,3.24-.28.9-.06,1.78-.14,2.68-.22.12.38.18.76.28,1.14a.58.58,0,0,0,.58.46.552.552,0,0,0,.56-.58,25.8,25.8,0,0,0-1.44-4.64.6.6,0,0,0-.54-.36.609.609,0,0,0-.56.6c0,.14.68,1.92.78,2.24-2.06.2-4.14.34-6.2.54.8-1.94,1.7-3.84,2.42-5.8,1.62-.06,3.24-.14,4.86-.14C180.66,15.32,181.48,15.48,181.48,14.78Zm-11.12-4.36a.631.631,0,0,0-.14-.38c-.5-.6-2.96-1.18-3.76-1.18a.58.58,0,1,0-.04,1.16,9.112,9.112,0,0,1,2.92.78.606.606,0,0,0,.44.2A.58.58,0,0,0,170.36,10.42Zm-.56,4.26c0-.64-.56-.62-1.02-.62a14.35,14.35,0,0,0-3.5.32.622.622,0,0,0-.4.56.585.585,0,0,0,.6.58.711.711,0,0,0,.2-.04,13.256,13.256,0,0,1,3.1-.24C169.18,15.24,169.8,15.28,169.8,14.68Zm.38,3.86a.58.58,0,0,0-.58-.58.569.569,0,0,0-.46.22,10.957,10.957,0,0,1-.8.88,9.032,9.032,0,0,1-3.36,2.18.582.582,0,0,0,.06,1.16c1.34,0,4.26-2.44,5.02-3.5A.558.558,0,0,0,170.18,18.54Z" transform="translate(45 15587)" fill="#4a3a3d" stroke="#4a3a3d" stroke-width="0.5"/>
  </g>
</svg>
