<svg xmlns="http://www.w3.org/2000/svg" width="341.848" height="87.307" viewBox="0 0 341.848 87.307">
  <g id="グループ_169" data-name="グループ 169" transform="translate(-17.076 -16971.5)">
    <g id="グループ_91" data-name="グループ 91" transform="translate(18 16972)">
      <path id="パス_1" data-name="パス 1" d="M534.161,29.116v59.9h59.2L574.416,60.03,593.36,29.116Z" transform="translate(-253.36 -2.99)" fill="#ddfbfa" stroke="#947f6f" stroke-width="1"/>
      <path id="パス_2" data-name="パス 2" d="M534.232,153.646v15.261l33.586-15.261Z" transform="translate(-253.394 -82.877)" fill="#947f6f" stroke="#947f6f" stroke-width="1"/>
      <path id="パス_3" data-name="パス 3" d="M0,29.116,18.944,60.03,0,89.02H59.2v-59.9Z" transform="translate(0 -2.99)" fill="#ddfbfa" stroke="#947f6f" stroke-width="1"/>
      <path id="パス_4" data-name="パス 4" d="M75.818,153.646,110.4,168.907V153.646Z" transform="translate(-51.243 -82.877)" fill="#947f6f" stroke="#947f6f" stroke-width="1"/>
      <rect id="長方形_7" data-name="長方形 7" width="289.849" height="70.77" transform="translate(24.575 0)" fill="#ddfbfa" stroke="#947f6f" stroke-width="1"/>
    </g>
    <path id="パス_2312" data-name="パス 2312" d="M112.55,12.2c0-.95-1.325-.825-1.975-.825-1,0-2.025.075-3.025.175a17.311,17.311,0,0,0-.7-1.9.766.766,0,0,0-.7-.475.742.742,0,0,0-.725.725,16.851,16.851,0,0,0,.6,1.8c-.6.05-1.225.125-1.825.2l-3.575.35a.753.753,0,0,0-.725.775.764.764,0,0,0,.75.725c1.125,0,2.6-.25,3.725-.375l2.075-.225a12.978,12.978,0,0,1,.475,3.4,7.55,7.55,0,0,1-.4,2.475,1.063,1.063,0,0,0-.05.275.737.737,0,0,0,.75.75.729.729,0,0,0,.7-.475,8.138,8.138,0,0,0,.5-3,14.124,14.124,0,0,0-.475-3.55c.9-.075,1.8-.15,2.725-.15.375,0,.75.05,1.15.05A.726.726,0,0,0,112.55,12.2Zm-7.3,13.45a.769.769,0,0,0-.45-.7c-1.5-.775-2.625-3.275-2.85-4.9a.743.743,0,0,0-.75-.7.731.731,0,0,0-.725.75v.05c.1,2.05,1.75,5.3,3.7,6.175a.77.77,0,0,0,.325.075A.787.787,0,0,0,105.25,25.65Zm35.5-9.25c0-.8-.325-3.15-1.45-3.15a.747.747,0,0,0-.75.725.735.735,0,0,0,.225.55,3.189,3.189,0,0,1,.475,1.875,3.428,3.428,0,0,1-.3,1.5.692.692,0,0,0-.075.325.792.792,0,0,0,.75.775C140.575,19,140.75,17.075,140.75,16.4Zm-12.475,4.15a.75.75,0,0,0-1.2-.6,5.59,5.59,0,0,1-2.125.85c-.8-.625-2.1-3.425-2.475-4.4-.15-.45-.275-.9-.4-1.35a.758.758,0,0,0-1.5.15c0,.925,1.275,3.6,1.75,4.45.425.775,1.45,2.65,2.525,2.65a6.786,6.786,0,0,0,3.125-1.15A.713.713,0,0,0,128.275,20.55Zm37.6-11.95a6.31,6.31,0,0,0-.525-1.775.788.788,0,0,0-.675-.4.747.747,0,0,0-.725.75c0,.2.375,1.175.45,1.525a.772.772,0,0,0,.725.65A.737.737,0,0,0,165.875,8.6Zm-3.05,1.575a6.731,6.731,0,0,0-.475-1.525.758.758,0,0,0-1.45.325.666.666,0,0,0,.075.3,5.18,5.18,0,0,1,.35,1.05.754.754,0,0,0,.75.6A.787.787,0,0,0,162.825,10.175Zm-2.2,5.125c0-2.65-6.275-3.6-8.2-3.725h-.1a.74.74,0,0,0-.1,1.475c.775.125,1.575.225,2.35.375.6.1,4.55,1,4.55,1.875a.737.737,0,0,0,.75.75A.769.769,0,0,0,160.625,15.3Zm.775,8.25a.752.752,0,0,0-.75-.75.425.425,0,0,0-.175.025,15.6,15.6,0,0,1-3.4.4,13.892,13.892,0,0,1-6.475-1.55c-.375-.2-.725-.45-1.075-.675a.75.75,0,0,0-1.2.6.713.713,0,0,0,.3.6,5.549,5.549,0,0,0,1.225.75,15.618,15.618,0,0,0,7.275,1.75,13.945,13.945,0,0,0,3.675-.425A.727.727,0,0,0,161.4,23.55ZM188.975,14c0-1.375-1.875-1.575-2.9-1.575a8.16,8.16,0,0,0-2.325.325.751.751,0,0,0-.525.7.774.774,0,0,0,.75.775.74.74,0,0,0,.25-.05A6.07,6.07,0,0,1,186,13.95a5.046,5.046,0,0,1,1.375.15.692.692,0,0,0-.075.325.752.752,0,0,0,.75.75C188.625,15.175,188.975,14.5,188.975,14Zm-.575,8.7a.752.752,0,0,0-.5-.7,8.332,8.332,0,0,1-3.575-2.925.759.759,0,0,0-.675-.4.731.731,0,0,0-.75.725c0,1.15,3.65,4.05,4.75,4.05A.752.752,0,0,0,188.4,22.7Zm-12.125-9.275a.766.766,0,0,0-1.425-.375c-1.325,2.225-2.175,7-2.175,9.575a7.549,7.549,0,0,0,.425,2.8.743.743,0,0,0,.7.45,4.143,4.143,0,0,0,1.575-.575.736.736,0,0,0,.325-.6.774.774,0,0,0-.75-.775c-.25,0-.45.175-.675.25a7.692,7.692,0,0,1-.125-1.525,21.615,21.615,0,0,1,2.025-8.85A.927.927,0,0,0,176.275,13.425Z" transform="translate(45 16993)" fill="#4a3a3d" stroke="#4a3a3d" stroke-width="0.5"/>
  </g>
</svg>
