<svg xmlns="http://www.w3.org/2000/svg" width="23.18" height="30.95" viewBox="0 0 23.18 30.95">
  <path id="パス_22" data-name="パス 22" d="M11-1.26a1.237,1.237,0,0,0-.546-1.008l-.84-.672A41.807,41.807,0,0,1,6.384-6.384,17.611,17.611,0,0,0,10-17.094c0-5.88-2.688-13.356-9.7-13.356-7.35,0-11.97,8.862-11.97,15.33a19.631,19.631,0,0,0,.546,4.662c.63,2.73,2.52,6.846,5.88,6.846A10.418,10.418,0,0,0-1.176-5.25,1.237,1.237,0,0,0-.63-6.258a1.238,1.238,0,0,0-1.26-1.26c-.756,0-2.436,1.386-3.36,1.386A2.074,2.074,0,0,1-6.594-6.8c-1.974-1.848-2.6-5.754-2.6-8.316C-9.2-20.2-5.586-27.93.294-27.93c5.376,0,7.182,6.468,7.182,10.836a15.284,15.284,0,0,1-2.73,8.778C3.234-10.164,1.764-12.054.42-14.07c-.378-.63-.714-1.3-1.092-1.89a1.292,1.292,0,0,0-1.176-.756,1.255,1.255,0,0,0-1.218,1.26c0,1.386,5.082,7.728,6.132,8.988A6.23,6.23,0,0,1-.756-4.7a1.292,1.292,0,0,0-1.26,1.26A1.255,1.255,0,0,0-.756-2.226,8.5,8.5,0,0,0,4.662-4.578,28.882,28.882,0,0,0,9.072-.21,1.416,1.416,0,0,0,9.786,0,1.255,1.255,0,0,0,11-1.26Z" transform="translate(11.926 30.7)" fill="#0accc8" stroke="#0accc8" stroke-width="0.5"/>
</svg>
