<svg xmlns="http://www.w3.org/2000/svg" width="102.446" height="94.216" viewBox="0 0 102.446 94.216">
  <g id="グループ_129" data-name="グループ 129" transform="matrix(0.588, -0.809, 0.809, 0.588, -0.001, 41.902)">
    <g id="グループ_158" data-name="グループ 158" transform="translate(0 0)">
      <path id="パス_2199" data-name="パス 2199" d="M49.172,36.91c-2.861-1.968-6.053-1.814-9.3-1.1a17.075,17.075,0,0,0-5.514,1.874,19.579,19.579,0,0,0-3.092,2,75.813,75.813,0,0,0,.423-11.477,40.772,40.772,0,0,0-1.66-9.39c-.235-.992-.461-1.988-.724-2.976a2.185,2.185,0,0,0,.3-.643c1.783-.1,3.562-.192,5.35-.149a20.721,20.721,0,0,0,5.429-.394c2.349-.781,3.8-2.987,5.017-5.044a5.948,5.948,0,0,0-1.86-8.4,7.028,7.028,0,0,0-7.551-.211c-2.14,1.328-3.465,3.565-4.847,5.6a11.92,11.92,0,0,0-2.4,6.108,1.381,1.381,0,0,0-.6-.2,29.412,29.412,0,0,0-4.082-6.639c-1.15-1.209-2.456-2.261-3.626-3.455C19.785,1.91,18.223-.313,17.233.2c-.75.539-.247,1.346.256,1.819.784,1,1.539,2.028,2.367,3a64.433,64.433,0,0,1,4.792,5.975c.035.047.067.1.1.143C20.64,8.165,14.02,8.575,9.691,10.555c-2.251,1.62-4.89,3.493-5.485,6.374a8.209,8.209,0,0,0,6.234,8.777,13.351,13.351,0,0,0,1.627.1c6.055,0,11.222-4.177,15.556-8.314.926,4.547.688,9.242.653,13.863.009,3.1.247,6.219.007,9.318-.344.135-.686.269-1.035.4C25.276,37,20.569,33.929,16.2,33.049c-2.4-.472-5.136-.895-7.3.52-4.077,2.636-3.878,8.44-.7,11.731,2.4,2.569,6.179,2.85,9.484,3.132q.332.026.663.026c2.507,0,4.832-1.15,7.077-2.173.722-.332,1.436-.684,2.147-1.04-.378,1.612-.841,3.206-1.309,4.794-.631,2.161-1.387,4.776-2.147,6.969-1.389,4-2.427,8.114-3.892,12.084a2.23,2.23,0,0,0-.491.005c-.34-5.816-7.609-10.7-12.963-11.427-1.486-.212-3.175-.606-4.54.209a5.794,5.794,0,0,0-2.146,4.11A7.876,7.876,0,0,0,3.2,69.323c4.155,2.968,9.4,3.208,14.343,3.773-.748.7-1.558,1.349-2.339,1.993-2.348,1.985-4.326,4.253-6.673,6.3a22.562,22.562,0,0,1-4.218,2.957c-.306.145-.617.276-.916.439a2.584,2.584,0,0,0-.207,3.875A1.352,1.352,0,0,0,4.1,89a4.7,4.7,0,0,0,1.969-.743c3.939-2.227,6.532-6.088,9.567-9.328a70.73,70.73,0,0,0,4.531-5.588c.092,0,.181-.009.271-.019a20.467,20.467,0,0,0,2.7,3.068c3.127,3.189,7.051,6.153,11.633,6.568h.083a6.228,6.228,0,0,0,4.588-1.636A8.648,8.648,0,0,0,40.452,71.8a8.305,8.305,0,0,0-3.567-2.826c-4.232-2.241-9.948-1.009-14.246.515a1.785,1.785,0,0,0-.394-.3c.057-.143.117-.283.174-.427C24,65,26.138,61.513,27.779,57.788A33.4,33.4,0,0,0,30.027,49.8c.24-1.216.394-2.443.523-3.673.43.162.871.294,1.28.408,1.67.375,3.351.688,4.991,1.2,2.215.715,4.4,1.748,6.751,1.864.269.017.542.026.815.026a6.677,6.677,0,0,0,5.637-2.382c2.532-2.883,2.434-8.06-.852-10.335" transform="translate(0 0.001)" fill="#80bd72"/>
    </g>
  </g>
</svg>
