<svg xmlns="http://www.w3.org/2000/svg" width="341.705" height="97.307" viewBox="0 0 341.705 97.307">
  <g id="グループ_154" data-name="グループ 154" transform="translate(-17.147 -1640.5)">
    <g id="グループ_7" data-name="グループ 7" transform="translate(18 1641)">
      <path id="パス_1" data-name="パス 1" d="M534.161,29.116V99.075h59.2L574.416,65.218l18.944-36.1Z" transform="translate(-253.36 -2.99)" fill="#ddfbfa" stroke="#947f6f" stroke-width="1"/>
      <path id="パス_2" data-name="パス 2" d="M534.232,153.646v15.261l33.586-15.261Z" transform="translate(-253.394 -72.877)" fill="#947f6f" stroke="#947f6f" stroke-width="1"/>
      <path id="パス_3" data-name="パス 3" d="M0,29.116l18.944,36.1L0,99.075H59.2V29.116Z" transform="translate(0 -2.99)" fill="#ddfbfa" stroke="#947f6f" stroke-width="1"/>
      <path id="パス_4" data-name="パス 4" d="M75.818,153.646,110.4,168.907V153.646Z" transform="translate(-51.243 -72.877)" fill="#947f6f" stroke="#947f6f" stroke-width="1"/>
      <rect id="長方形_7" data-name="長方形 7" width="289.849" height="80.77" transform="translate(24.575 0)" fill="#ddfbfa" stroke="#947f6f" stroke-width="1"/>
    </g>
    <path id="パス_2295" data-name="パス 2295" d="M60.92,16.8a4.835,4.835,0,0,0-3.26-4.76,12.974,12.974,0,0,0,.26-1.7.592.592,0,0,0-1.18-.06c-.08.48-.14.96-.24,1.44a10.573,10.573,0,0,0-1.6-.12,8.551,8.551,0,0,0-2.02.2,30.5,30.5,0,0,1,.3-3.58c1.34-.04,2.7-.08,4.04-.08.62,0,1.22.04,1.84.04A.591.591,0,0,0,59.12,7a17.707,17.707,0,0,0-2.06-.04c-1.22,0-2.44.02-3.66.08.06-.24.36-1.1.36-1.26a.594.594,0,0,0-1.14-.22,6.627,6.627,0,0,0-.44,1.52,20.924,20.924,0,0,0-4.12.5.585.585,0,0,0,.18,1.14.68.68,0,0,0,.2-.02,17.28,17.28,0,0,1,3.52-.42,27.055,27.055,0,0,0-.28,3.82c-2.9.96-6.18,3.78-6.18,7.08a2.484,2.484,0,0,0,2.74,2.7,5.258,5.258,0,0,0,1.66-.28c4.02-1.34,6.38-4.38,7.48-8.4a3.646,3.646,0,0,1,2.36,3.6c0,2.02-1.62,3.9-3.22,4.96a13.211,13.211,0,0,1-1.26.7.587.587,0,0,0-.36.54.615.615,0,0,0,.6.6.533.533,0,0,0,.24-.06C58.28,22.4,60.92,19.76,60.92,16.8Zm-4.68-3.92c-.98,3.66-3.04,6.36-6.7,7.6a4.1,4.1,0,0,1-1.28.22c-1.08,0-1.58-.46-1.58-1.54,0-2.66,2.74-4.92,5.02-5.8a13.856,13.856,0,0,0,.7,4.38.569.569,0,0,0,.54.34.585.585,0,0,0,.6-.58.533.533,0,0,0-.06-.24,13.307,13.307,0,0,1-.6-4.26,7.934,7.934,0,0,1,2.06-.22A9.484,9.484,0,0,1,56.24,12.88Zm23.7-.58a.616.616,0,0,0-.28-.5,7.736,7.736,0,0,0-1.98-.68.6.6,0,0,0-.58.6.618.618,0,0,0,.52.58c.4.08,1.52.58,1.72.58A.573.573,0,0,0,79.94,12.3ZM75.68,8.38a.58.58,0,0,0-.58-.58.706.706,0,0,0-.28.06,3.823,3.823,0,0,1-1.7.36,6.68,6.68,0,0,1-1.4-.16,2.467,2.467,0,0,0,.24-.74.577.577,0,0,0-.58-.56c-.52,0-.62.6-.8.98a8.591,8.591,0,0,1-1.14-.56.553.553,0,0,0-.32-.1.6.6,0,0,0-.58.6.589.589,0,0,0,.26.48,5.113,5.113,0,0,0,1.28.64,23.671,23.671,0,0,1-4.8,6.8.559.559,0,0,0-.22.44.589.589,0,0,0,.6.6.6.6,0,0,0,.36-.12c1.9-1.5,4.12-5.16,5.2-7.36a8.494,8.494,0,0,0,1.88.24C73.7,9.4,75.68,9.2,75.68,8.38Zm1.9,11.9c0-.04-.02-.08-.02-.12a4.283,4.283,0,0,0-2.24-2.96c0-1.02,0-3.84.74-4.62a.54.54,0,0,0,.2-.44.58.58,0,0,0-.58-.58.631.631,0,0,0-.38.14c-1.04.82-1.12,3.82-1.14,5.04a4.947,4.947,0,0,0-1.2-.16c-1.56,0-3.14.92-3.14,2.64a2.416,2.416,0,0,0,2.4,2.7c1.96,0,2.96-1.52,3.1-3.32a3.066,3.066,0,0,1,1.08,1.8.6.6,0,0,0,.58.48A.615.615,0,0,0,77.58,20.28Zm-3.42-2.32c0,1.3-.32,2.78-1.94,2.78-.92,0-1.22-.72-1.22-1.52,0-1.04,1.08-1.46,1.96-1.46A4.078,4.078,0,0,1,74.16,17.96Zm25.98-4.34c0-.72-1.08-.76-1.6-.76a8.149,8.149,0,0,0-3.22.74.6.6,0,0,0,.28,1.14.554.554,0,0,0,.26-.06,7.029,7.029,0,0,1,2.7-.64,2.418,2.418,0,0,1,.76.12,1,1,0,0,0,.24.04A.58.58,0,0,0,100.14,13.62Zm-.08,6.88a.578.578,0,0,0-.58-.62,9.4,9.4,0,0,1-3.4-.8.553.553,0,0,0-.32-.1.624.624,0,0,0-.6.64.562.562,0,0,0,.28.48,10.42,10.42,0,0,0,4,.98A.6.6,0,0,0,100.06,20.5ZM94.54,9.52a.589.589,0,0,0-.6-.6.44.44,0,0,0-.16.02,13.124,13.124,0,0,1-2.16.34.65.65,0,0,0,.22-.5.6.6,0,0,0-.6-.58.609.609,0,0,0-.48.22,7.156,7.156,0,0,0-.58.92c-.78,0-1.56-.08-2.34-.14h-.08a.573.573,0,0,0-.58.6.587.587,0,0,0,.52.6c.6.1,1.24.1,1.84.14-1.26,2.42-3.26,7.22-3.26,9.8,0,.48.04,1.42.7,1.42a.633.633,0,0,0,.62-.6c0-.22-.12-.5-.12-.84,0-2.4,2.24-7.6,3.4-9.78a13.3,13.3,0,0,0,3.22-.44A.6.6,0,0,0,94.54,9.52Zm27.1,7.76a.619.619,0,0,0-.48-.6,15.255,15.255,0,0,0-2.32-.42c.04-.46.04-.92.04-1.38,0-1.26-.06-2.52-.16-3.78.38.02.8.08,1.18.08a.591.591,0,0,0,.04-1.18c-.44-.06-.88-.08-1.32-.1-.04-.48.02-1.4-.66-1.4a.6.6,0,0,0-.6.6c0,.26.06.54.08.8-1.18.04-3,.24-3.88,1.14a.576.576,0,0,0-.18.42.615.615,0,0,0,.6.6.645.645,0,0,0,.42-.16,5.187,5.187,0,0,1,3.14-.82c.1,1.24.16,2.5.16,3.76,0,.42,0,.86-.04,1.28-.34-.02-.66-.04-1-.04-1.22,0-3.56.26-3.56,1.94a2.521,2.521,0,0,0,2.76,2.32c1.4,0,2.38-1.78,2.76-2.92a21.785,21.785,0,0,1,2.28.42.34.34,0,0,0,.14.02A.6.6,0,0,0,121.64,17.28Zm-12.42,3.3a.58.58,0,0,0-.58-.58c-.3,0-.96.48-1.3.62a5.915,5.915,0,0,1-.4-2.52,25.473,25.473,0,0,1,1.22-7.58.719.719,0,0,0,.04-.22.589.589,0,0,0-1.14-.22,27.674,27.674,0,0,0-1.32,8.08c0,.9.08,3.68,1.52,3.68a2.692,2.692,0,0,0,1.26-.52c.12-.08.26-.12.38-.2A.63.63,0,0,0,109.22,20.58Zm8.18-3.28c-.18.52-.88,1.86-1.54,1.86-.68,0-1.58-.32-1.58-1.14,0-.12.1-.2.18-.28a4.137,4.137,0,0,1,2.2-.48C116.9,17.26,117.16,17.28,117.4,17.3Zm24.32-9.34a.6.6,0,0,0-.56-.64c-.4-.06-.84-.04-1.24-.06-.98-.04-1.96-.06-2.96-.06-1.98,0-3.98.06-5.98.16-1.56.08-3.14.2-4.68.42a7.757,7.757,0,0,0-1.54.28.6.6,0,0,0-.44.58.615.615,0,0,0,.6.6.44.44,0,0,0,.16-.02,21.905,21.905,0,0,1,3.22-.46c1.46-.12,2.94-.2,4.42-.26-.08,1.94-.08,3.9-.08,5.84,0,2.16,0,4.34.08,6.5.02.26.06,1.34.12,1.56.1.3.26.5.6.5a.573.573,0,0,0,.58-.6v-.1a28.9,28.9,0,0,1-.12-2.94c-.04-1.84-.06-3.7-.06-5.54.82.22,1.66.4,2.48.6.42.1.84.18,1.24.3a.34.34,0,0,0,.14.02.615.615,0,0,0,.6-.6.6.6,0,0,0-.48-.58c-.4-.14-.88-.2-1.28-.3l-2.68-.66c0-1.34,0-2.7.06-4.04,1.04-.04,2.08-.04,3.14-.04,1.34,0,2.68.06,4.02.1h.04A.58.58,0,0,0,141.72,7.96Zm20.76,10.72a.572.572,0,0,0-.56-.56.545.545,0,0,0-.42.18c-.72.64-2.64,2.06-3.58,2.06a11.852,11.852,0,0,1-3.3-.46,2.175,2.175,0,0,1-.02-.36c0-1.5.26-3,.4-4.5,1.1-.08,2.22-.12,3.34-.12a.572.572,0,0,0,.56-.56.587.587,0,0,0-.24-.46,15.857,15.857,0,0,0,.74-4.54.576.576,0,0,0-.42-.56,8.493,8.493,0,0,0-1.76-.12,17.639,17.639,0,0,0-3.12.22.57.57,0,0,0,.14,1.12.34.34,0,0,0,.14-.02,13.067,13.067,0,0,1,2.94-.2c.3,0,.62,0,.92.02a13.771,13.771,0,0,1-.76,3.98c-.8.02-1.58.04-2.38.1a7.451,7.451,0,0,0-.94.08.576.576,0,0,0-.48.56.606.606,0,0,0,.2.44c-.14,1.48-.4,3-.4,4.48a2.175,2.175,0,0,0,.2,1.08c.56.8,3.26.94,4.24.94,1.16,0,2.84-1.14,3.72-1.84a4.733,4.733,0,0,0,.68-.58A.546.546,0,0,0,162.48,18.68ZM150.1,8.28c0-.62-1.16-2.3-1.8-2.3A.57.57,0,0,0,147.96,7a3.668,3.668,0,0,1,1,1.3.559.559,0,0,0,.58.54A.572.572,0,0,0,150.1,8.28Zm3,1.92a.562.562,0,0,0-.52-.6,8.283,8.283,0,0,0-1.22-.02c-1.68,0-3.36.06-5.04.14a21.419,21.419,0,0,0-2.3.18.563.563,0,0,0,.08,1.12h.08c.42,0,.84-.08,1.26-.12,1.88-.12,3.8-.2,5.7-.2.46,0,.92.04,1.38.04A.559.559,0,0,0,153.1,10.2Zm-1.9,2.44c0-.72-1-.6-1.46-.6a17.791,17.791,0,0,0-3.12.2.6.6,0,0,0-.44.56.564.564,0,0,0,.58.56c.04,0,.08-.02.12-.02a16.349,16.349,0,0,1,2.96-.18c.28,0,.54.02.8.02A.555.555,0,0,0,151.2,12.64Zm.2,2.62c0-.66-.78-.58-1.22-.58a19.63,19.63,0,0,0-3.64.26.559.559,0,0,0,.14,1.1.34.34,0,0,0,.14-.02,21.319,21.319,0,0,1,3.44-.22C150.68,15.8,151.4,15.94,151.4,15.26Zm.06,6.14a.555.555,0,0,0-.44-.54,23.6,23.6,0,0,0,.16-2.92c0-.7-1.08-.66-1.56-.66a8.621,8.621,0,0,0-2.26.26.555.555,0,0,0-.54-.44c-.72,0-.58,1-.58,1.46a19.156,19.156,0,0,0,.22,3.42.561.561,0,0,0,1.08.02c.9-.02,1.78-.06,2.68-.06.24,0,.46.02.7.02A.555.555,0,0,0,151.46,21.4Zm-1.42-3a19.637,19.637,0,0,1-.14,2.42c-.82.02-1.62.04-2.44.08-.06-.76-.1-1.52-.1-2.28a.554.554,0,0,0,.18.02.3.3,0,0,0,.14-.02,6.377,6.377,0,0,1,1.94-.24C149.76,18.38,149.9,18.4,150.04,18.4Zm28.74-3.9c0-3.34-2.1-5.36-5.44-5.36-3.54,0-7.02,2.34-7.02,6.14a3.26,3.26,0,0,0,3.16,3.4c1.9,0,3.54-2.28,4.14-3.86a7.1,7.1,0,0,0,.46-2.5,3.967,3.967,0,0,0-.66-2,3.848,3.848,0,0,1,4.18,4.18,8.388,8.388,0,0,1-2.22,5.18c-.32.34-.66.6-1,.9a.6.6,0,0,0-.24.48.615.615,0,0,0,.6.6.6.6,0,0,0,.36-.12A9.581,9.581,0,0,0,178.78,14.5Zm-5.9-2.18a6.069,6.069,0,0,1-2.18,4.62,2.331,2.331,0,0,1-1.22.54,2.062,2.062,0,0,1-1.98-2.2c0-2.6,2.1-4.34,4.5-4.82.02.08.06.1.12.16A2.615,2.615,0,0,1,172.88,12.32ZM200.4,22.44a8.374,8.374,0,0,0-1.92-2.5.558.558,0,0,0-.36-.12.577.577,0,0,0-.56.58.559.559,0,0,0,.22.44,9.739,9.739,0,0,1,1.58,1.92.565.565,0,0,0,1.04-.32Zm-9.06-10.5c0-.5-.38-.58-.78-.58-1.2,0-2.4.06-3.6.14a10.913,10.913,0,0,0-1.98.22.565.565,0,0,0,.12,1.12c.04,0,.08-.02.12-.02a16.932,16.932,0,0,1,2-.2c0,1.12,0,2.26-.04,3.38a19.215,19.215,0,0,1-.14,2.14c-.78.2-1.6.38-2.36.64a.577.577,0,0,0-.44.56.564.564,0,0,0,.58.56,52.117,52.117,0,0,0,6.12-1.88.6.6,0,0,0,.34-.52.576.576,0,0,0-.58-.56.851.851,0,0,0-.22.04c-.74.3-1.5.56-2.26.8.16-1.72.12-3.48.12-5.22.76-.04,1.5-.08,2.26-.08C190.94,12.48,191.34,12.38,191.34,11.94Zm2.38-2.8c.46-.82.94-1.62,1.46-2.4,1.26-.04,2.5-.06,3.76-.06.64,0,1.3,0,1.94.02.26.02.54.04.8.04a.574.574,0,0,0,.6-.52.582.582,0,0,0-.54-.62c-.3-.04-.6-.02-.9-.04-.66,0-1.32-.02-1.96-.02-1.94,0-3.88.04-5.8.14a19.126,19.126,0,0,0-3.06.28.563.563,0,0,0,.1,1.12.254.254,0,0,0,.12-.02,25.914,25.914,0,0,1,3.56-.28,17.39,17.39,0,0,0-1.66,3.1c-.06.48-.02,1.54-.02,2.04,0,1.5.02,3.02.04,4.52a18.719,18.719,0,0,0,.1,2.14.579.579,0,0,0,.56.5.12.12,0,0,0,.08-.02.55.55,0,0,0,.48-.58,30.135,30.135,0,0,1,3.3-.2,19.937,19.937,0,0,1-3.88,3.58l-.78.46a.575.575,0,0,0,.26,1.08.4.4,0,0,0,.26-.08,17.693,17.693,0,0,0,4.56-4.08,12.66,12.66,0,0,0,.94-1.12.5.5,0,0,0,.12-.34c0-.58-.56-.56-.98-.56a35.553,35.553,0,0,0-3.86.12l-.04-1.76c1.62-.14,3.24-.2,4.86-.2h.58c-.06.84-.1,1.68-.24,2.52V18a.572.572,0,0,0,.56.56.561.561,0,0,0,.56-.48,25.581,25.581,0,0,0,.28-3.06q.12-2.67.12-5.34a.56.56,0,0,0-.44-.56,11.412,11.412,0,0,0-2.2-.14,12.606,12.606,0,0,0-3.18.24.8.8,0,0,0-.3.6c0,.38.34.46.56.46.04,0,.08-.02.12-.02a12.081,12.081,0,0,1,2.82-.14c.48,0,.98,0,1.48.04v.4c0,.32,0,.66-.02.98a39.94,39.94,0,0,0-5.58.22v-.7c0-.32.02-.8.04-1.14Zm5.1,3.52c-.02.52-.02,1.06-.06,1.58a50.554,50.554,0,0,0-5.5.2V12.9a37.289,37.289,0,0,1,5.18-.24Zm20.46,8.68a.6.6,0,0,0-.64-.62h-.14c.16-1.72.18-3.48.2-5.2.06-2.5.06-5,.06-7.5,0-.4-.02-.68-.48-.82a17.145,17.145,0,0,0-3.06-.16A40.272,40.272,0,0,0,209,7.4a1.513,1.513,0,0,0,.02-.3.568.568,0,0,0-.58-.58.574.574,0,0,0-.6.52,5.644,5.644,0,0,0-.06,1.16q-.06,1.14-.06,2.28c-.06,2.56-.08,5.14-.08,7.7,0,1.08,0,2.14.02,3.22a9.221,9.221,0,0,0,.04,1.3.606.606,0,0,0,.6.54.594.594,0,0,0,.6-.62c0-.12-.02-.26-.02-.38,1.18-.12,2.36-.16,3.54-.22,1.74-.06,3.48-.12,5.22-.12.32,0,.7.04,1.02.02A.6.6,0,0,0,219.28,21.34Zm-1.72-9.6h-.54c-1.54,0-3.08.04-4.62.08-1.16.06-2.36.1-3.52.22.02-1.16.02-2.3.08-3.46a.82.82,0,0,0,.22.02c.44-.04.86-.12,1.3-.18,1.6-.14,3.2-.2,4.8-.2a21.715,21.715,0,0,1,2.28.08Zm0,1.18L217.5,16h-.34c-2.76-.02-5.56.1-8.32.26,0-1.02.02-2.02.02-3.04,1.26-.14,2.54-.16,3.8-.2C214.3,12.96,215.92,12.92,217.56,12.92Zm-.08,4.28c-.04,1.16-.06,2.34-.18,3.5-1.64.02-3.26.06-4.88.14-1.2.04-2.38.1-3.56.22-.02-.96-.02-1.9-.02-2.86v-.74c1.3-.1,2.62-.14,3.92-.18,1.44-.04,2.9-.08,4.36-.08Zm22.3-5.6c0-1.1-1.5-1.26-2.32-1.26a6.528,6.528,0,0,0-1.86.26.6.6,0,0,0-.42.56.619.619,0,0,0,.6.62.592.592,0,0,0,.2-.04,4.856,4.856,0,0,1,1.42-.18,4.037,4.037,0,0,1,1.1.12.554.554,0,0,0-.06.26.6.6,0,0,0,.6.6C239.5,12.54,239.78,12,239.78,11.6Zm-.46,6.96a.6.6,0,0,0-.4-.56,6.665,6.665,0,0,1-2.86-2.34.607.607,0,0,0-.54-.32.585.585,0,0,0-.6.58c0,.92,2.92,3.24,3.8,3.24A.6.6,0,0,0,239.32,18.56Zm-9.7-7.42a.613.613,0,0,0-1.14-.3,18.977,18.977,0,0,0-1.74,7.66,6.04,6.04,0,0,0,.34,2.24.6.6,0,0,0,.56.36,3.314,3.314,0,0,0,1.26-.46.589.589,0,0,0,.26-.48.619.619,0,0,0-.6-.62c-.2,0-.36.14-.54.2a6.153,6.153,0,0,1-.1-1.22,17.292,17.292,0,0,1,1.62-7.08A.741.741,0,0,0,229.62,11.14ZM41.2,40.52c0-.64-.26-2.52-1.16-2.52a.6.6,0,0,0-.6.58.588.588,0,0,0,.18.44,2.551,2.551,0,0,1,.38,1.5,2.742,2.742,0,0,1-.24,1.2.554.554,0,0,0-.06.26.633.633,0,0,0,.6.62C41.06,42.6,41.2,41.06,41.2,40.52Zm-9.98,3.32a.6.6,0,0,0-.96-.48,4.472,4.472,0,0,1-1.7.68,12.618,12.618,0,0,1-1.98-3.52c-.12-.36-.22-.72-.32-1.08a.607.607,0,0,0-1.2.12,13.054,13.054,0,0,0,1.4,3.56c.34.62,1.16,2.12,2.02,2.12a5.428,5.428,0,0,0,2.5-.92A.57.57,0,0,0,31.22,43.84Zm24.84-8.22a.6.6,0,0,0-.6-.6.545.545,0,0,0-.42.18c-.54.48-1.14,1.16-1.66,1.68l-3.9,3.88c-.14.14-.32.3-.46.46a.667.667,0,0,0-.18.46.65.65,0,0,0,.24.44c.86.82,1.64,1.7,2.42,2.6.78.92,1.58,1.84,2.32,2.8l.66.96a.589.589,0,0,0,.5.3.615.615,0,0,0,.6-.6.587.587,0,0,0-.08-.32,23.271,23.271,0,0,0-1.92-2.52c-1.04-1.28-2.12-2.54-3.28-3.72l.02-.02,3.7-3.68,1.3-1.3.56-.58A.545.545,0,0,0,56.06,35.62Zm23.2,4.92c0-2.62-2.82-2.78-4.78-2.78-1.42,0-6.14.56-6.84,1.92a.639.639,0,0,0-.06.28.58.58,0,0,0,.58.58c.3,0,.38-.12.54-.32.46-.54,3.28-1.04,3.98-1.14a13.6,13.6,0,0,1,1.8-.12c.84,0,2.86,0,3.4.84a1.356,1.356,0,0,1,.18.74c0,1.76-3.14,4.44-4.48,5.36a6.617,6.617,0,0,1-.94.58l-.44.22a.6.6,0,0,0-.36.56.573.573,0,0,0,.6.58.507.507,0,0,0,.24-.04C74.86,46.86,79.26,43.08,79.26,40.54ZM99.7,35.5a.585.585,0,0,0-.6-.58.548.548,0,0,0-.5.32l-.18.28c-.58.9-1.16,1.82-1.68,2.78-.12.22-.56,1.16-.7,1.32a.642.642,0,0,0-.2.44.585.585,0,0,0,.6.58.6.6,0,0,0,.4-.16,36.083,36.083,0,0,0,2.78-4.68A.741.741,0,0,0,99.7,35.5Zm-.58,6.4a.588.588,0,0,0-.6-.64H96.76c-1.02,0-2.04,0-3.06.04.02-1.52.1-3.04.18-4.54.06-1.18.12-2.34.28-3.5v-.1A.585.585,0,0,0,93,33.08c-.12.5-.2,2.08-.24,2.66-.12,1.86-.24,3.72-.26,5.58a31.654,31.654,0,0,0-4.64.34.6.6,0,0,0-.44.58.58.58,0,0,0,.58.58.44.44,0,0,0,.16-.02,17.673,17.673,0,0,1,3.42-.26c2.1-.08,4.2-.1,6.3-.1-.1.82-.2,1.62-.32,2.44-.76-.04-1.52-.04-2.28-.04-1.62,0-3.26.04-4.88.12a21.147,21.147,0,0,0-2.28.14.592.592,0,0,0,.06,1.18h.06c2.36,0,4.68-.26,7.04-.26.7,0,1.4,0,2.1.04-.16.92-.3,1.84-.54,2.74-2.06.02-4.12.08-6.18.16a25.556,25.556,0,0,0-2.84.22.582.582,0,0,0-.48.58.6.6,0,0,0,.58.6c.04,0,.06-.02.1-.02a25.957,25.957,0,0,1,3.08-.22c1.94-.08,3.88-.14,5.82-.16a.628.628,0,0,0,.32.12.6.6,0,0,0,.56-.4A48.592,48.592,0,0,0,99.12,41.9Zm-9.08-1.74a.564.564,0,0,0-.08-.3,20.915,20.915,0,0,1-1.48-3.96.618.618,0,0,0-.58-.44.6.6,0,0,0-.58.6,21.427,21.427,0,0,0,1.62,4.4.622.622,0,0,0,.52.3A.6.6,0,0,0,90.04,40.16Zm27.68-3.66a.585.585,0,0,0-.58-.6c-.24-.02-.48,0-.72-.02h-2.96c-.94,0-1.88,0-2.82.02-.4,0-.86-.02-1.26.02a.6.6,0,0,0-.58.62.616.616,0,0,0,.62.58c1.42,0,2.84-.04,4.26-.04h1.36c-1.76,1.5-3.66,4.32-3.66,6.7a5,5,0,0,0,2.58,4.82.651.651,0,0,0,.28.08.615.615,0,0,0,.6-.6.6.6,0,0,0-.34-.54,4.406,4.406,0,0,1-.64-.42,4.228,4.228,0,0,1-1.28-3.34c0-2.12,2.06-5,3.74-6.2a5.732,5.732,0,0,1,.98-.52A.6.6,0,0,0,117.72,36.5Zm23.92,7.78a.619.619,0,0,0-.48-.6,15.255,15.255,0,0,0-2.32-.42c.04-.46.04-.92.04-1.38,0-1.26-.06-2.52-.16-3.78.38.02.8.08,1.18.08a.591.591,0,0,0,.04-1.18c-.44-.06-.88-.08-1.32-.1-.04-.48.02-1.4-.66-1.4a.6.6,0,0,0-.6.6c0,.26.06.54.08.8-1.18.04-3,.24-3.88,1.14a.576.576,0,0,0-.18.42.615.615,0,0,0,.6.6.645.645,0,0,0,.42-.16,5.187,5.187,0,0,1,3.14-.82c.1,1.24.16,2.5.16,3.76,0,.42,0,.86-.04,1.28-.34-.02-.66-.04-1-.04-1.22,0-3.56.26-3.56,1.94a2.521,2.521,0,0,0,2.76,2.32c1.4,0,2.38-1.78,2.76-2.92a21.785,21.785,0,0,1,2.28.42.34.34,0,0,0,.14.02A.6.6,0,0,0,141.64,44.28Zm-12.42,3.3a.58.58,0,0,0-.58-.58c-.3,0-.96.48-1.3.62a5.915,5.915,0,0,1-.4-2.52,25.473,25.473,0,0,1,1.22-7.58.719.719,0,0,0,.04-.22.589.589,0,0,0-1.14-.22,27.674,27.674,0,0,0-1.32,8.08c0,.9.08,3.68,1.52,3.68a2.692,2.692,0,0,0,1.26-.52c.12-.08.26-.12.38-.2A.63.63,0,0,0,129.22,47.58Zm8.18-3.28c-.18.52-.88,1.86-1.54,1.86-.68,0-1.58-.32-1.58-1.14,0-.12.1-.2.18-.28a4.137,4.137,0,0,1,2.2-.48C136.9,44.26,137.16,44.28,137.4,44.3Zm20.14-4.38a.58.58,0,0,0-.58-.58.554.554,0,0,0-.18.02,9.219,9.219,0,0,1-2.08.34c-.02-.78-.04-1.56-.04-2.34a6.616,6.616,0,0,1,1.06.36.469.469,0,0,0,.24.04.587.587,0,0,0,.26-1.12,7.046,7.046,0,0,0-1.56-.48c0-.46.18-1.4-.54-1.4-.7,0-.64.72-.64,1.22-.44-.04-.88-.06-1.34-.06a7.99,7.99,0,0,0-1.38.08.6.6,0,0,0-.5.58.585.585,0,0,0,.58.6h.08a7.8,7.8,0,0,1,1.18-.08c.46,0,.92.04,1.38.08,0,.86.02,1.72.04,2.58-.42,0-.84.02-1.26.02-.78,0-1.56-.06-2.32-.06a.563.563,0,0,0-.62.56.586.586,0,0,0,.56.62c.84.06,1.7.06,2.54.06.38,0,.76,0,1.14-.02l.04,1.16c.02.72.08,1.42.08,2.14a7.89,7.89,0,0,0-2.06-.3c-1.36,0-2.68.42-2.68,2,0,1.34,1.6,2.4,2.84,2.4a3.016,3.016,0,0,0,2.8-2.48,2.262,2.262,0,0,1,.98.8.609.609,0,0,0,.54.36.63.63,0,0,0,.6-.6c0-.72-1.3-1.5-1.86-1.76v-.1c-.02-1.22-.04-2.46-.1-3.68a8.846,8.846,0,0,0,2.4-.38A.608.608,0,0,0,157.54,39.92Zm-4.06,5.5c-.22.84-.7,1.74-1.7,1.74-.56,0-1.66-.58-1.66-1.22,0-.8.88-.82,1.5-.82A6.575,6.575,0,0,1,153.48,45.42ZM177.3,37.5a.589.589,0,0,0-.6-.6.6.6,0,0,0-.6.52c-.06.26-.08.52-.12.8-.08.54-.18,1.06-.28,1.6a33.215,33.215,0,0,1-2.44,8.06.838.838,0,0,0-.08.3.613.613,0,0,0,1.14.28,6.3,6.3,0,0,0,.54-1.18,34.9,34.9,0,0,0,2.44-9.7Zm-5.08-1.38a.6.6,0,0,0-.6-.6.625.625,0,0,0-.5.26,12.677,12.677,0,0,0-1.56,5.78c0,.56.1,2.16.9,2.16.46,0,1.18-.66,1.54-.96a.6.6,0,0,0-.42-1.04c-.3,0-.58.32-.8.5a3.13,3.13,0,0,1-.04-.62,11.361,11.361,0,0,1,1.38-5.16A.6.6,0,0,0,172.22,36.12Zm25.32,3.8a.58.58,0,0,0-.58-.58.554.554,0,0,0-.18.02,9.219,9.219,0,0,1-2.08.34c-.02-.78-.04-1.56-.04-2.34a6.616,6.616,0,0,1,1.06.36.469.469,0,0,0,.24.04.587.587,0,0,0,.26-1.12,7.046,7.046,0,0,0-1.56-.48c0-.46.18-1.4-.54-1.4-.7,0-.64.72-.64,1.22-.44-.04-.88-.06-1.34-.06a7.99,7.99,0,0,0-1.38.08.6.6,0,0,0-.5.58.585.585,0,0,0,.58.6h.08a7.8,7.8,0,0,1,1.18-.08c.46,0,.92.04,1.38.08,0,.86.02,1.72.04,2.58-.42,0-.84.02-1.26.02-.78,0-1.56-.06-2.32-.06a.563.563,0,0,0-.62.56.586.586,0,0,0,.56.62c.84.06,1.7.06,2.54.06.38,0,.76,0,1.14-.02l.04,1.16c.02.72.08,1.42.08,2.14a7.89,7.89,0,0,0-2.06-.3c-1.36,0-2.68.42-2.68,2,0,1.34,1.6,2.4,2.84,2.4a3.016,3.016,0,0,0,2.8-2.48,2.262,2.262,0,0,1,.98.8.609.609,0,0,0,.54.36.63.63,0,0,0,.6-.6c0-.72-1.3-1.5-1.86-1.76v-.1c-.02-1.22-.04-2.46-.1-3.68a8.846,8.846,0,0,0,2.4-.38A.608.608,0,0,0,197.54,39.92Zm-4.06,5.5c-.22.84-.7,1.74-1.7,1.74-.56,0-1.66-.58-1.66-1.22,0-.8.88-.82,1.5-.82A6.575,6.575,0,0,1,193.48,45.42Zm28.34-10a.582.582,0,0,0-.48-.58,14.049,14.049,0,0,0-1.84-.26c-1.4-.16-2.8-.26-4.2-.32a9.378,9.378,0,0,0-.24-1.5.558.558,0,0,0-.56-.46.619.619,0,0,0-.62.6c0,.28.18.96.22,1.34h-.32a47.422,47.422,0,0,0-8.06.62,12.342,12.342,0,0,0-1.9.4.577.577,0,0,0-.44.56.615.615,0,0,0,.6.6.34.34,0,0,0,.14-.02,37.479,37.479,0,0,1,9.44-.96h.62v.52c0,.48-.02.98-.04,1.46a4.888,4.888,0,0,0-1.32-.18c-2.56,0-4.44,3.12-4.44,5.44,0,1.54.62,3.3,2.44,3.3,2.88,0,3.94-4.4,4.3-6.6a3.279,3.279,0,0,1,.8,2.16,13.414,13.414,0,0,1-2.1,6.86,14.527,14.527,0,0,1-.98,1.22.576.576,0,0,0-.18.42.615.615,0,0,0,.6.6.576.576,0,0,0,.42-.18c2.1-2.06,3.42-6,3.42-8.92a4.266,4.266,0,0,0-1.8-3.58c.06-.64.08-1.28.08-1.92v-.58a42.534,42.534,0,0,1,5.76.54h.1A.58.58,0,0,0,221.82,35.42Zm-7.8,3.22c-.2,1.56-1.08,6.14-3.2,6.14-1.06,0-1.24-1.28-1.24-2.1,0-1.64,1.36-4.24,3.24-4.24A3.516,3.516,0,0,1,214.02,38.64Zm27.78,4a.742.742,0,0,0-.08-.3,10.6,10.6,0,0,0-1.04-1.5c-.68-.94-1.4-1.9-2.18-2.78a.609.609,0,0,0-.48-.22.6.6,0,0,0-.44.98,51.551,51.551,0,0,1,3.1,4.12.559.559,0,0,0,.52.3A.6.6,0,0,0,241.8,42.64Zm-6.46-2.06c0-1.92-1.6-2.4-3.22-2.52a8.376,8.376,0,0,0,.48-1.34.615.615,0,0,0-.6-.6.6.6,0,0,0-.56.4c-.22.5-.4,1-.62,1.5-.6,0-1.2.06-1.8.06a.578.578,0,0,0-.58.62.6.6,0,0,0,.62.58c.4,0,.8-.04,1.2-.04a30.1,30.1,0,0,1-3.74,6c-.32.4-.68.78-1.04,1.16a.576.576,0,0,0-.18.42.615.615,0,0,0,.6.6.576.576,0,0,0,.42-.18,28.766,28.766,0,0,0,5.28-8.02c.64.02,2.22.12,2.48.86a1.381,1.381,0,0,1,.08.5c0,.9-.94,3.46-1.72,3.92-.4-.14-.6-.64-1.02-.64a.615.615,0,0,0-.6.6c0,.6,1.12,1.24,1.66,1.24.62,0,1.12-.62,1.44-1.08A8.2,8.2,0,0,0,235.34,40.58Zm21.04-4.1a2.921,2.921,0,0,0-2.94-3c-1.42,0-3.24,1.04-3.3,2.58v.04a.6.6,0,0,0,.6.6.581.581,0,0,0,.6-.56c.12-.86,1.28-1.44,2.08-1.44a1.7,1.7,0,0,1,1.76,1.76c0,2.84-3.54,3.38-4.52,6.5a.554.554,0,0,0-.02.18.633.633,0,0,0,.6.62.6.6,0,0,0,.56-.42,6.06,6.06,0,0,1,2.16-2.74c1.36-1.14,2.3-2.06,2.42-3.94ZM252.56,46.5a.568.568,0,0,0-.58-.58c-.76,0-.94,1.52-.94,2.3,0,.5.12,1.36.76,1.36a.615.615,0,0,0,.6-.6c0-.24-.16-.32-.16-.72a4.121,4.121,0,0,1,.26-1.48A.639.639,0,0,0,252.56,46.5Z" transform="translate(45 1654)" fill="#4a3a3d" stroke="#4a3a3d" stroke-width="0.5"/>
  </g>
</svg>
