<svg xmlns="http://www.w3.org/2000/svg" width="341.966" height="80.307" viewBox="0 0 341.966 80.307">
  <g id="グループ_162" data-name="グループ 162" transform="translate(-17.017 -9270.5)">
    <g id="グループ_78" data-name="グループ 78" transform="translate(18 9254)">
      <path id="パス_1" data-name="パス 1" d="M534.161,29.116V82.834h59.2l-18.944-26L593.36,29.116Z" transform="translate(-253.36 13.251)" fill="#fff" stroke="#947f6f" stroke-width="1"/>
      <path id="パス_2" data-name="パス 2" d="M534.232,153.646v15.261l33.586-15.261Z" transform="translate(-253.394 -72.877)" fill="#947f6f" stroke="#947f6f" stroke-width="1"/>
      <path id="パス_3" data-name="パス 3" d="M0,29.116,18.944,56.837,0,82.834H59.2V29.116Z" transform="translate(0 13.251)" fill="#fff" stroke="#947f6f" stroke-width="1"/>
      <path id="パス_4" data-name="パス 4" d="M75.818,153.646,110.4,168.907V153.646Z" transform="translate(-51.243 -72.877)" fill="#947f6f" stroke="#947f6f" stroke-width="1"/>
      <rect id="長方形_7" data-name="長方形 7" width="289.849" height="63.77" transform="translate(24.575 17)" fill="#fff" stroke="#947f6f" stroke-width="1"/>
    </g>
    <path id="パス_2302" data-name="パス 2302" d="M101.22,13.16a.832.832,0,0,0-.4-.7c-.66-.5-3.2-.58-4.04-.6a15.142,15.142,0,0,0,.44-2.06.615.615,0,0,0-.6-.6.568.568,0,0,0-.6.56c-.08.62-.32,1.48-.46,2.1-1.22,0-2.44.02-3.64.1.12-.98.28-1.94.46-2.92,0-.04.02-.08.02-.12a.616.616,0,0,0-.62-.58.6.6,0,0,0-.58.48,7.706,7.706,0,0,0-.16.98c-.12.74-.22,1.48-.32,2.22-1.12.08-5.1.36-6.02.78a.612.612,0,0,0-.38.56.63.63,0,0,0,.6.6.4.4,0,0,0,.22-.06,34.281,34.281,0,0,1,5.44-.66,27.033,27.033,0,0,0-.16,2.84c0,.58-.04,2.66.92,2.66a.59.59,0,0,0,.66-.58.663.663,0,0,0-.26-.52,5.843,5.843,0,0,1-.12-1.44c0-1.02.08-2.04.18-3.04,1.16,0,2.32-.1,3.48-.1-.08.4-.16.8-.26,1.2l-.92,4.06a15.431,15.431,0,0,0-.48,2.28v.08a.584.584,0,0,0,.52.58.606.606,0,0,0,.68-.52c.54-2.56,1.12-5.12,1.7-7.68a16.171,16.171,0,0,1,3.56.36.626.626,0,0,0,.54.34A.589.589,0,0,0,101.22,13.16Zm10.88.02V13.1c-.24-1.26-2.44-2.66-3.5-3.28a5.374,5.374,0,0,0-1.06-.56.592.592,0,0,0-.2-.04.6.6,0,0,0-.18,1.18,12.09,12.09,0,0,1,2.06,1.26c.32.24,1.6,1.18,1.7,1.62a.567.567,0,0,0,.58.5A.578.578,0,0,0,112.1,13.18Zm8.68-.92a.585.585,0,0,0-.6-.58.561.561,0,0,0-.38.14c-1.76,1.36-3.58,2.6-5.44,3.84-1.74,1.14-3.48,2.26-5.26,3.32-.44.26-.88.52-1.32.74l-.44.22a.6.6,0,0,0-.36.56.63.63,0,0,0,.6.6c.9,0,11.86-7.28,13-8.38A.553.553,0,0,0,120.78,12.26ZM142.3,7.38a2.023,2.023,0,0,0-1.86-2,2.657,2.657,0,0,0-2.32,2.52,1.747,1.747,0,0,0,1.74,1.82A2.579,2.579,0,0,0,142.3,7.38Zm-3.64,3.52a.612.612,0,0,0-.58-.6c-.4-.04-.82-.02-1.22-.04-.84-.02-1.68-.04-2.54-.04a39.515,39.515,0,0,0-7.2.5,4.848,4.848,0,0,0-.9.2.577.577,0,0,0-.44.56.6.6,0,0,0,.6.6.44.44,0,0,0,.16-.02,33.461,33.461,0,0,1,7.74-.64c.86,0,1.72.02,2.58.04-.36.66-.68,1.34-1.02,2.02a29.857,29.857,0,0,1-3.94,6.62c-.4.44-.82.8-1.26,1.2a.569.569,0,0,0-.22.46.615.615,0,0,0,.6.6.575.575,0,0,0,.36-.14c2.44-1.84,4.24-5.5,5.54-8.22a14.63,14.63,0,0,1,1.4-2.54A.657.657,0,0,0,138.66,10.9Zm2.46-3.52a1.445,1.445,0,0,1-1.26,1.16.609.609,0,0,1-.56-.66c0-.1.04-.42.12-.46.12-.32.66-.86,1.02-.86S141.12,7.06,141.12,7.38Zm20.8,7.96a.589.589,0,0,0-.6-.6c-1.5,0-6.3,2.3-8.02,3l.04-2c.02-1.32,0-2.68.06-4V11.7a.589.589,0,0,0-.6-.6c-.34,0-.52.24-.58.56a9.317,9.317,0,0,0-.04,1.3l-.04,2.78c-.02.96-.06,1.94-.06,2.9a.615.615,0,0,0,.6.6,20.7,20.7,0,0,0,2.6-1.04,29.227,29.227,0,0,1,6.12-2.26A.574.574,0,0,0,161.92,15.34Zm-13.96-3.5a.6.6,0,0,0-1.2-.06l-.1,1.58c-.08.96-.18,1.9-.28,2.86a23.08,23.08,0,0,0-.2,2.34c0,.54.12,1.26.82,1.26a.615.615,0,0,0,.6-.6.569.569,0,0,0-.22-.46v-.1a17.851,17.851,0,0,1,.2-2.3c.12-1.08.22-2.14.3-3.22C147.92,12.7,147.96,12.26,147.96,11.84Zm33.52,2.52a.6.6,0,0,0-.56-.62,6.5,6.5,0,0,0-1.08-.04c-.86-.02-1.72-.04-2.58-.04-2.04,0-10.68.1-11.62.9a.57.57,0,0,0-.28.5.619.619,0,0,0,.62.6.553.553,0,0,0,.32-.1c1.1-.6,9.24-.7,10.8-.7.82,0,1.64.02,2.48.04.42,0,.86.04,1.28.04A.578.578,0,0,0,181.48,14.36Zm19.5-5.72c0-.68-.9-.56-1.36-.56-1.58,0-3.16.04-4.74.18.12-.34.76-1.92.76-2.12a.543.543,0,0,0-1.06-.18,18.407,18.407,0,0,0-.96,2.92.547.547,0,0,0,.52.54.254.254,0,0,0,.12-.02,10.513,10.513,0,0,1,1.78-.14c1.18-.06,2.36-.1,3.54-.1.28,0,.58.02.86.02A.538.538,0,0,0,200.98,8.64Zm-.5,2.44a.522.522,0,0,0-.48-.52,9.319,9.319,0,0,0-1.5-.06c-.9,0-1.8.04-2.7.1a7.587,7.587,0,0,0-1.34.12.539.539,0,0,0-.44.54.547.547,0,0,0,.54.52h.1c.28-.02.56-.08.84-.1.94-.06,1.9-.1,2.84-.1.52,0,1.02.04,1.54.06h.06A.542.542,0,0,0,200.48,11.08Zm-7.22,1.18c0-.48-.38-.56-.76-.56-.82,0-1.64.04-2.44.08,0-.38.02-.74.02-1.12.56-.02,1.12-.08,1.68-.08a.533.533,0,0,0,.52-.54.522.522,0,0,0-.2-.4,12.018,12.018,0,0,0,.14-1.46c0-.44-.42-.52-.78-.52-.4,0-.8,0-1.2.02l.06-1c.34,0,.68-.02,1.02-.02.4,0,.82.04,1.22.04a.559.559,0,0,0,.56-.56.54.54,0,0,0-.5-.52,11.241,11.241,0,0,0-1.16-.04c-1.36,0-2.72.06-4.06.16A7.883,7.883,0,0,0,186,5.9a.535.535,0,0,0-.42.52c0,.42.32.54.66.54-.08,1.68-.12,3.38-.12,5.08-.36.06-.76.1-.76.56a.538.538,0,0,0,.54.54h.08c.36,0,.72-.08,1.08-.1,1.78-.14,3.6-.26,5.4-.26C192.82,12.78,193.26,12.74,193.26,12.26Zm7.34,8.86a.538.538,0,0,0-.54-.54.563.563,0,0,0-.42.2,6.04,6.04,0,0,1-3.72,1.56c-1.08,0-1.42-1.42-1.48-2.28.44-.02.9-.04,1.34-.04,0,.04-.02.1-.02.14a.565.565,0,0,0,.54.54.539.539,0,0,0,.54-.44,16.245,16.245,0,0,0,.22-2.42c.06-1.4.1-2.78.1-4.18,0-.7-1.1-.58-1.56-.58a36.209,36.209,0,0,0-4.66.28.5.5,0,0,0-.44-.26.539.539,0,0,0-.54.44,14.619,14.619,0,0,0-.14,2.1c-.06,1.26-.12,2.52-.12,3.78,0,.18.02.36.02.54l.02.02a.514.514,0,0,0,.5.42.361.361,0,0,0,.24-.06,8.136,8.136,0,0,1,.98-.1A15.05,15.05,0,0,1,188,22.58a.53.53,0,0,0-.3.5.538.538,0,0,0,.54.54.456.456,0,0,0,.22-.06,15.243,15.243,0,0,0,4.6-3.44h.3c.08,1.48.82,3.3,2.56,3.3h.06a6.9,6.9,0,0,0,3.88-1.4,2.08,2.08,0,0,0,.62-.56A.543.543,0,0,0,200.6,21.12ZM189.22,6.72l-.06,1.02c-.62.02-1.26.06-1.88.12l.04-1.04C187.96,6.78,188.58,6.74,189.22,6.72Zm1.88,2.02c-.04.26-.06.54-.08.8-1.26.04-2.54.14-3.8.22.02-.28.02-.54.02-.82C188.52,8.82,189.82,8.76,191.1,8.74Zm4.98,6.22a49.5,49.5,0,0,0-5.16.24c0-.26.02-.5.04-.76a35.223,35.223,0,0,1,4.58-.3c.18,0,.36.02.54.02Zm-.04,1.06v.2c0,.2,0,.4-.02.6-1.72,0-3.46.1-5.18.24,0-.26.02-.52.02-.78C192.5,16.1,194.4,16.04,196.04,16.02ZM189,11.3c0,.18-.02.36-.02.54-.6.02-1.18.06-1.78.1v-1.1c.6-.06,1.2-.08,1.8-.12Zm6.98,6.6c-.02.34-.04.7-.08,1.04-1.7.04-3.44.08-5.12.28v-.18c0-.3,0-.58.02-.88C192.5,18,194.26,17.9,195.98,17.9Z" transform="translate(45 9289)" fill="#ff7fb2" stroke="#ff7fb2" stroke-width="0.5"/>
  </g>
</svg>
