<svg xmlns="http://www.w3.org/2000/svg" width="341.966" height="80.307" viewBox="0 0 341.966 80.307">
  <g id="グループ_163" data-name="グループ 163" transform="translate(-17.017 -9847.5)">
    <g id="グループ_80" data-name="グループ 80" transform="translate(18 9831)">
      <path id="パス_1" data-name="パス 1" d="M534.161,29.116V82.834h59.2l-18.944-26L593.36,29.116Z" transform="translate(-253.36 13.251)" fill="#ffc9ce" stroke="#947f6f" stroke-width="1"/>
      <path id="パス_2" data-name="パス 2" d="M534.232,153.646v15.261l33.586-15.261Z" transform="translate(-253.394 -72.877)" fill="#947f6f" stroke="#947f6f" stroke-width="1"/>
      <path id="パス_3" data-name="パス 3" d="M0,29.116,18.944,56.837,0,82.834H59.2V29.116Z" transform="translate(0 13.251)" fill="#ffc9ce" stroke="#947f6f" stroke-width="1"/>
      <path id="パス_4" data-name="パス 4" d="M75.818,153.646,110.4,168.907V153.646Z" transform="translate(-51.243 -72.877)" fill="#947f6f" stroke="#947f6f" stroke-width="1"/>
      <rect id="長方形_7" data-name="長方形 7" width="289.849" height="63.77" transform="translate(24.575 17)" fill="#ffc9ce" stroke="#947f6f" stroke-width="1"/>
    </g>
    <path id="パス_2306" data-name="パス 2306" d="M81.04,13.32c0-.68-.68-.62-1.14-.62-.86,0-1.7.04-2.56.06a8.839,8.839,0,0,0,.94-.78.56.56,0,0,0-.26-.98.5.5,0,0,0,.16-.36c0-.66-.6-.62-1.08-.62-.24,0-.5.02-.74.02a8.78,8.78,0,0,0,.8-2.14c.72,0,1.44,0,2.16.02.3.02.6.04.9.04a.574.574,0,0,0,.6-.52.582.582,0,0,0-.54-.62,25.687,25.687,0,0,0-2.78-.06,9.386,9.386,0,0,0,.34-1.44.564.564,0,0,0-.58-.56.541.541,0,0,0-.54.48c-.12.52-.26,1.02-.4,1.54q-1.86,0-3.72.06c0-.44.02-.9.02-1.34a.552.552,0,0,0-.56-.58.583.583,0,0,0-.58.64c0,.44-.02.88-.02,1.32-.9.02-1.82.06-2.72.12a10.371,10.371,0,0,0-1.36.1.579.579,0,0,0-.5.56.564.564,0,0,0,.56.58.12.12,0,0,0,.08-.02c1.3-.14,2.62-.16,3.92-.2a10.748,10.748,0,0,0,.1,2.14,14.345,14.345,0,0,0-2.08.14.544.544,0,0,0-.46.56.564.564,0,0,0,.56.58c.04,0,.06-.02.1-.02a7.118,7.118,0,0,1,1.14-.08c.8-.04,1.6-.08,2.4-.1-.02.54-.04,1.1-.1,1.64-1.66.06-3.3.14-4.96.24a15.223,15.223,0,0,0-2.36.22.576.576,0,0,0-.48.56.564.564,0,0,0,.58.56H66l.44-.06c.36-.04.72-.08,1.1-.1,2.1-.14,4.2-.22,6.3-.3-1.3.96-2.6,1.9-3.92,2.82a35.386,35.386,0,0,1-3.8,2.36.573.573,0,0,0-.34.52.564.564,0,0,0,.58.56c.7,0,4.72-2.86,5.44-3.38-.08,1.42-.12,2.86-.12,4.28a13.36,13.36,0,0,0,.14,2.4.585.585,0,0,0,.54.38.576.576,0,0,0,.58-.56.711.711,0,0,0-.04-.2l-.04-.26a45.62,45.62,0,0,1,5.22-.26c.4,0,.96.02.96-.56,0-.46-.38-.56-.76-.56A21.511,21.511,0,0,0,78.62,17a8.016,8.016,0,0,0-.02-.98.549.549,0,0,0-.34-.48,9,9,0,0,0-2.22-.2c-.74,0-1.48.02-2.22.08.68-.48,1.34-.98,2-1.48,1.36-.04,2.7-.08,4.06-.08C80.28,13.86,81.04,13.96,81.04,13.32Zm-5.08-5.4c-.06.22-.56,1.58-.56,1.68a.606.606,0,0,0,.2.44c-.42.02-.82.02-1.24.02,0-.48.18-1.36-.56-1.36s-.58.94-.58,1.4c-.2,0-.38.02-.58.02a.3.3,0,0,0,.02-.14.88.88,0,0,0-.04-.2,10.1,10.1,0,0,1-.04-1.36V7.98C73.7,7.96,74.84,7.92,75.96,7.92Zm1.52,3.26c-.68.56-1.36,1.1-2.06,1.62l-1.16.04c.04-.54.06-1.08.08-1.62.86-.02,1.72-.04,2.58-.04Zm0,5.8c0,.44,0,.9-.02,1.36a23.5,23.5,0,0,0-4.6.26l.1-1.94a19.206,19.206,0,0,1,3.22-.18c.42,0,.86,0,1.3.04Zm-.08,2.5a9.161,9.161,0,0,1-.3,2.08c-1.42.02-2.86.08-4.28.24v-.46c0-.52,0-1.06.02-1.58h.04a21.86,21.86,0,0,1,3.96-.28Zm22.82-7.86a.585.585,0,0,0-.6-.58c-1.32,0-2.66.04-3.98.08.28-.4,1.36-1.68,1.36-2.1a.58.58,0,0,0-.58-.58.57.57,0,0,0-.5.28c-.2.28-.36.6-.56.88-.46.7-.7.92-1.22,1.6-.48.02-.96.04-1.44.08.02-1.12.08-2.22.16-3.34,1.26-.06,2.54-.16,3.8-.16a.58.58,0,1,0,0-1.16c-1.24,0-2.48.08-3.72.14.02-.22.06-.46.06-.68a.564.564,0,0,0-.58-.56c-.68,0-.62.84-.64,1.32a23.538,23.538,0,0,0-2.98.28.576.576,0,0,0,.12,1.14h.14c.24-.02.52-.08.76-.1.62-.06,1.24-.1,1.86-.14-.06,1.12-.14,2.22-.14,3.34a22.346,22.346,0,0,0-4.24.54.574.574,0,0,0,.2,1.12.68.68,0,0,0,.2-.02,33.283,33.283,0,0,1,5.48-.58,54.635,54.635,0,0,1-6.32,6.76c-.54.48-1.1.92-1.66,1.38a.569.569,0,0,0-.22.46.58.58,0,0,0,.58.58.6.6,0,0,0,.36-.12,20.575,20.575,0,0,0,2.14-1.82,56.593,56.593,0,0,0,4.3-4.46q-.12,2.28-.12,4.56a15.869,15.869,0,0,0,.16,2.8.566.566,0,0,0,.58.38h.1c.36-.04.72-.12,1.08-.14,1.54-.14,3.08-.18,4.62-.18a.58.58,0,0,0,.58-.58.553.553,0,0,0-.42-.52c.16-1.32.18-2.68.24-4.02a26.353,26.353,0,0,1,.18-2.82V14.6c0-.64-.56-.62-1.02-.62a31.815,31.815,0,0,0-4.78.32.839.839,0,0,0-.18-.28c.46-.56.92-1.12,1.36-1.68,1.62-.08,3.26-.14,4.88-.14A.585.585,0,0,0,100.22,11.62Zm-2.08,3.54q-.09,1.14-.12,2.28a27.325,27.325,0,0,0-4.6.42l.08-2.36A29.645,29.645,0,0,1,98.14,15.16Zm-.16,3.44a27.486,27.486,0,0,1-.2,2.88,39.451,39.451,0,0,0-4.34.24c-.04-.6-.04-1.22-.04-1.84v-.84A29.117,29.117,0,0,1,97.98,18.6ZM122.3,7.38a2.023,2.023,0,0,0-1.86-2,2.657,2.657,0,0,0-2.32,2.52,1.747,1.747,0,0,0,1.74,1.82A2.579,2.579,0,0,0,122.3,7.38Zm-3.64,3.52a.612.612,0,0,0-.58-.6c-.4-.04-.82-.02-1.22-.04-.84-.02-1.68-.04-2.54-.04a39.515,39.515,0,0,0-7.2.5,4.848,4.848,0,0,0-.9.2.577.577,0,0,0-.44.56.6.6,0,0,0,.6.6.44.44,0,0,0,.16-.02,33.461,33.461,0,0,1,7.74-.64c.86,0,1.72.02,2.58.04-.36.66-.68,1.34-1.02,2.02a29.858,29.858,0,0,1-3.94,6.62c-.4.44-.82.8-1.26,1.2a.569.569,0,0,0-.22.46.615.615,0,0,0,.6.6.575.575,0,0,0,.36-.14c2.44-1.84,4.24-5.5,5.54-8.22a14.631,14.631,0,0,1,1.4-2.54A.657.657,0,0,0,118.66,10.9Zm2.46-3.52a1.445,1.445,0,0,1-1.26,1.16.609.609,0,0,1-.56-.66c0-.1.04-.42.12-.46.12-.32.66-.86,1.02-.86S121.12,7.06,121.12,7.38Zm17.64,4.18a.57.57,0,0,0-.24-.48c-.74-.64-4.34-.74-5.38-.74a11.324,11.324,0,0,0-3.54.4.607.607,0,0,0-.32.54.6.6,0,0,0,.6.58.706.706,0,0,0,.28-.06,12.8,12.8,0,0,1,2.92-.26,19.409,19.409,0,0,1,4.44.38l-.02.04c-.12,1.16-.26,2.32-.44,3.48a9.994,9.994,0,0,1-.38,2.02c-.82.02-1.66.04-2.48.04-1,0-1.98,0-2.98.04a14.061,14.061,0,0,0-2.42.16v-.98c-.02-2.1.04-4.24.16-6.34v-.06a.591.591,0,0,0-1.18-.06,19.792,19.792,0,0,0-.1,2.2c-.04,1.54-.08,3.08-.08,4.64a22.954,22.954,0,0,0,.1,2.66.578.578,0,0,0,.58.44.6.6,0,0,0,.6-.6c0-.22-.06-.44-.06-.68a9.926,9.926,0,0,1,2.04-.18c1.12-.04,2.22-.04,3.34-.04a27.412,27.412,0,0,0,3.66-.12.6.6,0,0,0,.5-.58.618.618,0,0,0-.44-.58,39.66,39.66,0,0,0,.78-5.32A4.953,4.953,0,0,0,138.76,11.56Zm21.06-1.24a.6.6,0,0,0-.6-.58c-.4-.04-.84-.02-1.26-.04-.86-.02-1.72-.04-2.6-.04a40.137,40.137,0,0,0-7.42.5,3.839,3.839,0,0,0-.8.18.6.6,0,0,0-.44.58.615.615,0,0,0,.6.6.44.44,0,0,0,.16-.02,34.5,34.5,0,0,1,7.86-.64c.9,0,1.78.02,2.68.04-.38.64-.7,1.32-1.02,2a29.552,29.552,0,0,1-3.94,6.62c-.4.44-.82.8-1.26,1.2a.6.6,0,0,0-.22.46.606.606,0,0,0,.6.62.659.659,0,0,0,.38-.12c2.36-1.74,4.24-5.62,5.52-8.24a15.466,15.466,0,0,1,1.4-2.56C159.66,10.72,159.82,10.62,159.82,10.32Zm17,.44a.606.606,0,0,0-.6-.62.616.616,0,0,0-.5.3c-.46.58-.98,1.14-1.48,1.68-.76.84-1.56,1.68-2.34,2.5l-1.96,2a13.548,13.548,0,0,1-1.12,1.02.622.622,0,0,0-.3.52.6.6,0,0,0,.6.6.521.521,0,0,0,.3-.08,63.723,63.723,0,0,0,4.52-4.5l-.1,1.12c-.16,1.7-.36,3.42-.36,5.14,0,.5-.1,1.54.66,1.54a.58.58,0,0,0,.58-.58c0-.32-.04-.62-.04-.92,0-1.7.18-3.4.34-5.08.06-.66.16-1.32.16-1.98a.6.6,0,0,0-.16-.4c.26-.3,1.56-1.68,1.72-1.96A.521.521,0,0,0,176.82,10.76Zm23.56,4.28a.6.6,0,0,0-.52-.6,22.8,22.8,0,0,0-3.32-.16c-2.86,0-5.7.22-8.54.44a3.54,3.54,0,0,1-.46.02c-1.22,0-.94-.52-1.5-.52a.619.619,0,0,0-.6.62.459.459,0,0,0,.08.28c.48.82,1.76.8,2.56.8h.04c2.72,0,5.42-.46,8.16-.46,1.14,0,2.28.1,3.42.18h.08A.6.6,0,0,0,200.38,15.04Zm21.54.3a.589.589,0,0,0-.6-.6c-1.5,0-6.3,2.3-8.02,3l.04-2c.02-1.32,0-2.68.06-4V11.7a.589.589,0,0,0-.6-.6c-.34,0-.52.24-.58.56a9.317,9.317,0,0,0-.04,1.3l-.04,2.78c-.02.96-.06,1.94-.06,2.9a.615.615,0,0,0,.6.6,20.7,20.7,0,0,0,2.6-1.04,29.227,29.227,0,0,1,6.12-2.26A.574.574,0,0,0,221.92,15.34Zm-13.96-3.5a.6.6,0,0,0-1.2-.06l-.1,1.58c-.08.96-.18,1.9-.28,2.86a23.08,23.08,0,0,0-.2,2.34c0,.54.12,1.26.82,1.26a.615.615,0,0,0,.6-.6.569.569,0,0,0-.22-.46v-.1a17.851,17.851,0,0,1,.2-2.3c.12-1.08.22-2.14.3-3.22C207.92,12.7,207.96,12.26,207.96,11.84Z" transform="translate(45 9866)" fill="#4a3a3d" stroke="#4a3a3d" stroke-width="0.5"/>
  </g>
</svg>
