<svg xmlns="http://www.w3.org/2000/svg" width="28.62" height="28.62" viewBox="0 0 28.62 28.62">
  <path id="パス_17" data-name="パス 17" d="M2.01-20.79H-.54a18.227,18.227,0,0,1-4.74,2.28l.54,2.52A15.282,15.282,0,0,0-1.02-17.7V-4.65h-3.9v2.43H5.67V-4.65H2.01ZM0-25.71A14.327,14.327,0,0,0-14.31-11.4,14.327,14.327,0,0,0,0,2.91,14.327,14.327,0,0,0,14.31-11.4,14.327,14.327,0,0,0,0-25.71Zm0,.99A13.367,13.367,0,0,1,13.32-11.4,13.367,13.367,0,0,1,0,1.92,13.367,13.367,0,0,1-13.32-11.4,13.367,13.367,0,0,1,0-24.72Z" transform="translate(14.31 25.71)" fill="#fff"/>
</svg>
