<svg xmlns="http://www.w3.org/2000/svg" width="28.62" height="28.62" viewBox="0 0 28.62 28.62">
  <path id="パス_18" data-name="パス 18" d="M-3.09-15.3c.24-2.19,1.35-3.36,3.12-3.36A2.421,2.421,0,0,1,2.7-16.08c0,1.41-.63,2.46-3.21,4.83A22.545,22.545,0,0,0-6.33-4.53v2.25H6.12V-4.8H-2.97C-2.1-6.3-.78-7.5,1.95-9.84c3.09-2.61,4.11-3.96,4.11-6.24,0-3.15-2.49-4.98-6.06-4.98a5.8,5.8,0,0,0-6.15,5.13ZM0-25.71A14.327,14.327,0,0,0-14.31-11.4,14.327,14.327,0,0,0,0,2.91,14.327,14.327,0,0,0,14.31-11.4,14.327,14.327,0,0,0,0-25.71Zm0,.99A13.367,13.367,0,0,1,13.32-11.4,13.367,13.367,0,0,1,0,1.92,13.367,13.367,0,0,1-13.32-11.4,13.367,13.367,0,0,1,0-24.72Z" transform="translate(14.31 25.71)" fill="#fff"/>
</svg>
