<svg xmlns="http://www.w3.org/2000/svg" width="28.62" height="28.62" viewBox="0 0 28.62 28.62">
  <path id="パス_19" data-name="パス 19" d="M-3.33-16.11A3.038,3.038,0,0,1-.21-18.57a2.478,2.478,0,0,1,2.76,2.52c0,1.83-1.2,2.94-3.72,2.94H-2.49v2.49h1.5c2.67,0,3.84,1.26,3.84,3.33a2.851,2.851,0,0,1-3,3.06A3.17,3.17,0,0,1-3.57-6.84l-2.97.9c.93,2.82,3,4.11,6.36,4.11,3.81,0,6.39-2.16,6.39-5.49,0-2.46-1.44-4.11-4.26-4.65v-.18c2.4-.48,3.84-1.95,3.84-4.14,0-2.76-2.34-4.68-5.97-4.68-3.09,0-5.22,1.41-6.06,3.99ZM0-25.71A14.327,14.327,0,0,0-14.31-11.4,14.327,14.327,0,0,0,0,2.91,14.327,14.327,0,0,0,14.31-11.4,14.327,14.327,0,0,0,0-25.71Zm0,.99A13.367,13.367,0,0,1,13.32-11.4,13.367,13.367,0,0,1,0,1.92,13.367,13.367,0,0,1-13.32-11.4,13.367,13.367,0,0,1,0-24.72Z" transform="translate(14.31 25.71)" fill="#fff"/>
</svg>
