<svg xmlns="http://www.w3.org/2000/svg" width="288" height="54" viewBox="0 0 288 54">
  <g id="グループ_67" data-name="グループ 67" transform="translate(-1944 -5444)">
    <path id="合体_2" data-name="合体 2" d="M-1002,35h15l-7.5,13Zm-137,0V-6h288V35Z" transform="translate(3083 5450)" fill="#fa6900"/>
    <path id="パス_411" data-name="パス 411" d="M9.392-3.9,7.488-4.1A11.189,11.189,0,0,0,7.2-1.952C7.2-.336,8.656.592,11.344.592A25.684,25.684,0,0,0,14.608.368l.08-2.048a18.777,18.777,0,0,1-3.328.336c-1.712,0-2.192-.528-2.192-1.232A5.482,5.482,0,0,1,9.392-3.9ZM7.584-12.768,5.136-12.96a8.2,8.2,0,0,1-.048,1.616q-.048.384-.144.912-.744.048-1.44.048a15.834,15.834,0,0,1-2.016-.128l.048,2c.56.032,1.168.064,1.936.064.336,0,.688-.016,1.056-.032-.1.464-.224.912-.336,1.344A34.642,34.642,0,0,1,1.424.064L3.648.816A49.719,49.719,0,0,0,6.192-6.592c.176-.656.336-1.36.48-2.048a29.455,29.455,0,0,0,3.12-.528v-2c-.88.208-1.776.384-2.672.512.048-.224.1-.432.128-.608C7.312-11.616,7.456-12.336,7.584-12.768Zm.944,4.832v1.872a27.491,27.491,0,0,1,3.088-.16,23.456,23.456,0,0,1,2.752.192l.048-1.92A28.137,28.137,0,0,0,11.6-8.1C10.576-8.1,9.424-8.016,8.528-7.936Zm9.76,1.168.832,2.08c1.36-.576,4.56-1.9,6.416-1.9A2.051,2.051,0,0,1,27.824-4.56c0,2.176-2.688,3.152-6.352,3.248L22.32.656c5.088-.32,7.632-2.288,7.632-5.184,0-2.416-1.7-3.92-4.224-3.92A22.54,22.54,0,0,0,19.984-7.2C19.5-7.056,18.768-6.864,18.288-6.768ZM41.392-3.9l-1.9-.192A11.189,11.189,0,0,0,39.2-1.952C39.2-.336,40.656.592,43.344.592A25.684,25.684,0,0,0,46.608.368l.08-2.048a18.777,18.777,0,0,1-3.328.336c-1.712,0-2.192-.528-2.192-1.232A5.482,5.482,0,0,1,41.392-3.9Zm-1.808-8.864-2.448-.192a8.2,8.2,0,0,1-.048,1.616q-.048.384-.144.912-.744.048-1.44.048a15.834,15.834,0,0,1-2.016-.128l.048,2c.56.032,1.168.064,1.936.064.336,0,.688-.016,1.056-.032-.1.464-.224.912-.336,1.344a34.643,34.643,0,0,1-2.768,7.2l2.224.752a49.719,49.719,0,0,0,2.544-7.408c.176-.656.336-1.36.48-2.048a29.455,29.455,0,0,0,3.12-.528v-2c-.88.208-1.776.384-2.672.512.048-.224.1-.432.128-.608C39.312-11.616,39.456-12.336,39.584-12.768Zm.944,4.832v1.872a27.491,27.491,0,0,1,3.088-.16,23.456,23.456,0,0,1,2.752.192l.048-1.92A28.137,28.137,0,0,0,43.6-8.1C42.576-8.1,41.424-8.016,40.528-7.936ZM52.384.224c2.256,0,4.16-1.264,4.16-3.44a2.961,2.961,0,0,0-2.352-2.912v-.08a2.81,2.81,0,0,0,1.968-2.7c0-2.016-1.552-3.152-3.84-3.152a5.253,5.253,0,0,0-3.552,1.456l1.2,1.44a3.218,3.218,0,0,1,2.24-1.04,1.4,1.4,0,0,1,1.584,1.472c0,1.056-.7,1.808-2.88,1.808v1.68c2.576,0,3.264.736,3.264,1.888,0,1.072-.816,1.664-2.016,1.664a3.761,3.761,0,0,1-2.64-1.216l-1.1,1.488A5.033,5.033,0,0,0,52.384.224ZM64.768-9.568l-2.24-.464A6.508,6.508,0,0,1,62.3-8.864a7.268,7.268,0,0,1-.9,2.048A10.573,10.573,0,0,1,58.976-4.1l1.872,1.088a14.685,14.685,0,0,0,2.208-2.768h2.8a7.144,7.144,0,0,1-2.64,5.168,7.241,7.241,0,0,1-1.44.848L63.76,1.568C66.32,0,67.6-2.384,67.872-5.776h1.952c.32,0,.928,0,1.424.048V-7.68a11.4,11.4,0,0,1-1.424.08h-5.84c.16-.368.3-.736.416-1.024C64.5-8.912,64.624-9.2,64.768-9.568ZM78.3-5.232c.064-.672.1-1.344.112-1.952h6.416v1.952Zm6.528-5.712v1.952H78.416v-1.952ZM86.848-12.8h-10.4v5.264c0,2.432-.224,5.488-2.64,7.552A7.515,7.515,0,0,1,75.28,1.392a8.607,8.607,0,0,0,2.7-4.784h6.848v2.32c0,.336-.128.464-.512.464-.352,0-1.7.016-2.816-.048a8.168,8.168,0,0,1,.8,2A9.679,9.679,0,0,0,85.84.976c.736-.32,1.008-.864,1.008-2.016Zm3.68,1.824.208,2.192c1.856-.4,5.12-.752,6.624-.912a6.4,6.4,0,0,0-2.384,4.944c0,3.472,3.168,5.264,6.528,5.488l.752-2.192c-2.72-.144-5.184-1.088-5.184-3.728a4.862,4.862,0,0,1,3.392-4.48,16.622,16.622,0,0,1,3.088-.224l-.016-2.048c-1.136.048-2.88.144-4.528.288-2.928.24-5.568.48-6.912.592C91.792-11.024,91.168-10.992,90.528-10.976ZM101.264-8.32l-1.184.5A12.345,12.345,0,0,1,101.328-5.6l1.216-.544A19.86,19.86,0,0,0,101.264-8.32Zm1.792-.736-1.168.544a14.076,14.076,0,0,1,1.312,2.16l1.2-.576A23.932,23.932,0,0,0,103.056-9.056Zm6.8,4.9v.992H108.24V-4.16Zm3.3.992h-1.616V-4.16h1.616ZM111.536-.7V-1.792h1.616V-.7Zm-3.3,0V-1.792h1.616V-.7ZM106.528,1.36h1.712V.752h4.912v.512h1.792v-6.88h-8.416Zm6.032-9.232h-3.792V-9.04h3.792Zm-5.5-2.624v4.064h7.312V-10.5Zm-.848-.784h8.88v-1.6h-8.88Zm11.2-.336H115.76v9.008h1.648Zm1.072-1.616V-.9c0,.272-.112.368-.384.368-.288,0-1.216,0-2.128-.032a7.335,7.335,0,0,1,.608,1.936A6.862,6.862,0,0,0,119.5.992c.624-.3.832-.816.832-1.888V-13.232Zm12.912,3.84c-.176.432-.368.9-.56,1.28H127.84l.272-.048a8.594,8.594,0,0,0-.544-1.232Zm5.168,7.136V-3.824h-6.224v-.7h4.8V-5.9h-4.8v-.72h5.552V-8.112h-3.136c.24-.384.5-.816.752-1.28h3.008v-1.552h-2.08c.368-.56.8-1.28,1.248-2.016l-2-.48a12.888,12.888,0,0,1-1.008,2.32l.576.176h-1.424v-2.608h-1.792v2.608h-1.184v-2.608h-1.776v2.608h-1.456l.784-.288a12.107,12.107,0,0,0-1.216-2.256l-1.632.56a14.341,14.341,0,0,1,.992,1.984H122.4v1.552h3.344l-.192.032a7.19,7.19,0,0,1,.544,1.248h-3.04v1.488h5.408v.72h-4.608v1.376h4.608v.7h-6.112v1.568h4.592a16.81,16.81,0,0,1-5.056,1.872A8.875,8.875,0,0,1,123.1,1.2a15.177,15.177,0,0,0,5.36-2.592V1.392h1.872v-2.88a13.657,13.657,0,0,0,5.376,2.7,8.95,8.95,0,0,1,1.28-1.728,14.294,14.294,0,0,1-5.072-1.744ZM140,0h2.9l1.3-5.856c.192-.928.352-1.84.512-2.752h.064c.144.912.32,1.824.512,2.752L146.608,0h2.944l2.192-11.856H149.5l-.944,5.792c-.176,1.232-.352,2.5-.528,3.776h-.08c-.256-1.28-.5-2.56-.752-3.776l-1.36-5.792h-2.032l-1.376,5.792c-.256,1.232-.512,2.5-.752,3.776h-.064c-.176-1.28-.368-2.528-.544-3.776l-.944-5.792h-2.4Zm17.232.224a5.641,5.641,0,0,0,3.12-.992l-.8-1.44a3.693,3.693,0,0,1-2.016.624,2.354,2.354,0,0,1-2.48-2.24h5.52a4.421,4.421,0,0,0,.112-1.088c0-2.464-1.28-4.272-3.744-4.272a4.391,4.391,0,0,0-4.176,4.7A4.35,4.35,0,0,0,157.232.224Zm-2.208-5.616a2.017,2.017,0,0,1,1.952-1.968c1.152,0,1.7.768,1.7,1.968ZM167.12.224c1.968,0,3.808-1.776,3.808-4.864,0-2.736-1.328-4.544-3.536-4.544a3.823,3.823,0,0,0-2.48,1.072l.064-1.44v-3.216h-2.352V0h1.84l.208-.944h.064A3.423,3.423,0,0,0,167.12.224Zm-.528-1.936a2.441,2.441,0,0,1-1.616-.672V-6.32a2.468,2.468,0,0,1,1.76-.928c1.232,0,1.776.944,1.776,2.656C168.512-2.64,167.68-1.712,166.592-1.712Zm8.64-10.56v2.064c.464-.032,1.152-.048,1.664-.048h6.128c.576,0,1.328.016,1.76.048v-2.064a15.085,15.085,0,0,1-1.728.08H176.9A13.488,13.488,0,0,1,175.232-12.272Zm10.9,4.64-1.424-.88a3.375,3.375,0,0,1-1.168.16h-7.92c-.5,0-1.184-.048-1.856-.1v2.08c.672-.064,1.472-.08,1.856-.08h7.728A6.941,6.941,0,0,1,181.7-3.68a10.792,10.792,0,0,1-5.536,2.8L177.744.928a11.981,11.981,0,0,0,5.712-3.456,11.5,11.5,0,0,0,2.368-4.432A5.927,5.927,0,0,1,186.128-7.632Zm2.528,1.408,1.008,2.016a32.06,32.06,0,0,0,5.648-2.3v5.12A17.916,17.916,0,0,1,195.2.7h2.528a11,11,0,0,1-.144-2.1V-7.856a29.348,29.348,0,0,0,4.3-3.472l-1.728-1.648a20.512,20.512,0,0,1-4.512,3.888A25.728,25.728,0,0,1,188.656-6.224Zm23.472-6.448-2.32-.72a6.622,6.622,0,0,1-.736,1.664A14.856,14.856,0,0,1,203.984-6.4l1.728,1.328a19.244,19.244,0,0,0,4.224-4.144h4.576a11.357,11.357,0,0,1-1.76,3.536c-1.008-.672-2.016-1.328-2.864-1.808l-1.424,1.456c.816.512,1.872,1.232,2.912,2A13.592,13.592,0,0,1,205.5-.56l1.856,1.616a15.055,15.055,0,0,0,5.728-3.792c.656.528,1.248,1.024,1.68,1.424l1.52-1.808c-.464-.384-1.088-.848-1.776-1.344a18.322,18.322,0,0,0,2.368-4.608,7.526,7.526,0,0,1,.528-1.136l-1.632-1.008a5.08,5.08,0,0,1-1.392.176h-3.248A17.235,17.235,0,0,1,212.128-12.672Zm8.032,7.648a17.565,17.565,0,0,1,2.608-.08h8.5a17.565,17.565,0,0,1,2.608.08V-7.248a15.713,15.713,0,0,1-2.592.112h-8.528a15.713,15.713,0,0,1-2.592-.112Zm22.032-6.16v2.048a42.943,42.943,0,0,0,6.88,0V-11.2A32.9,32.9,0,0,1,242.192-11.184Zm1.28,6.832-1.84-.176a9.775,9.775,0,0,0-.272,2.08c0,1.648,1.328,2.624,4.08,2.624a22.659,22.659,0,0,0,4.128-.3l-.032-2.16a18.913,18.913,0,0,1-4.016.416c-1.632,0-2.24-.432-2.24-1.136A5.43,5.43,0,0,1,243.472-4.352Zm-3.744-7.9-2.24-.192c-.016.512-.112,1.12-.16,1.568a44.616,44.616,0,0,0-.672,6.336A20.453,20.453,0,0,0,237.28.688L239.136.56C239.12.336,239.1.08,239.1-.1a4.828,4.828,0,0,1,.08-.752c.176-.848.7-2.592,1.152-3.92l-.992-.784c-.224.528-.48,1.088-.72,1.632a7.719,7.719,0,0,1-.064-1.04,42.435,42.435,0,0,1,.768-5.872C239.392-11.12,239.6-11.92,239.728-12.256Zm13.488,8.224h1.536l.336-5.9.08-2.224H252.8l.08,2.224Zm.768,4.256a1.483,1.483,0,0,0,1.472-1.536,1.474,1.474,0,0,0-1.472-1.536,1.461,1.461,0,0,0-1.456,1.536A1.47,1.47,0,0,0,253.984.224Zm5.792-4.256h2.048c-.24-2.256,2.544-3.024,2.544-5.3,0-2.048-1.408-3.04-3.328-3.04a4.427,4.427,0,0,0-3.36,1.6l1.3,1.184a2.467,2.467,0,0,1,1.776-.9,1.248,1.248,0,0,1,1.36,1.312C262.112-7.648,259.392-6.608,259.776-4.032ZM260.8.224a1.474,1.474,0,0,0,1.472-1.536A1.464,1.464,0,0,0,260.8-2.848a1.461,1.461,0,0,0-1.456,1.536A1.47,1.47,0,0,0,260.8.224Z" transform="translate(1956 5471)" fill="#fff"/>
  </g>
</svg>
