<svg xmlns="http://www.w3.org/2000/svg" width="259" height="54" viewBox="0 0 259 54">
  <g id="グループ_43" data-name="グループ 43" transform="translate(-91 -5445)">
    <path id="合体_2" data-name="合体 2" d="M-988,35h15l-7.5,13Zm-122,0V-6h259V35Z" transform="translate(1201 5451)" fill="#fa6900"/>
    <path id="パス_409" data-name="パス 409" d="M.912-11.008H3.9v1.776H1.136C1.04-7.5.848-5.344.624-3.952L2.288-3.7l.1-.768H3.9C3.776-1.936,3.616-.88,3.36-.624a.588.588,0,0,1-.56.192c-.32,0-.976,0-1.664-.064a4.9,4.9,0,0,1,.576,1.872,13.938,13.938,0,0,0,1.936-.048A1.762,1.762,0,0,0,4.864.688c.464-.576.64-2.192.8-6.064.016-.24.032-.72.032-.72H2.544c.048-.464.08-.944.128-1.424H5.7v-5.168H.912ZM8.08-4.64V-6.112h1.5V-4.64Zm4.88-1.472V-4.64H11.408V-6.112ZM15.7.736a13.662,13.662,0,0,0-2.144-3.68l-1.536.64c.24.336.48.688.7,1.056l-1.312.1V-3.088h3.36V-7.68h-3.36V-9.056c.672-.048,1.344-.112,2.016-.16a6.017,6.017,0,0,1,.448.928l1.712-.784A14.423,14.423,0,0,0,13.232-12.5l-1.6.7c.256.3.528.656.768.992-1.024.064-2.048.112-3.024.16.5-.768,1.024-1.632,1.472-2.464L8.8-13.568a19.722,19.722,0,0,1-1.424,3.024l-1.408.064L6.224-8.7c.976-.064,2.128-.128,3.36-.224V-7.68H6.368v4.592H9.584v2.064c-1.44.1-2.768.176-3.824.208l.224,1.84C8.048.88,10.9.672,13.632.432a6.773,6.773,0,0,1,.4,1.04Zm2.4-9.248c.176-.352.368-.752.544-1.2h1.616v1.2Zm3.968-1.2h2.864V-11.44H22.064v-2.016H20.256v2.016H19.232A14.909,14.909,0,0,0,19.6-12.9l-1.744-.368A12.493,12.493,0,0,1,16.384-9.12a14.791,14.791,0,0,1,1.44.608h-1.2V-6.8h3.632v1.168H17.248V.112h1.7V-3.936h1.312V1.376h1.808V-3.936h1.408V-1.6c0,.16-.048.192-.192.192a7.219,7.219,0,0,1-.992-.016A5.985,5.985,0,0,1,22.752.192,3.487,3.487,0,0,0,24.608-.1c.464-.272.576-.72.576-1.456v-4.08h-3.12V-6.8h3.5V-8.512h-3.5Zm6-2.528H26.288v9.008h1.776Zm1.088-1.04V-.88c0,.272-.1.336-.352.352-.272,0-1.1,0-1.92-.032a8.356,8.356,0,0,1,.56,1.92A6.559,6.559,0,0,0,30.192.992c.576-.32.784-.832.784-1.856V-13.28ZM34.944-1.936V-5.072h2.544v3.136ZM37.488-6.72H34.944V-9.312h2.544Zm5.088-4.368c.24-.672.448-1.344.624-2.032l-1.824-.416a16.549,16.549,0,0,1-2.16,5.152v-2.592h-2.48c.272-.688.56-1.488.832-2.288l-2.08-.288a17.161,17.161,0,0,1-.464,2.576H33.216V.912h1.728V-.256h4.272V-7.728a11.884,11.884,0,0,1,1.232.9A13.8,13.8,0,0,0,41.856-9.36H45.28C45.1-3.712,44.9-1.312,44.432-.8a.853.853,0,0,1-.7.272c-.416,0-1.36,0-2.384-.1a4.483,4.483,0,0,1,.624,1.856A17.935,17.935,0,0,0,44.48,1.2,2.135,2.135,0,0,0,46.016.32c.656-.848.832-3.392,1.04-10.544.016-.224.016-.864.016-.864Zm1.84,7.3a38.615,38.615,0,0,0-2.352-3.552L40.576-6.5A34.237,34.237,0,0,1,42.8-2.8Zm10.752-7.392v2.048a42.943,42.943,0,0,0,6.88,0V-11.2A32.9,32.9,0,0,1,55.168-11.184Zm1.28,6.832-1.84-.176a9.775,9.775,0,0,0-.272,2.08c0,1.648,1.328,2.624,4.08,2.624a22.659,22.659,0,0,0,4.128-.3l-.032-2.16a18.914,18.914,0,0,1-4.016.416c-1.632,0-2.24-.432-2.24-1.136A5.431,5.431,0,0,1,56.448-4.352Zm-3.744-7.9-2.24-.192c-.016.512-.112,1.12-.16,1.568a44.615,44.615,0,0,0-.672,6.336A20.453,20.453,0,0,0,50.256.688L52.112.56C52.1.336,52.08.08,52.08-.1a4.828,4.828,0,0,1,.08-.752c.176-.848.7-2.592,1.152-3.92l-.992-.784c-.224.528-.48,1.088-.72,1.632a7.72,7.72,0,0,1-.064-1.04,42.437,42.437,0,0,1,.768-5.872C52.368-11.12,52.576-11.92,52.7-12.256ZM70.288-5.184c-.256-.3-1.36-1.424-1.808-1.856v-.208h1.6V-8.976h-1.6v-2.352a15.794,15.794,0,0,0,1.856-.608L69.008-13.28a20.218,20.218,0,0,1-4.544,1.264,5.5,5.5,0,0,1,.512,1.376c.544-.08,1.12-.16,1.7-.272v1.936H64.608v1.728h1.76a15.216,15.216,0,0,1-2.016,4.32,9.381,9.381,0,0,1,.864,1.808A13.942,13.942,0,0,0,66.672-4.1V1.392H68.48v-6.56c.32.5.64,1.024.816,1.36Zm7.264-5.184v.976H71.808v-.976Zm.784,2.96c-.288.384-.688.864-1.088,1.312-.176-.608-.32-1.216-.448-1.84h1.856V-9.168h.672v-2.656H75.664v-1.712h-1.84v1.712H70.112v2.656h.736v1.232H72.88A12.8,12.8,0,0,1,69.76-6.32a7.873,7.873,0,0,1,.976,1.264,15.229,15.229,0,0,0,2-1.072,5.928,5.928,0,0,1,.432.464,14.4,14.4,0,0,1-3.776,2.032,5.431,5.431,0,0,1,.88,1.232,19.031,19.031,0,0,0,3.6-2.192A3.888,3.888,0,0,1,74.128-4,13.092,13.092,0,0,1,68.944-.768a6.275,6.275,0,0,1,.88,1.376A17.438,17.438,0,0,0,74.5-2.416a2.614,2.614,0,0,1-.384,1.872.834.834,0,0,1-.8.352,8.242,8.242,0,0,1-1.168-.08,3.5,3.5,0,0,1,.432,1.616c.368.016.752.032,1.072.016a2.117,2.117,0,0,0,1.68-.64c1.28-1.12,1.392-5.184-1.408-7.7a11.918,11.918,0,0,0,1.04-.96h.368C75.92-4.688,76.9-1.552,78.352.32a5.926,5.926,0,0,1,1.3-1.376,11.046,11.046,0,0,1-1.936-3.6c.576-.48,1.248-1.088,1.872-1.664ZM92-12.4H89.7a8.007,8.007,0,0,1,.176,1.1c.032.432.064,1.28.08,2.16-.56.016-1.12.032-1.648.032a16.936,16.936,0,0,1-2.432-.16v2.016c.8.048,1.776.1,2.48.1.528,0,1.088,0,1.632-.016v.56c0,2.7-.272,4.128-1.488,5.408A6.084,6.084,0,0,1,86.624.08L88.48,1.536C91.664-.5,91.952-2.816,91.952-6.592v-.656c.96-.064,1.84-.128,2.528-.208l.016-2.08c-.7.128-1.6.224-2.56.3,0-.9,0-1.728.016-2.064C91.952-11.664,91.968-12.048,92-12.4Zm-7.776.272-2.368-.224c-.016.4-.032.944-.1,1.376a42.687,42.687,0,0,0-.528,6.4A17.4,17.4,0,0,0,82.144.608L83.936.432c-.016-.224-.032-.5-.048-.672a5.455,5.455,0,0,1,.1-.784c.208-.9.624-2.512,1.1-3.888l-1.008-.64c-.256.576-.56,1.36-.768,1.856-.432-1.984.144-5.344.544-7.12C83.92-11.152,84.1-11.728,84.224-12.128Zm9.04-.832-1.088.336a19.312,19.312,0,0,1,.832,2.272l1.1-.368A17.654,17.654,0,0,0,93.264-12.96Zm1.648-.512-1.088.352a21,21,0,0,1,.88,2.24l1.088-.352A20.87,20.87,0,0,0,94.912-13.472ZM102.24-1.888c0-.4.384-.768.992-.768.864,0,1.456.672,1.552,1.712a8.353,8.353,0,0,1-.928.048C102.9-.9,102.24-1.3,102.24-1.888Zm-2.72-10.3.064,2.08c.368-.048.88-.1,1.312-.128.848-.048,3.056-.144,3.872-.16-.784.688-2.448,2.032-3.344,2.768-.944.784-2.88,2.416-4.016,3.328l1.456,1.5c1.712-1.952,3.312-3.248,5.76-3.248,1.888,0,3.328.976,3.328,2.416a2.319,2.319,0,0,1-1.328,2.176,3.2,3.2,0,0,0-3.408-2.736,2.681,2.681,0,0,0-2.864,2.5c0,1.6,1.68,2.624,3.9,2.624,3.872,0,5.792-2,5.792-4.528,0-2.336-2.064-4.032-4.784-4.032a6.25,6.25,0,0,0-1.52.176c1.008-.8,2.688-2.208,3.552-2.816.368-.272.752-.5,1.12-.736l-1.04-1.424a6.991,6.991,0,0,1-1.216.176c-.912.08-4.336.144-5.184.144A11.1,11.1,0,0,1,99.52-12.192ZM114.752,0h2.688l.912-3.9c.192-.832.32-1.664.5-2.608h.08c.176.944.32,1.76.512,2.608l.944,3.9h2.768l2.208-8.96h-2.176l-.976,4.416c-.16.88-.288,1.728-.448,2.624h-.08c-.192-.9-.352-1.744-.56-2.624L120-8.96h-2.08l-1.088,4.416c-.224.864-.384,1.728-.56,2.624h-.064c-.16-.9-.272-1.744-.448-2.624l-.976-4.416h-2.352Zm16.1.224a5.641,5.641,0,0,0,3.12-.992l-.8-1.44a3.693,3.693,0,0,1-2.016.624,2.354,2.354,0,0,1-2.48-2.24h5.52a4.422,4.422,0,0,0,.112-1.088c0-2.464-1.28-4.272-3.744-4.272a4.391,4.391,0,0,0-4.176,4.7A4.35,4.35,0,0,0,130.848.224ZM128.64-5.392a2.017,2.017,0,0,1,1.952-1.968c1.152,0,1.7.768,1.7,1.968Zm12.1,5.616c1.968,0,3.808-1.776,3.808-4.864,0-2.736-1.328-4.544-3.536-4.544a3.823,3.823,0,0,0-2.48,1.072l.064-1.44v-3.216H136.24V0h1.84l.208-.944h.064A3.423,3.423,0,0,0,140.736.224Zm-.528-1.936a2.441,2.441,0,0,1-1.616-.672V-6.32a2.468,2.468,0,0,1,1.76-.928c1.232,0,1.776.944,1.776,2.656C142.128-2.64,141.3-1.712,140.208-1.712Zm8.64-10.56v2.064c.464-.032,1.152-.048,1.664-.048h6.128c.576,0,1.328.016,1.76.048v-2.064a15.085,15.085,0,0,1-1.728.08h-6.16A13.488,13.488,0,0,1,148.848-12.272Zm10.9,4.64-1.424-.88a3.375,3.375,0,0,1-1.168.16h-7.92c-.5,0-1.184-.048-1.856-.1v2.08c.672-.064,1.472-.08,1.856-.08h7.728a6.941,6.941,0,0,1-1.648,2.768,10.792,10.792,0,0,1-5.536,2.8L151.36.928a11.981,11.981,0,0,0,5.712-3.456A11.5,11.5,0,0,0,159.44-6.96,5.927,5.927,0,0,1,159.744-7.632Zm2.528,1.408,1.008,2.016a32.06,32.06,0,0,0,5.648-2.3v5.12a17.916,17.916,0,0,1-.112,2.1h2.528a11,11,0,0,1-.144-2.1V-7.856a29.348,29.348,0,0,0,4.3-3.472l-1.728-1.648a20.512,20.512,0,0,1-4.512,3.888A25.728,25.728,0,0,1,162.272-6.224Zm23.472-6.448-2.32-.72a6.622,6.622,0,0,1-.736,1.664A14.856,14.856,0,0,1,177.6-6.4l1.728,1.328a19.244,19.244,0,0,0,4.224-4.144h4.576a11.357,11.357,0,0,1-1.76,3.536c-1.008-.672-2.016-1.328-2.864-1.808L182.08-6.032c.816.512,1.872,1.232,2.912,2A13.592,13.592,0,0,1,179.12-.56l1.856,1.616A15.055,15.055,0,0,0,186.7-2.736c.656.528,1.248,1.024,1.68,1.424L189.9-3.12c-.464-.384-1.088-.848-1.776-1.344A18.322,18.322,0,0,0,190.5-9.072a7.527,7.527,0,0,1,.528-1.136l-1.632-1.008A5.08,5.08,0,0,1,188-11.04h-3.248A17.236,17.236,0,0,1,185.744-12.672Zm8.368,5.264V-4.9c.592-.048,1.664-.08,2.576-.08h8.592c.672,0,1.488.064,1.872.08V-7.408c-.416.032-1.12.1-1.872.1h-8.592C195.856-7.312,194.688-7.36,194.112-7.408Zm21.7-3.776v2.048a42.943,42.943,0,0,0,6.88,0V-11.2A32.9,32.9,0,0,1,215.808-11.184Zm1.28,6.832-1.84-.176a9.775,9.775,0,0,0-.272,2.08c0,1.648,1.328,2.624,4.08,2.624a22.659,22.659,0,0,0,4.128-.3l-.032-2.16a18.914,18.914,0,0,1-4.016.416c-1.632,0-2.24-.432-2.24-1.136A5.431,5.431,0,0,1,217.088-4.352Zm-3.744-7.9-2.24-.192c-.016.512-.112,1.12-.16,1.568a44.616,44.616,0,0,0-.672,6.336A20.453,20.453,0,0,0,210.9.688L212.752.56c-.016-.224-.032-.48-.032-.656a4.828,4.828,0,0,1,.08-.752c.176-.848.7-2.592,1.152-3.92l-.992-.784c-.224.528-.48,1.088-.72,1.632a7.719,7.719,0,0,1-.064-1.04,42.435,42.435,0,0,1,.768-5.872C213.008-11.12,213.216-11.92,213.344-12.256Zm18.48,8.144h1.632l.432-5.472.08-2.384h-2.656l.08,2.384ZM232.64.144a1.362,1.362,0,0,0,1.408-1.408,1.366,1.366,0,0,0-1.408-1.424,1.366,1.366,0,0,0-1.408,1.424A1.353,1.353,0,0,0,232.64.144Z" transform="translate(100 5472)" fill="#fff"/>
  </g>
</svg>
