<svg xmlns="http://www.w3.org/2000/svg" width="341.705" height="97.307" viewBox="0 0 341.705 97.307">
  <g id="グループ_164" data-name="グループ 164" transform="translate(-17.147 -13199.5)">
    <g id="グループ_85" data-name="グループ 85" transform="translate(18 13200)">
      <path id="パス_1" data-name="パス 1" d="M534.161,29.116V99.075h59.2L574.416,65.218l18.944-36.1Z" transform="translate(-253.36 -2.99)" fill="#ffffc0" stroke="#947f6f" stroke-width="1"/>
      <path id="パス_2" data-name="パス 2" d="M534.232,153.646v15.261l33.586-15.261Z" transform="translate(-253.394 -72.877)" fill="#947f6f" stroke="#947f6f" stroke-width="1"/>
      <path id="パス_3" data-name="パス 3" d="M0,29.116l18.944,36.1L0,99.075H59.2V29.116Z" transform="translate(0 -2.99)" fill="#ffffc0" stroke="#947f6f" stroke-width="1"/>
      <path id="パス_4" data-name="パス 4" d="M75.818,153.646,110.4,168.907V153.646Z" transform="translate(-51.243 -72.877)" fill="#947f6f" stroke="#947f6f" stroke-width="1"/>
      <rect id="長方形_7" data-name="長方形 7" width="289.849" height="80.77" transform="translate(24.575 0)" fill="#ffffc0" stroke="#947f6f" stroke-width="1"/>
    </g>
    <path id="パス_2307" data-name="パス 2307" d="M42.3,7.38a2.023,2.023,0,0,0-1.86-2A2.657,2.657,0,0,0,38.12,7.9a1.747,1.747,0,0,0,1.74,1.82A2.579,2.579,0,0,0,42.3,7.38ZM38.66,10.9a.611.611,0,0,0-.58-.6c-.4-.04-.82-.02-1.22-.04-.84-.02-1.68-.04-2.54-.04a39.515,39.515,0,0,0-7.2.5,4.848,4.848,0,0,0-.9.2.577.577,0,0,0-.44.56.6.6,0,0,0,.6.6.44.44,0,0,0,.16-.02,33.461,33.461,0,0,1,7.74-.64c.86,0,1.72.02,2.58.04-.36.66-.68,1.34-1.02,2.02A29.858,29.858,0,0,1,31.9,20.1c-.4.44-.82.8-1.26,1.2a.569.569,0,0,0-.22.46.615.615,0,0,0,.6.6.575.575,0,0,0,.36-.14c2.44-1.84,4.24-5.5,5.54-8.22a14.631,14.631,0,0,1,1.4-2.54A.657.657,0,0,0,38.66,10.9Zm2.46-3.52a1.445,1.445,0,0,1-1.26,1.16.609.609,0,0,1-.56-.66c0-.1.04-.42.12-.46.12-.32.66-.86,1.02-.86S41.12,7.06,41.12,7.38Zm18.72,7.28a.585.585,0,0,0-.58-.6.674.674,0,0,0-.34.1c-.58.36-1.14.72-1.72,1.06-2.52,1.52-5.12,2.98-7.74,4.32,0-.32-.02-.64-.02-.96,0-2.74.12-5.48.2-8.22.02-.4.04-.82.04-1.22a.6.6,0,1,0-1.2,0c0,.4-.02.78-.04,1.18-.08,2.74-.2,5.5-.2,8.26,0,.36-.06,1.96.26,2.24a.642.642,0,0,0,.44.2c.66,0,9.62-5.08,10.64-5.86A.625.625,0,0,0,59.84,14.66ZM80.4,8.8c0-.5-1.08-1.3-1.54-1.3a.573.573,0,0,0-.6.58.58.58,0,0,0,.46.58c.44.14.64.74,1.08.74A.615.615,0,0,0,80.4,8.8ZM78.6,9.88a.6.6,0,0,0-.46-.58c-.24-.24-.44-.46-.66-.72A.66.66,0,0,0,77,8.34a.589.589,0,0,0-.6.6A2.389,2.389,0,0,0,78,10.46.6.6,0,0,0,78.6,9.88Zm.96,3.26a.641.641,0,0,0-.38-.54,8.943,8.943,0,0,0-2.74-.3,41.89,41.89,0,0,0-4.74.3,13.369,13.369,0,0,1,.44-2.58.839.839,0,0,0,.08-.32.568.568,0,0,0-.58-.58.622.622,0,0,0-.52.3,15.75,15.75,0,0,0-.64,3.32,22.3,22.3,0,0,0-4.4.92.6.6,0,0,0-.34.54.594.594,0,0,0,.58.58.554.554,0,0,0,.26-.06,19.581,19.581,0,0,1,3.76-.76c-.12,1.26-.26,2.56-.26,3.82,0,2.52,1.08,3.58,3.6,3.58a13.239,13.239,0,0,0,3.54-.58.6.6,0,0,0,.44-.58.585.585,0,0,0-.6-.58.34.34,0,0,0-.14.02,13.234,13.234,0,0,1-3.18.54c-1.88,0-2.48-.5-2.48-2.4a38.022,38.022,0,0,1,.28-3.98,47.043,47.043,0,0,1,5.04-.34,9.937,9.937,0,0,1,1.54.08,12.24,12.24,0,0,1-2.28,3.16.54.54,0,0,0-.2.44.578.578,0,0,0,.6.6.682.682,0,0,0,.38-.14,12.968,12.968,0,0,0,2.88-4.22A.533.533,0,0,0,79.56,13.14Zm12.54.04V13.1c-.24-1.26-2.44-2.66-3.5-3.28a5.374,5.374,0,0,0-1.06-.56.592.592,0,0,0-.2-.04.6.6,0,0,0-.18,1.18,12.09,12.09,0,0,1,2.06,1.26c.32.24,1.6,1.18,1.7,1.62a.567.567,0,0,0,.58.5A.578.578,0,0,0,92.1,13.18Zm8.68-.92a.585.585,0,0,0-.6-.58.561.561,0,0,0-.38.14c-1.76,1.36-3.58,2.6-5.44,3.84-1.74,1.14-3.48,2.26-5.26,3.32-.44.26-.88.52-1.32.74l-.44.22a.6.6,0,0,0-.36.56.63.63,0,0,0,.6.6c.9,0,11.86-7.28,13-8.38A.553.553,0,0,0,100.78,12.26Zm16.98,2.7a.615.615,0,0,0-.36-.56,10.876,10.876,0,0,0-1.66-.6c-1.22-.42-2.46-.82-3.7-1.16a44.2,44.2,0,0,1,.6-5.64c0-.04.02-.08.02-.12a.606.606,0,0,0-.6-.62.621.621,0,0,0-.6.5,18.883,18.883,0,0,0-.4,2.8,58.086,58.086,0,0,0-.28,6.18c0,1.16.02,6,.66,6.68a.645.645,0,0,0,.52.24.589.589,0,0,0,.6-.6.667.667,0,0,0-.18-.42,33.111,33.111,0,0,1-.4-6.02c0-.58,0-1.16.02-1.74,1.26.36,2.52.76,3.78,1.18l1.14.44a1,1,0,0,0,.24.04A.6.6,0,0,0,117.76,14.96Zm21.02-.46c0-3.34-2.1-5.36-5.44-5.36-3.54,0-7.02,2.34-7.02,6.14a3.26,3.26,0,0,0,3.16,3.4c1.9,0,3.54-2.28,4.14-3.86a7.1,7.1,0,0,0,.46-2.5,3.967,3.967,0,0,0-.66-2,3.848,3.848,0,0,1,4.18,4.18,8.388,8.388,0,0,1-2.22,5.18c-.32.34-.66.6-1,.9a.6.6,0,0,0-.24.48.615.615,0,0,0,.6.6.6.6,0,0,0,.36-.12A9.581,9.581,0,0,0,138.78,14.5Zm-5.9-2.18a6.069,6.069,0,0,1-2.18,4.62,2.331,2.331,0,0,1-1.22.54,2.062,2.062,0,0,1-1.98-2.2c0-2.6,2.1-4.34,4.5-4.82.02.08.06.1.12.16A2.615,2.615,0,0,1,132.88,12.32ZM160.6,8.7a.559.559,0,0,0-.22-.44c-.24-.22-.46-.54-.68-.78a.579.579,0,0,0-.46-.2.585.585,0,0,0-.6.58.576.576,0,0,0,.14.4,5.846,5.846,0,0,0,.82.9.631.631,0,0,0,.38.14A.606.606,0,0,0,160.6,8.7Zm-2.34,1.36c0-.34-.54-.86-.58-1.34a.589.589,0,0,0-.6-.6.615.615,0,0,0-.6.6,3.719,3.719,0,0,0,.72,1.74.6.6,0,0,0,.46.22A.606.606,0,0,0,158.26,10.06Zm-.52,8.6a.6.6,0,0,0-.62-.58c-.24,0-.46,0-.7.02a31.8,31.8,0,0,0,1.22-5.12v-.1a.577.577,0,0,0-.54-.6,8.31,8.31,0,0,0-1.22-.06c-.86-.04-1.72-.06-2.6-.06-1.06,0-5.24.04-6.04.62a.57.57,0,0,0-.28.5.615.615,0,0,0,.6.6.674.674,0,0,0,.34-.1c.8-.4,4.7-.42,5.7-.42.92,0,1.84.02,2.74.06a26.981,26.981,0,0,1-1.24,4.74c-1.04.06-8.08.38-8.58.66a.615.615,0,0,0-.36.56.6.6,0,0,0,.6.58.719.719,0,0,0,.22-.04,24.229,24.229,0,0,1,2.8-.26c1.66-.1,3.32-.2,4.98-.28.76-.04,1.68-.02,2.4-.1A.615.615,0,0,0,157.74,18.66Zm21.02-7.1a.57.57,0,0,0-.24-.48c-.74-.64-4.34-.74-5.38-.74a11.324,11.324,0,0,0-3.54.4.607.607,0,0,0-.32.54.6.6,0,0,0,.6.58.706.706,0,0,0,.28-.06,12.8,12.8,0,0,1,2.92-.26,19.409,19.409,0,0,1,4.44.38l-.02.04c-.12,1.16-.26,2.32-.44,3.48a9.994,9.994,0,0,1-.38,2.02c-.82.02-1.66.04-2.48.04-1,0-1.98,0-2.98.04a14.061,14.061,0,0,0-2.42.16v-.98c-.02-2.1.04-4.24.16-6.34v-.06a.591.591,0,0,0-1.18-.06,19.791,19.791,0,0,0-.1,2.2c-.04,1.54-.08,3.08-.08,4.64a22.956,22.956,0,0,0,.1,2.66.578.578,0,0,0,.58.44.6.6,0,0,0,.6-.6c0-.22-.06-.44-.06-.68a9.926,9.926,0,0,1,2.04-.18c1.12-.04,2.22-.04,3.34-.04a27.412,27.412,0,0,0,3.66-.12.6.6,0,0,0,.5-.58.618.618,0,0,0-.44-.58,39.66,39.66,0,0,0,.78-5.32A4.953,4.953,0,0,0,178.76,11.56Zm20.02,2.94c0-3.34-2.1-5.36-5.44-5.36-3.54,0-7.02,2.34-7.02,6.14a3.26,3.26,0,0,0,3.16,3.4c1.9,0,3.54-2.28,4.14-3.86a7.1,7.1,0,0,0,.46-2.5,3.967,3.967,0,0,0-.66-2,3.848,3.848,0,0,1,4.18,4.18,8.388,8.388,0,0,1-2.22,5.18c-.32.34-.66.6-1,.9a.6.6,0,0,0-.24.48.615.615,0,0,0,.6.6.6.6,0,0,0,.36-.12A9.581,9.581,0,0,0,198.78,14.5Zm-5.9-2.18a6.069,6.069,0,0,1-2.18,4.62,2.331,2.331,0,0,1-1.22.54,2.062,2.062,0,0,1-1.98-2.2c0-2.6,2.1-4.34,4.5-4.82.02.08.06.1.12.16A2.615,2.615,0,0,1,192.88,12.32Zm27.2-5c0-.68-1.3-2.56-2-2.56a.559.559,0,0,0-.56.56.619.619,0,0,0,.24.46A3.407,3.407,0,0,1,219,7.48a.554.554,0,0,0,1.08-.16Zm1.72,5.72a.543.543,0,0,0-1.08-.08c-.06.32-.12.62-.2.94-.1.34-.6,1.7-1,1.78-.6-.12-1.94-2.46-2.2-2.94.42-.44.86-.84,1.28-1.28a.566.566,0,0,0-.36-.98.6.6,0,0,0-.4.16,13.254,13.254,0,0,0-1.06,1.06l-.1-.18c-.42-.8-.78-1.64-1.14-2.46.64-.02,1.26-.04,1.9-.04a.55.55,0,1,0,0-1.1c-.78,0-1.56.02-2.34.04-.26-.66-.46-1.32-.66-2a.555.555,0,0,0-.54-.44.58.58,0,0,0-.58.58,12.009,12.009,0,0,0,.6,1.88l-4.28.12a17.965,17.965,0,0,0-2.1.12.546.546,0,0,0-.48.56.559.559,0,0,0,.56.56,21.1,21.1,0,0,1-3.86,7.72.585.585,0,0,0-.16.38.553.553,0,0,0,.96.4c1.52-1.46,2.8-4.44,3.52-6.42-.06.2.36.44.54.44h.14c.28-.02.56-.08.84-.1.92-.06,1.86-.1,2.78-.1.28,0,.56.02.82.02a.555.555,0,0,0,.56-.54c0-.72-1.02-.6-1.5-.6a16.876,16.876,0,0,0-3.98.34c.18-.54.36-1.08.52-1.62,1.86-.08,3.7-.14,5.56-.18a30.6,30.6,0,0,0,1.62,3.48l-1.72,1.86-.38.4a.513.513,0,0,0-.14.36.59.59,0,0,0,.56.58.533.533,0,0,0,.4-.18l.38-.42,1.44-1.56c.5.88,1.76,3.18,3,3.18,1.42,0,2.12-2.58,2.28-3.66Zm-.84,7.18a.535.535,0,0,0-.24-.46,5.411,5.411,0,0,1-1.24-1.46.56.56,0,0,0-.52-.36.542.542,0,0,0-.56.54c0,.52,1.46,2.3,2,2.3A.559.559,0,0,0,220.96,20.22Zm-4.86-.6a.561.561,0,0,0-.14-.38,10.524,10.524,0,0,1-.94-2.16.534.534,0,0,0-.52-.38.547.547,0,0,0-.56.56.44.44,0,0,0,.02.16,5.545,5.545,0,0,1,.2.52,8.559,8.559,0,0,0,1,2.06.5.5,0,0,0,.4.18A.555.555,0,0,0,216.1,19.62Zm-2.98-6.18c0-.92-.6-.8-1.32-.8a15.167,15.167,0,0,0-2.34.16.6.6,0,0,0-.36-.16.536.536,0,0,0-.58.54c-.02.44-.02.88-.02,1.32a10.751,10.751,0,0,0,.16,2.28.541.541,0,0,0,.54.38.531.531,0,0,0,.54-.56c0-.06-.02-.12-.02-.18V16.4c.86-.06,1.74-.1,2.62-.1.42,0,.78-.06.78-.58a.57.57,0,0,0-.26-.44A6.392,6.392,0,0,0,213.12,13.44Zm6.2,8.2a.562.562,0,0,0-1.1-.16,1.851,1.851,0,0,1-1.62,1.08h-.08a3.938,3.938,0,0,1-1.72-.46c-1.24-.58-2.9-2.16-2.98-3.62a.539.539,0,0,0-.52-.56.551.551,0,0,0-.58.6,3.678,3.678,0,0,0,.62,1.84,6.768,6.768,0,0,0,5.14,3.3.254.254,0,0,0,.12.02,3.033,3.033,0,0,0,2.7-1.88A.44.44,0,0,0,219.32,21.64Zm-11.06-2.86a.559.559,0,0,0-.56-.56.6.6,0,0,0-.52.34,18.351,18.351,0,0,0-.84,4.58.558.558,0,0,0,.54.62.52.52,0,0,0,.56-.54,17.046,17.046,0,0,1,.78-4.24A.71.71,0,0,0,208.26,18.78ZM212,13.74a6.08,6.08,0,0,1-.28,1.46c-.7.02-1.4.06-2.1.1-.02-.38-.02-.76-.02-1.14V13.9A15.952,15.952,0,0,1,212,13.74Zm29.1,5.58a5.709,5.709,0,0,0-1.34-2.26.623.623,0,0,0-.36-.14.577.577,0,0,0-.58.56.563.563,0,0,0,.2.42,5.442,5.442,0,0,1,.98,1.54.553.553,0,0,0,.54.42A.52.52,0,0,0,241.1,19.32ZM234.18,8.46a.572.572,0,0,0-.56-.56c-.98,0-1.74.06-2.72.1a6.378,6.378,0,0,1,.16-1.24.34.34,0,0,0,.02-.14.559.559,0,0,0-1.1-.14,10.362,10.362,0,0,0-.22,1.58c-1.06.06-2.12.12-3.18.26a9.106,9.106,0,0,0-1.62.26.559.559,0,0,0,.14,1.1.34.34,0,0,0,.14-.02,24.938,24.938,0,0,1,4.44-.48l-.06,1.24a22.008,22.008,0,0,1-3.98,2.94.565.565,0,0,0-.3.5.555.555,0,0,0,.56.54c.56,0,3.12-2,3.66-2.44-.02.56-.02,1.12-.02,1.68a10.165,10.165,0,0,0,.04,1.56.563.563,0,0,0,.56.5.547.547,0,0,0,.56-.56v-.06c-.02-.58-.04-1.18-.04-1.76V12.18a9.562,9.562,0,0,0,2.4.92.559.559,0,0,0,.14-1.1,10.139,10.139,0,0,1-2.48-1.08l.08-1.8c1.02-.04,1.8-.1,2.82-.1A.572.572,0,0,0,234.18,8.46Zm1.6,10.5a9.778,9.778,0,0,0-1.5-2.48.5.5,0,0,0-.4-.18.59.59,0,0,0-.58.56.575.575,0,0,0,.14.36,11.22,11.22,0,0,1,1.28,1.94.592.592,0,0,0,.52.36A.555.555,0,0,0,235.78,18.96Zm1.98,1.4a.547.547,0,0,0-.56-.56.572.572,0,0,0-.56.56c0,.7-1.12,1.64-1.8,1.64-1.44,0-2.74-1.78-3.28-2.94a5.407,5.407,0,0,1-.28-.8.573.573,0,0,0-.54-.46.559.559,0,0,0-.56.56c0,.06.02.1.02.14.44,1.92,2.5,4.62,4.64,4.62A3.233,3.233,0,0,0,237.76,20.36Zm-9.28-2.96a.555.555,0,0,0-.56-.54.57.57,0,0,0-.5.28,23.313,23.313,0,0,0-1.62,5.02.587.587,0,0,0,.56.56.578.578,0,0,0,.56-.46,21.493,21.493,0,0,1,1.48-4.58A.651.651,0,0,0,228.48,17.4Zm7.14-9.64.04-.68a.523.523,0,0,0-.56-.5.556.556,0,0,0-.54.48,15.859,15.859,0,0,0-.14,1.68q-.06,1.65-.06,3.3a21.81,21.81,0,0,0,.06,2.58.548.548,0,0,0,.56.5c.04,0,.08-.02.12-.02a9.775,9.775,0,0,1,1.32-.1c.9-.08,1.8-.12,2.7-.16a.563.563,0,0,0,.46.38.574.574,0,0,0,.62-.5,21.486,21.486,0,0,0,.14-2.56c.04-1.62.06-3.26.06-4.9a.544.544,0,0,0-.46-.56,6.036,6.036,0,0,0-1.34-.08,17.873,17.873,0,0,0-2.36.2.521.521,0,0,0-.4.58.513.513,0,0,0,.56.52.44.44,0,0,0,.16-.02,9.21,9.21,0,0,1,2.1-.16c.22,0,.42.02.62.02V8.9c-1.24,0-2.5.06-3.74.18C235.56,8.64,235.58,8.2,235.62,7.76Zm3.64,2.26c0,.38-.02.78-.02,1.16-1.26,0-2.52.1-3.76.2,0-.38.02-.78.02-1.16A29.413,29.413,0,0,1,239.26,10.02Zm-.06,2.28c0,.48-.02.94-.04,1.42-1.22.02-2.44.12-3.66.22,0-.48-.02-.96-.02-1.44C236.72,12.4,237.96,12.3,239.2,12.3Zm17.48,1.92a.6.6,0,0,0-.44-.58,8.331,8.331,0,0,0-1.88-.16c-.68,0-1.34.04-2.02.08.18-.96.42-1.9.66-2.84.3-.02.6-.02.9-.02a4.232,4.232,0,0,1,1.12.08.44.44,0,0,0,.16.02.6.6,0,0,0,.6-.6.583.583,0,0,0-.4-.56,6.346,6.346,0,0,0-1.64-.14h-.4c.08-.26.52-1.58.52-1.74a.6.6,0,0,0-1.16-.18c-.26.64-.44,1.34-.64,2a6.462,6.462,0,0,0-1.64.2.578.578,0,0,0-.44.58.589.589,0,0,0,.6.6c.26,0,.84-.12,1.16-.16-.24.94-.46,1.9-.64,2.86a14.854,14.854,0,0,0-1.86.26.607.607,0,0,0,.14,1.2.254.254,0,0,0,.12-.02,10.725,10.725,0,0,1,1.4-.2,14.665,14.665,0,0,0-.22,2.28c0,1.7.44,4.94,2.74,4.94,1.2,0,2.4-1.4,2.84-2.42a.554.554,0,0,0,.06-.26.6.6,0,0,0-1.14-.26c-.28.54-1.06,1.76-1.76,1.76-1.34,0-1.54-2.86-1.54-3.76a16.263,16.263,0,0,1,.24-2.4c.76-.06,1.5-.1,2.26-.1a6.67,6.67,0,0,1,1.54.12.44.44,0,0,0,.16.02A.6.6,0,0,0,256.68,14.22ZM60.14,40.62c0-.72-1.08-.76-1.6-.76a8.149,8.149,0,0,0-3.22.74.6.6,0,0,0,.28,1.14.554.554,0,0,0,.26-.06,7.029,7.029,0,0,1,2.7-.64,2.418,2.418,0,0,1,.76.12,1,1,0,0,0,.24.04A.58.58,0,0,0,60.14,40.62Zm-.08,6.88a.578.578,0,0,0-.58-.62,9.4,9.4,0,0,1-3.4-.8.553.553,0,0,0-.32-.1.624.624,0,0,0-.6.64.562.562,0,0,0,.28.48,10.42,10.42,0,0,0,4,.98A.6.6,0,0,0,60.06,47.5ZM54.54,36.52a.589.589,0,0,0-.6-.6.44.44,0,0,0-.16.02,13.124,13.124,0,0,1-2.16.34.65.65,0,0,0,.22-.5.6.6,0,0,0-.6-.58.609.609,0,0,0-.48.22,7.156,7.156,0,0,0-.58.92c-.78,0-1.56-.08-2.34-.14h-.08a.573.573,0,0,0-.58.6.587.587,0,0,0,.52.6c.6.1,1.24.1,1.84.14-1.26,2.42-3.26,7.22-3.26,9.8,0,.48.04,1.42.7,1.42a.633.633,0,0,0,.62-.6c0-.22-.12-.5-.12-.84,0-2.4,2.24-7.6,3.4-9.78a13.3,13.3,0,0,0,3.22-.44A.6.6,0,0,0,54.54,36.52Zm21.52-.9a.6.6,0,0,0-.6-.6.545.545,0,0,0-.42.18c-.54.48-1.14,1.16-1.66,1.68l-3.9,3.88c-.14.14-.32.3-.46.46a.667.667,0,0,0-.18.46.65.65,0,0,0,.24.44c.86.82,1.64,1.7,2.42,2.6.78.92,1.58,1.84,2.32,2.8l.66.96a.589.589,0,0,0,.5.3.615.615,0,0,0,.6-.6.587.587,0,0,0-.08-.32,23.27,23.27,0,0,0-1.92-2.52c-1.04-1.28-2.12-2.54-3.28-3.72l.02-.02,3.7-3.68,1.3-1.3.56-.58A.545.545,0,0,0,76.06,35.62Zm22.58,1.54c0-.76-1.06-.66-1.58-.66-.8,0-1.62.06-2.42.14a13.849,13.849,0,0,0-.56-1.52.612.612,0,0,0-.56-.38.594.594,0,0,0-.58.58,13.48,13.48,0,0,0,.48,1.44c-.48.04-.98.1-1.46.16l-2.86.28a.6.6,0,0,0-.58.62.611.611,0,0,0,.6.58c.9,0,2.08-.2,2.98-.3l1.66-.18a10.383,10.383,0,0,1,.38,2.72,6.04,6.04,0,0,1-.32,1.98.851.851,0,0,0-.04.22.589.589,0,0,0,.6.6.583.583,0,0,0,.56-.38,6.511,6.511,0,0,0,.4-2.4,11.3,11.3,0,0,0-.38-2.84c.72-.06,1.44-.12,2.18-.12.3,0,.6.04.92.04A.58.58,0,0,0,98.64,37.16ZM92.8,47.92a.615.615,0,0,0-.36-.56c-1.2-.62-2.1-2.62-2.28-3.92a.594.594,0,0,0-.6-.56.585.585,0,0,0-.58.6v.04c.08,1.64,1.4,4.24,2.96,4.94a.616.616,0,0,0,.26.06A.63.63,0,0,0,92.8,47.92Zm28.6-3.48a.615.615,0,0,0-.6-.6.642.642,0,0,0-.44.2c-.22.2-.4.42-.62.62-.58.52-2.18,1.82-2.96,1.88a9.563,9.563,0,0,1-1.4-1.32c-.98-1.04-2.44-2.68-3.98-2.68a5.415,5.415,0,0,0-3.12,1.38,34.436,34.436,0,0,1,4.76-6.48,16.716,16.716,0,0,1,1.22-1.16.6.6,0,0,0,.22-.46.606.606,0,0,0-.6-.62.682.682,0,0,0-.38.14,14.076,14.076,0,0,0-1.82,1.8,37.547,37.547,0,0,0-6.36,10.06.711.711,0,0,0-.04.2.613.613,0,0,0,1.1.38c.3-.36.54-.74.84-1.1.86-1.06,2.72-2.94,4.2-2.94,1.7,0,3.92,4,5.34,4h.02c1.16,0,2.92-1.44,3.76-2.2a5.624,5.624,0,0,0,.7-.68A.607.607,0,0,0,121.4,44.44Zm20.24-10.38a.564.564,0,0,0-.54-.6,11.217,11.217,0,0,0-1.42-.02c-1.72,0-8.26.1-9.58.6a.6.6,0,0,0-.4.56.531.531,0,0,0,.56.54.554.554,0,0,0,.18-.02,18.445,18.445,0,0,1,3.64-.4,5.571,5.571,0,0,0-.82,2.06c-.06.58-.08,1.18-.12,1.76-.06,1.22-.1,2.44-.1,3.68a18.436,18.436,0,0,0,.1,2.58.561.561,0,0,0,.56.5h.1a16.728,16.728,0,0,1,3.28-.4,27.061,27.061,0,0,1-3.56,3.02c-.48.34-.98.64-1.48.96a.562.562,0,0,0-.28.48.576.576,0,0,0,.58.56.651.651,0,0,0,.28-.08,26.778,26.778,0,0,0,6.1-5.04c.26.12.56-.14.66-.36a18.6,18.6,0,0,0,.32-4.14c0-.8-.02-1.62-.04-2.42-.02-.36,0-.72-.04-1.06a.558.558,0,0,0-.4-.52,7.547,7.547,0,0,0-1.66-.14,11.052,11.052,0,0,0-2.46.2.537.537,0,0,0-.42.54.577.577,0,0,0,.56.58.3.3,0,0,0,.14-.02,9.323,9.323,0,0,1,2.24-.16c.28,0,.58,0,.88.02.02.4.04.82.04,1.22a38.345,38.345,0,0,0-4.28.22c.04-.62.06-1.24.14-1.86a6.136,6.136,0,0,1,1.02-2.2l.04-.04c1.48-.06,2.96-.1,4.44-.1.38,0,.76.02,1.14.02A.562.562,0,0,0,141.64,34.06Zm-.94,15.06a.631.631,0,0,0-.14-.38c-.32-.38-.66-.74-1-1.1-.32-.34-.62-.7-.96-1a.546.546,0,0,0-.38-.16.577.577,0,0,0-.58.56.667.667,0,0,0,.18.42c.64.66,1.3,1.3,1.9,2a.5.5,0,0,0,.42.2A.555.555,0,0,0,140.7,49.12Zm-8.84-11.8a.558.558,0,0,0-.46-.56,8.2,8.2,0,0,0-1.72-.08,23.541,23.541,0,0,0-4.94.42.558.558,0,0,0-.38.54.577.577,0,0,0,.56.58.584.584,0,0,0,.18-.04,12.857,12.857,0,0,1,2.62-.32c0,1.56.04,3.12.04,4.68a26.686,26.686,0,0,1-.36,5.5,4.175,4.175,0,0,1-.96-.44.6.6,0,0,0-.32-.1.559.559,0,0,0-.56.56.587.587,0,0,0,.24.46,4.245,4.245,0,0,0,2,.72.567.567,0,0,0,.54-.36c.54-1.46.56-4.78.56-6.4,0-1.56-.04-3.1-.04-4.66.36-.02.72-.02,1.1-.02a8.583,8.583,0,0,1,1.24.06h.1A.531.531,0,0,0,131.86,37.32Zm6.7,3.74a32.283,32.283,0,0,0-4.4.26l.06-1.42a30.994,30.994,0,0,1,4.08-.22h.26Zm-.04,1.12a9.378,9.378,0,0,1-.16,1.68,4.826,4.826,0,0,0-1.08-.1,17.661,17.661,0,0,0-3.08.3c-.02-.54-.04-1.06-.04-1.6A31.713,31.713,0,0,1,138.52,42.18Zm22.68-1.66c0-.64-.26-2.52-1.16-2.52a.6.6,0,0,0-.6.58.588.588,0,0,0,.18.44,2.551,2.551,0,0,1,.38,1.5,2.743,2.743,0,0,1-.24,1.2.554.554,0,0,0-.06.26.633.633,0,0,0,.6.62C161.06,42.6,161.2,41.06,161.2,40.52Zm-9.98,3.32a.6.6,0,0,0-.96-.48,4.472,4.472,0,0,1-1.7.68,12.618,12.618,0,0,1-1.98-3.52c-.12-.36-.22-.72-.32-1.08a.607.607,0,0,0-1.2.12,13.054,13.054,0,0,0,1.4,3.56c.34.62,1.16,2.12,2.02,2.12a5.429,5.429,0,0,0,2.5-.92A.57.57,0,0,0,151.22,43.84Zm26.5-7.34a.585.585,0,0,0-.58-.6c-.24-.02-.48,0-.72-.02h-2.96c-.94,0-1.88,0-2.82.02-.4,0-.86-.02-1.26.02a.6.6,0,0,0-.58.62.616.616,0,0,0,.62.58c1.42,0,2.84-.04,4.26-.04h1.36c-1.76,1.5-3.66,4.32-3.66,6.7a5,5,0,0,0,2.58,4.82.651.651,0,0,0,.28.08.615.615,0,0,0,.6-.6.6.6,0,0,0-.34-.54,4.406,4.406,0,0,1-.64-.42,4.228,4.228,0,0,1-1.28-3.34c0-2.12,2.06-5,3.74-6.2a5.731,5.731,0,0,1,.98-.52A.6.6,0,0,0,177.72,36.5Zm19.82,3.42a.58.58,0,0,0-.58-.58.554.554,0,0,0-.18.02,9.219,9.219,0,0,1-2.08.34c-.02-.78-.04-1.56-.04-2.34a6.616,6.616,0,0,1,1.06.36.469.469,0,0,0,.24.04.587.587,0,0,0,.26-1.12,7.046,7.046,0,0,0-1.56-.48c0-.46.18-1.4-.54-1.4-.7,0-.64.72-.64,1.22-.44-.04-.88-.06-1.34-.06a7.99,7.99,0,0,0-1.38.08.6.6,0,0,0-.5.58.585.585,0,0,0,.58.6h.08a7.8,7.8,0,0,1,1.18-.08c.46,0,.92.04,1.38.08,0,.86.02,1.72.04,2.58-.42,0-.84.02-1.26.02-.78,0-1.56-.06-2.32-.06a.563.563,0,0,0-.62.56.586.586,0,0,0,.56.62c.84.06,1.7.06,2.54.06.38,0,.76,0,1.14-.02l.04,1.16c.02.72.08,1.42.08,2.14a7.89,7.89,0,0,0-2.06-.3c-1.36,0-2.68.42-2.68,2,0,1.34,1.6,2.4,2.84,2.4a3.016,3.016,0,0,0,2.8-2.48,2.262,2.262,0,0,1,.98.8.609.609,0,0,0,.54.36.63.63,0,0,0,.6-.6c0-.72-1.3-1.5-1.86-1.76v-.1c-.02-1.22-.04-2.46-.1-3.68a8.846,8.846,0,0,0,2.4-.38A.608.608,0,0,0,197.54,39.92Zm-4.06,5.5c-.22.84-.7,1.74-1.7,1.74-.56,0-1.66-.58-1.66-1.22,0-.8.88-.82,1.5-.82A6.575,6.575,0,0,1,193.48,45.42Zm28.34-10a.582.582,0,0,0-.48-.58,14.049,14.049,0,0,0-1.84-.26c-1.4-.16-2.8-.26-4.2-.32a9.378,9.378,0,0,0-.24-1.5.558.558,0,0,0-.56-.46.619.619,0,0,0-.62.6c0,.28.18.96.22,1.34h-.32a47.422,47.422,0,0,0-8.06.62,12.342,12.342,0,0,0-1.9.4.577.577,0,0,0-.44.56.615.615,0,0,0,.6.6.34.34,0,0,0,.14-.02,37.479,37.479,0,0,1,9.44-.96h.62v.52c0,.48-.02.98-.04,1.46a4.888,4.888,0,0,0-1.32-.18c-2.56,0-4.44,3.12-4.44,5.44,0,1.54.62,3.3,2.44,3.3,2.88,0,3.94-4.4,4.3-6.6a3.279,3.279,0,0,1,.8,2.16,13.414,13.414,0,0,1-2.1,6.86,14.527,14.527,0,0,1-.98,1.22.576.576,0,0,0-.18.42.615.615,0,0,0,.6.6.576.576,0,0,0,.42-.18c2.1-2.06,3.42-6,3.42-8.92a4.266,4.266,0,0,0-1.8-3.58c.06-.64.08-1.28.08-1.92v-.58a42.534,42.534,0,0,1,5.76.54h.1A.58.58,0,0,0,221.82,35.42Zm-7.8,3.22c-.2,1.56-1.08,6.14-3.2,6.14-1.06,0-1.24-1.28-1.24-2.1,0-1.64,1.36-4.24,3.24-4.24A3.516,3.516,0,0,1,214.02,38.64Zm19.92-3.82a.578.578,0,0,0-.6-.6.589.589,0,0,0-.6.52,26.394,26.394,0,0,0-.18,2.84c-.06,1.84-.14,3.66-.14,5.5,0,.44.02.98.62.98a.63.63,0,0,0,.6-.6c0-2.8.14-5.8.3-8.58Zm.08,14.34a.719.719,0,0,0-.04-.22c-.36-.96.26-2.78-.76-2.78a.615.615,0,0,0-.6.6c0,1.1-.06,2.98.8,2.98A.573.573,0,0,0,234.02,49.16Z" transform="translate(45 13213)" fill="#4a3a3d" stroke="#4a3a3d" stroke-width="0.5"/>
  </g>
</svg>
