<svg xmlns="http://www.w3.org/2000/svg" width="35.788" height="41.905" viewBox="0 0 35.788 41.905">
  <path id="パス_2292" data-name="パス 2292" d="M5.36-12.576a.492.492,0,0,0-.48-.48,4.275,4.275,0,0,0-2.448,1.3A4.968,4.968,0,0,0,.88-8.256c0,2.128,1.712,2.912,3.376,3.632-.48.944-2.7,4.3-2.7,4.9a.485.485,0,0,0,.48.5h.032c.32-.064.368-.16.448-.448A19.529,19.529,0,0,1,3.84-2.016,12.656,12.656,0,0,0,5.3-4.768c0-.528-.64-.736-1.04-.912-1.168-.5-2.416-1.1-2.416-2.576a4.2,4.2,0,0,1,2.128-3.488A2.129,2.129,0,0,1,4.88-12.1.492.492,0,0,0,5.36-12.576Zm12.448,2.448a.809.809,0,0,0-.176-.528c-.432-.56-1.872-.528-2.5-.528-.544-.016-1.072-.016-1.616-.016-1.072,0-7.056.032-7.056,1.52a.5.5,0,0,0,.5.5.492.492,0,0,0,.416-.256c.416-.576,4.24-.768,4.9-.784v.464c0,2.352-.32,4.7-.32,7.056,0,.512-.032,2.128.784,2.128a.471.471,0,0,0,.48-.48.456.456,0,0,0-.192-.384A3.838,3.838,0,0,1,12.9-2.656c0-2.368.336-4.72.336-7.088v-.5h.288a17.219,17.219,0,0,1,3.328.176.493.493,0,0,0,.48.56C17.68-9.5,17.808-9.824,17.808-10.128Zm8.768-.448a.5.5,0,0,0-.5-.5.467.467,0,0,0-.144.032,15.128,15.128,0,0,1-2.848.192,14.047,14.047,0,0,0-3.616.3.492.492,0,0,0-.288.448.471.471,0,0,0,.48.48,5.039,5.039,0,0,0,.576-.144c-.1,1.136-.16,2.288-.24,3.424l-.176,2.928c-.032.688-.08,1.376-.08,2.048a.491.491,0,0,0,.448.544c.56.048,1.152.032,1.712.032a7.161,7.161,0,0,0,3.824-.768.461.461,0,0,0,.256-.416.5.5,0,0,0-.5-.5.593.593,0,0,0-.224.064c-.224.112-.432.224-.656.32a7.891,7.891,0,0,1-2.736.336c-.4,0-.784,0-1.168-.016.064-1.232.128-2.448.208-3.68.8-.064,1.616-.048,2.4-.048H25.44a.492.492,0,0,0,.48-.48.492.492,0,0,0-.48-.48H23.984c-.992,0-2-.016-3.008.032.08-1.152.128-2.3.24-3.44.992-.032,4.336.032,5.04-.272A.481.481,0,0,0,26.576-10.576Zm9.456,2.512c0-2.192-2.432-3.36-4.352-3.36a3.24,3.24,0,0,0-1.1.16.779.779,0,0,0,.016-.192.488.488,0,0,0-.5-.528.482.482,0,0,0-.464.5c0,1.456-.192,2.928-.32,4.368-.16,1.776-.384,3.728-.384,5.5,0,.48-.048,1.568.672,1.568a.492.492,0,0,0,.48-.48.485.485,0,0,0-.16-.352,3.106,3.106,0,0,1-.032-.672c0-.752.048-1.52.112-2.288a2.616,2.616,0,0,0,.352.032C32.336-3.808,36.032-5.872,36.032-8.064Zm-.96-.016c0,1.632-3.312,3.312-4.752,3.312a.7.7,0,0,1-.256-.032c.144-1.776.336-3.536.464-5.312.192-.3.88-.368,1.2-.368C33.088-10.48,35.072-9.664,35.072-8.08ZM16.632,14.061c0-2.673-1.98-6.105-4.95-6.105-1.551,0-2.739,1.254-3.531,2.442-4.092.693-5.643,8.877-5.643,12.243,0,2.244.759,5.28,3.531,5.28,4.29,0,7.953-5.016,9.405-8.58A13.84,13.84,0,0,0,16.632,14.061Zm-1.98,0a14.47,14.47,0,0,1-2.937,7.92c-1.221,1.65-3.432,3.96-5.676,3.96-1.419,0-1.551-2.343-1.551-3.3A18.491,18.491,0,0,1,6.3,14.655a7,7,0,0,0-.2,1.452.972.972,0,0,0,.99.99,1.015,1.015,0,0,0,.99-.99c0-1.452,1.914-6.171,3.6-6.171C13.5,9.936,14.652,12.51,14.652,14.061Zm21.516-2.046c0-2.607-3.432-3.828-5.577-3.828a9.665,9.665,0,0,0-2.574.33c-1.518.363-3.927,1.518-3.927,3.366a2.99,2.99,0,0,0,1.947,2.805.879.879,0,0,0,.4.1,1.022,1.022,0,0,0,1.023-.99c0-1.155-1.386-.825-1.386-1.914,0-.165.264-.429.4-.528a7.012,7.012,0,0,1,4.125-1.188,4.662,4.662,0,0,1,3.3,1.221,1.115,1.115,0,0,1,.3.627c0,.627-2.013,3.234-2.376,3.663-1.749,2.244-3.663,4.356-5.544,6.5L23.5,25.347c-.363.462-.792.924-1.155,1.386a1.042,1.042,0,0,0-.231.627.972.972,0,0,0,.99.99h.165c.66-.066,1.353-.2,2.013-.264,1.749-.132,3.5-.132,5.247-.165.858,0,4.488.033,5.181-.495a.982.982,0,0,0-.528-1.815,1.054,1.054,0,0,0-.462.1,29.136,29.136,0,0,1-4.224.231c-1.683.033-3.333.033-5.016.165L27.753,23.5l3.465-3.993C32.373,18.12,36.168,13.9,36.168,12.015Z" transform="translate(-0.63 13.306)" fill="#0accc8" stroke="#0accc8" stroke-width="0.5"/>
</svg>
